%TF.GenerationSoftware,KiCad,Pcbnew,9.0.5*%
%TF.CreationDate,2025-10-25T18:07:15-04:00*%
%TF.ProjectId,foc_controller,666f635f-636f-46e7-9472-6f6c6c65722e,rev?*%
%TF.SameCoordinates,Original*%
%TF.FileFunction,Drillmap*%
%TF.FilePolarity,Positive*%
%FSLAX45Y45*%
G04 Gerber Fmt 4.5, Leading zero omitted, Abs format (unit mm)*
G04 Created by KiCad (PCBNEW 9.0.5) date 2025-10-25 18:07:15*
%MOMM*%
%LPD*%
G01*
G04 APERTURE LIST*
%ADD10C,0.100000*%
%ADD11C,0.200000*%
G04 APERTURE END LIST*
D10*
X5800000Y-3000000D02*
X9200000Y-3000000D01*
X9200000Y-5650000D01*
X5800000Y-5650000D01*
X5800000Y-3000000D01*
D11*
D10*
X6773500Y-4173500D02*
X6793500Y-4193500D01*
X6793500Y-4173500D02*
X6773500Y-4193500D01*
X6773500Y-4288500D02*
X6793500Y-4308500D01*
X6793500Y-4288500D02*
X6773500Y-4308500D01*
X6888500Y-4173500D02*
X6908500Y-4193500D01*
X6908500Y-4173500D02*
X6888500Y-4193500D01*
X6888500Y-4288500D02*
X6908500Y-4308500D01*
X6908500Y-4288500D02*
X6888500Y-4308500D01*
X5965000Y-3750000D02*
G75*
G02*
X5935000Y-3750000I-15000J0D01*
G01*
X5935000Y-3750000D02*
G75*
G02*
X5965000Y-3750000I15000J0D01*
G01*
X5993500Y-5256000D02*
G75*
G02*
X5963500Y-5256000I-15000J0D01*
G01*
X5963500Y-5256000D02*
G75*
G02*
X5993500Y-5256000I15000J0D01*
G01*
X6025000Y-4350000D02*
G75*
G02*
X5995000Y-4350000I-15000J0D01*
G01*
X5995000Y-4350000D02*
G75*
G02*
X6025000Y-4350000I15000J0D01*
G01*
X6215000Y-4050000D02*
G75*
G02*
X6185000Y-4050000I-15000J0D01*
G01*
X6185000Y-4050000D02*
G75*
G02*
X6215000Y-4050000I15000J0D01*
G01*
X6215000Y-4750000D02*
G75*
G02*
X6185000Y-4750000I-15000J0D01*
G01*
X6185000Y-4750000D02*
G75*
G02*
X6215000Y-4750000I15000J0D01*
G01*
X6230379Y-4910000D02*
G75*
G02*
X6200379Y-4910000I-15000J0D01*
G01*
X6200379Y-4910000D02*
G75*
G02*
X6230379Y-4910000I15000J0D01*
G01*
X6327511Y-5299317D02*
G75*
G02*
X6297511Y-5299317I-15000J0D01*
G01*
X6297511Y-5299317D02*
G75*
G02*
X6327511Y-5299317I15000J0D01*
G01*
X6362500Y-4621873D02*
G75*
G02*
X6332500Y-4621873I-15000J0D01*
G01*
X6332500Y-4621873D02*
G75*
G02*
X6362500Y-4621873I15000J0D01*
G01*
X6365000Y-3910000D02*
G75*
G02*
X6335000Y-3910000I-15000J0D01*
G01*
X6335000Y-3910000D02*
G75*
G02*
X6365000Y-3910000I15000J0D01*
G01*
X6408431Y-5143431D02*
G75*
G02*
X6378431Y-5143431I-15000J0D01*
G01*
X6378431Y-5143431D02*
G75*
G02*
X6408431Y-5143431I15000J0D01*
G01*
X6415392Y-4693039D02*
G75*
G02*
X6385392Y-4693039I-15000J0D01*
G01*
X6385392Y-4693039D02*
G75*
G02*
X6415392Y-4693039I15000J0D01*
G01*
X6465000Y-5200000D02*
G75*
G02*
X6435000Y-5200000I-15000J0D01*
G01*
X6435000Y-5200000D02*
G75*
G02*
X6465000Y-5200000I15000J0D01*
G01*
X6515000Y-3710000D02*
G75*
G02*
X6485000Y-3710000I-15000J0D01*
G01*
X6485000Y-3710000D02*
G75*
G02*
X6515000Y-3710000I15000J0D01*
G01*
X6515000Y-3860000D02*
G75*
G02*
X6485000Y-3860000I-15000J0D01*
G01*
X6485000Y-3860000D02*
G75*
G02*
X6515000Y-3860000I15000J0D01*
G01*
X6521569Y-5256569D02*
G75*
G02*
X6491569Y-5256569I-15000J0D01*
G01*
X6491569Y-5256569D02*
G75*
G02*
X6521569Y-5256569I15000J0D01*
G01*
X6565000Y-4750000D02*
G75*
G02*
X6535000Y-4750000I-15000J0D01*
G01*
X6535000Y-4750000D02*
G75*
G02*
X6565000Y-4750000I15000J0D01*
G01*
X6615000Y-4650000D02*
G75*
G02*
X6585000Y-4650000I-15000J0D01*
G01*
X6585000Y-4650000D02*
G75*
G02*
X6615000Y-4650000I15000J0D01*
G01*
X6625000Y-4100000D02*
G75*
G02*
X6595000Y-4100000I-15000J0D01*
G01*
X6595000Y-4100000D02*
G75*
G02*
X6625000Y-4100000I15000J0D01*
G01*
X6635250Y-4365656D02*
G75*
G02*
X6605250Y-4365656I-15000J0D01*
G01*
X6605250Y-4365656D02*
G75*
G02*
X6635250Y-4365656I15000J0D01*
G01*
X6715000Y-4100000D02*
G75*
G02*
X6685000Y-4100000I-15000J0D01*
G01*
X6685000Y-4100000D02*
G75*
G02*
X6715000Y-4100000I15000J0D01*
G01*
X6715000Y-4441880D02*
G75*
G02*
X6685000Y-4441880I-15000J0D01*
G01*
X6685000Y-4441880D02*
G75*
G02*
X6715000Y-4441880I15000J0D01*
G01*
X6718149Y-5428002D02*
G75*
G02*
X6688149Y-5428002I-15000J0D01*
G01*
X6688149Y-5428002D02*
G75*
G02*
X6718149Y-5428002I15000J0D01*
G01*
X6825000Y-5450000D02*
G75*
G02*
X6795000Y-5450000I-15000J0D01*
G01*
X6795000Y-5450000D02*
G75*
G02*
X6825000Y-5450000I15000J0D01*
G01*
X6875989Y-4500152D02*
G75*
G02*
X6845989Y-4500152I-15000J0D01*
G01*
X6845989Y-4500152D02*
G75*
G02*
X6875989Y-4500152I15000J0D01*
G01*
X6915000Y-5350000D02*
G75*
G02*
X6885000Y-5350000I-15000J0D01*
G01*
X6885000Y-5350000D02*
G75*
G02*
X6915000Y-5350000I15000J0D01*
G01*
X6916000Y-3900000D02*
G75*
G02*
X6886000Y-3900000I-15000J0D01*
G01*
X6886000Y-3900000D02*
G75*
G02*
X6916000Y-3900000I15000J0D01*
G01*
X6965000Y-4000000D02*
G75*
G02*
X6935000Y-4000000I-15000J0D01*
G01*
X6935000Y-4000000D02*
G75*
G02*
X6965000Y-4000000I15000J0D01*
G01*
X6994025Y-4612538D02*
G75*
G02*
X6964025Y-4612538I-15000J0D01*
G01*
X6964025Y-4612538D02*
G75*
G02*
X6994025Y-4612538I15000J0D01*
G01*
X6996000Y-4477711D02*
G75*
G02*
X6966000Y-4477711I-15000J0D01*
G01*
X6966000Y-4477711D02*
G75*
G02*
X6996000Y-4477711I15000J0D01*
G01*
X7015000Y-3900000D02*
G75*
G02*
X6985000Y-3900000I-15000J0D01*
G01*
X6985000Y-3900000D02*
G75*
G02*
X7015000Y-3900000I15000J0D01*
G01*
X7015000Y-4400000D02*
G75*
G02*
X6985000Y-4400000I-15000J0D01*
G01*
X6985000Y-4400000D02*
G75*
G02*
X7015000Y-4400000I15000J0D01*
G01*
X7065000Y-5250000D02*
G75*
G02*
X7035000Y-5250000I-15000J0D01*
G01*
X7035000Y-5250000D02*
G75*
G02*
X7065000Y-5250000I15000J0D01*
G01*
X7082482Y-4050000D02*
G75*
G02*
X7052482Y-4050000I-15000J0D01*
G01*
X7052482Y-4050000D02*
G75*
G02*
X7082482Y-4050000I15000J0D01*
G01*
X7105000Y-4300476D02*
G75*
G02*
X7075000Y-4300476I-15000J0D01*
G01*
X7075000Y-4300476D02*
G75*
G02*
X7105000Y-4300476I15000J0D01*
G01*
X7115000Y-3350000D02*
G75*
G02*
X7085000Y-3350000I-15000J0D01*
G01*
X7085000Y-3350000D02*
G75*
G02*
X7115000Y-3350000I15000J0D01*
G01*
X7149051Y-4740779D02*
G75*
G02*
X7119051Y-4740779I-15000J0D01*
G01*
X7119051Y-4740779D02*
G75*
G02*
X7149051Y-4740779I15000J0D01*
G01*
X7152485Y-4540000D02*
G75*
G02*
X7122485Y-4540000I-15000J0D01*
G01*
X7122485Y-4540000D02*
G75*
G02*
X7152485Y-4540000I15000J0D01*
G01*
X7165000Y-3900000D02*
G75*
G02*
X7135000Y-3900000I-15000J0D01*
G01*
X7135000Y-3900000D02*
G75*
G02*
X7165000Y-3900000I15000J0D01*
G01*
X7165000Y-5050000D02*
G75*
G02*
X7135000Y-5050000I-15000J0D01*
G01*
X7135000Y-5050000D02*
G75*
G02*
X7165000Y-5050000I15000J0D01*
G01*
X7221569Y-5120200D02*
G75*
G02*
X7191569Y-5120200I-15000J0D01*
G01*
X7191569Y-5120200D02*
G75*
G02*
X7221569Y-5120200I15000J0D01*
G01*
X7265000Y-4900100D02*
G75*
G02*
X7235000Y-4900100I-15000J0D01*
G01*
X7235000Y-4900100D02*
G75*
G02*
X7265000Y-4900100I15000J0D01*
G01*
X7464900Y-4800000D02*
G75*
G02*
X7434900Y-4800000I-15000J0D01*
G01*
X7434900Y-4800000D02*
G75*
G02*
X7464900Y-4800000I15000J0D01*
G01*
X7464900Y-4880000D02*
G75*
G02*
X7434900Y-4880000I-15000J0D01*
G01*
X7434900Y-4880000D02*
G75*
G02*
X7464900Y-4880000I15000J0D01*
G01*
X7464900Y-5000100D02*
G75*
G02*
X7434900Y-5000100I-15000J0D01*
G01*
X7434900Y-5000100D02*
G75*
G02*
X7464900Y-5000100I15000J0D01*
G01*
X7515000Y-4400000D02*
G75*
G02*
X7485000Y-4400000I-15000J0D01*
G01*
X7485000Y-4400000D02*
G75*
G02*
X7515000Y-4400000I15000J0D01*
G01*
X7515000Y-4500000D02*
G75*
G02*
X7485000Y-4500000I-15000J0D01*
G01*
X7485000Y-4500000D02*
G75*
G02*
X7515000Y-4500000I15000J0D01*
G01*
X7705000Y-4638645D02*
G75*
G02*
X7675000Y-4638645I-15000J0D01*
G01*
X7675000Y-4638645D02*
G75*
G02*
X7705000Y-4638645I15000J0D01*
G01*
X7765000Y-4750000D02*
G75*
G02*
X7735000Y-4750000I-15000J0D01*
G01*
X7735000Y-4750000D02*
G75*
G02*
X7765000Y-4750000I15000J0D01*
G01*
X7915000Y-5150000D02*
G75*
G02*
X7885000Y-5150000I-15000J0D01*
G01*
X7885000Y-5150000D02*
G75*
G02*
X7915000Y-5150000I15000J0D01*
G01*
X8165000Y-3950000D02*
G75*
G02*
X8135000Y-3950000I-15000J0D01*
G01*
X8135000Y-3950000D02*
G75*
G02*
X8165000Y-3950000I15000J0D01*
G01*
X8365000Y-5150000D02*
G75*
G02*
X8335000Y-5150000I-15000J0D01*
G01*
X8335000Y-5150000D02*
G75*
G02*
X8365000Y-5150000I15000J0D01*
G01*
X8615000Y-5000000D02*
G75*
G02*
X8585000Y-5000000I-15000J0D01*
G01*
X8585000Y-5000000D02*
G75*
G02*
X8615000Y-5000000I15000J0D01*
G01*
X8715000Y-5000000D02*
G75*
G02*
X8685000Y-5000000I-15000J0D01*
G01*
X8685000Y-5000000D02*
G75*
G02*
X8715000Y-5000000I15000J0D01*
G01*
X8722748Y-5327330D02*
G75*
G02*
X8692748Y-5327330I-15000J0D01*
G01*
X8692748Y-5327330D02*
G75*
G02*
X8722748Y-5327330I15000J0D01*
G01*
X8731375Y-4533625D02*
G75*
G02*
X8701375Y-4533625I-15000J0D01*
G01*
X8701375Y-4533625D02*
G75*
G02*
X8731375Y-4533625I15000J0D01*
G01*
X8765000Y-4700000D02*
G75*
G02*
X8735000Y-4700000I-15000J0D01*
G01*
X8735000Y-4700000D02*
G75*
G02*
X8765000Y-4700000I15000J0D01*
G01*
X8965000Y-3600000D02*
G75*
G02*
X8935000Y-3600000I-15000J0D01*
G01*
X8935000Y-3600000D02*
G75*
G02*
X8965000Y-3600000I15000J0D01*
G01*
X6025000Y-3160000D02*
X6025000Y-3240000D01*
X5985000Y-3200000D02*
X6065000Y-3200000D01*
X6225000Y-3160000D02*
X6225000Y-3240000D01*
X6185000Y-3200000D02*
X6265000Y-3200000D01*
X6425000Y-3160000D02*
X6425000Y-3240000D01*
X6385000Y-3200000D02*
X6465000Y-3200000D01*
X6750000Y-3160000D02*
X6750000Y-3240000D01*
X6710000Y-3200000D02*
X6790000Y-3200000D01*
X6950000Y-3160000D02*
X6950000Y-3240000D01*
X6910000Y-3200000D02*
X6990000Y-3200000D01*
X7300000Y-5410000D02*
X7300000Y-5490000D01*
X7260000Y-5450000D02*
X7340000Y-5450000D01*
X7500000Y-5410000D02*
X7500000Y-5490000D01*
X7460000Y-5450000D02*
X7540000Y-5450000D01*
X7700000Y-5410000D02*
X7700000Y-5490000D01*
X7660000Y-5450000D02*
X7740000Y-5450000D01*
X7900000Y-5410000D02*
X7900000Y-5490000D01*
X7860000Y-5450000D02*
X7940000Y-5450000D01*
X8100000Y-5410000D02*
X8100000Y-5490000D01*
X8060000Y-5450000D02*
X8140000Y-5450000D01*
X8400000Y-3160000D02*
X8400000Y-3240000D01*
X8360000Y-3200000D02*
X8440000Y-3200000D01*
X8600000Y-3160000D02*
X8600000Y-3240000D01*
X8560000Y-3200000D02*
X8640000Y-3200000D01*
X9000000Y-4310000D02*
X9000000Y-4390000D01*
X8960000Y-4350000D02*
X9040000Y-4350000D01*
X9000000Y-4510000D02*
X9000000Y-4590000D01*
X8960000Y-4550000D02*
X9040000Y-4550000D01*
X9000000Y-4710000D02*
X9000000Y-4790000D01*
X8960000Y-4750000D02*
X9040000Y-4750000D01*
X9000000Y-4910000D02*
X9000000Y-4990000D01*
X8960000Y-4950000D02*
X9040000Y-4950000D01*
D11*
X6055777Y-5966484D02*
X6055777Y-5766484D01*
X6055777Y-5766484D02*
X6103396Y-5766484D01*
X6103396Y-5766484D02*
X6131967Y-5776008D01*
X6131967Y-5776008D02*
X6151015Y-5795055D01*
X6151015Y-5795055D02*
X6160539Y-5814103D01*
X6160539Y-5814103D02*
X6170062Y-5852198D01*
X6170062Y-5852198D02*
X6170062Y-5880769D01*
X6170062Y-5880769D02*
X6160539Y-5918865D01*
X6160539Y-5918865D02*
X6151015Y-5937912D01*
X6151015Y-5937912D02*
X6131967Y-5956960D01*
X6131967Y-5956960D02*
X6103396Y-5966484D01*
X6103396Y-5966484D02*
X6055777Y-5966484D01*
X6255777Y-5966484D02*
X6255777Y-5833150D01*
X6255777Y-5871246D02*
X6265301Y-5852198D01*
X6265301Y-5852198D02*
X6274824Y-5842674D01*
X6274824Y-5842674D02*
X6293872Y-5833150D01*
X6293872Y-5833150D02*
X6312920Y-5833150D01*
X6379586Y-5966484D02*
X6379586Y-5833150D01*
X6379586Y-5766484D02*
X6370062Y-5776008D01*
X6370062Y-5776008D02*
X6379586Y-5785531D01*
X6379586Y-5785531D02*
X6389110Y-5776008D01*
X6389110Y-5776008D02*
X6379586Y-5766484D01*
X6379586Y-5766484D02*
X6379586Y-5785531D01*
X6503396Y-5966484D02*
X6484348Y-5956960D01*
X6484348Y-5956960D02*
X6474824Y-5937912D01*
X6474824Y-5937912D02*
X6474824Y-5766484D01*
X6608158Y-5966484D02*
X6589110Y-5956960D01*
X6589110Y-5956960D02*
X6579586Y-5937912D01*
X6579586Y-5937912D02*
X6579586Y-5766484D01*
X6836729Y-5966484D02*
X6836729Y-5766484D01*
X6836729Y-5766484D02*
X6903396Y-5909341D01*
X6903396Y-5909341D02*
X6970062Y-5766484D01*
X6970062Y-5766484D02*
X6970062Y-5966484D01*
X7151015Y-5966484D02*
X7151015Y-5861722D01*
X7151015Y-5861722D02*
X7141491Y-5842674D01*
X7141491Y-5842674D02*
X7122443Y-5833150D01*
X7122443Y-5833150D02*
X7084348Y-5833150D01*
X7084348Y-5833150D02*
X7065301Y-5842674D01*
X7151015Y-5956960D02*
X7131967Y-5966484D01*
X7131967Y-5966484D02*
X7084348Y-5966484D01*
X7084348Y-5966484D02*
X7065301Y-5956960D01*
X7065301Y-5956960D02*
X7055777Y-5937912D01*
X7055777Y-5937912D02*
X7055777Y-5918865D01*
X7055777Y-5918865D02*
X7065301Y-5899817D01*
X7065301Y-5899817D02*
X7084348Y-5890293D01*
X7084348Y-5890293D02*
X7131967Y-5890293D01*
X7131967Y-5890293D02*
X7151015Y-5880769D01*
X7246253Y-5833150D02*
X7246253Y-6033150D01*
X7246253Y-5842674D02*
X7265301Y-5833150D01*
X7265301Y-5833150D02*
X7303396Y-5833150D01*
X7303396Y-5833150D02*
X7322443Y-5842674D01*
X7322443Y-5842674D02*
X7331967Y-5852198D01*
X7331967Y-5852198D02*
X7341491Y-5871246D01*
X7341491Y-5871246D02*
X7341491Y-5928388D01*
X7341491Y-5928388D02*
X7331967Y-5947436D01*
X7331967Y-5947436D02*
X7322443Y-5956960D01*
X7322443Y-5956960D02*
X7303396Y-5966484D01*
X7303396Y-5966484D02*
X7265301Y-5966484D01*
X7265301Y-5966484D02*
X7246253Y-5956960D01*
X7427205Y-5947436D02*
X7436729Y-5956960D01*
X7436729Y-5956960D02*
X7427205Y-5966484D01*
X7427205Y-5966484D02*
X7417682Y-5956960D01*
X7417682Y-5956960D02*
X7427205Y-5947436D01*
X7427205Y-5947436D02*
X7427205Y-5966484D01*
X7427205Y-5842674D02*
X7436729Y-5852198D01*
X7436729Y-5852198D02*
X7427205Y-5861722D01*
X7427205Y-5861722D02*
X7417682Y-5852198D01*
X7417682Y-5852198D02*
X7427205Y-5842674D01*
X7427205Y-5842674D02*
X7427205Y-5861722D01*
D10*
X5775000Y-6285000D02*
X5795000Y-6305000D01*
X5795000Y-6285000D02*
X5775000Y-6305000D01*
D11*
X6093872Y-6186484D02*
X6112920Y-6186484D01*
X6112920Y-6186484D02*
X6131967Y-6196008D01*
X6131967Y-6196008D02*
X6141491Y-6205531D01*
X6141491Y-6205531D02*
X6151015Y-6224579D01*
X6151015Y-6224579D02*
X6160539Y-6262674D01*
X6160539Y-6262674D02*
X6160539Y-6310293D01*
X6160539Y-6310293D02*
X6151015Y-6348388D01*
X6151015Y-6348388D02*
X6141491Y-6367436D01*
X6141491Y-6367436D02*
X6131967Y-6376960D01*
X6131967Y-6376960D02*
X6112920Y-6386484D01*
X6112920Y-6386484D02*
X6093872Y-6386484D01*
X6093872Y-6386484D02*
X6074824Y-6376960D01*
X6074824Y-6376960D02*
X6065301Y-6367436D01*
X6065301Y-6367436D02*
X6055777Y-6348388D01*
X6055777Y-6348388D02*
X6046253Y-6310293D01*
X6046253Y-6310293D02*
X6046253Y-6262674D01*
X6046253Y-6262674D02*
X6055777Y-6224579D01*
X6055777Y-6224579D02*
X6065301Y-6205531D01*
X6065301Y-6205531D02*
X6074824Y-6196008D01*
X6074824Y-6196008D02*
X6093872Y-6186484D01*
X6246253Y-6367436D02*
X6255777Y-6376960D01*
X6255777Y-6376960D02*
X6246253Y-6386484D01*
X6246253Y-6386484D02*
X6236729Y-6376960D01*
X6236729Y-6376960D02*
X6246253Y-6367436D01*
X6246253Y-6367436D02*
X6246253Y-6386484D01*
X6331967Y-6205531D02*
X6341491Y-6196008D01*
X6341491Y-6196008D02*
X6360539Y-6186484D01*
X6360539Y-6186484D02*
X6408158Y-6186484D01*
X6408158Y-6186484D02*
X6427205Y-6196008D01*
X6427205Y-6196008D02*
X6436729Y-6205531D01*
X6436729Y-6205531D02*
X6446253Y-6224579D01*
X6446253Y-6224579D02*
X6446253Y-6243627D01*
X6446253Y-6243627D02*
X6436729Y-6272198D01*
X6436729Y-6272198D02*
X6322443Y-6386484D01*
X6322443Y-6386484D02*
X6446253Y-6386484D01*
X6570062Y-6186484D02*
X6589110Y-6186484D01*
X6589110Y-6186484D02*
X6608158Y-6196008D01*
X6608158Y-6196008D02*
X6617682Y-6205531D01*
X6617682Y-6205531D02*
X6627205Y-6224579D01*
X6627205Y-6224579D02*
X6636729Y-6262674D01*
X6636729Y-6262674D02*
X6636729Y-6310293D01*
X6636729Y-6310293D02*
X6627205Y-6348388D01*
X6627205Y-6348388D02*
X6617682Y-6367436D01*
X6617682Y-6367436D02*
X6608158Y-6376960D01*
X6608158Y-6376960D02*
X6589110Y-6386484D01*
X6589110Y-6386484D02*
X6570062Y-6386484D01*
X6570062Y-6386484D02*
X6551015Y-6376960D01*
X6551015Y-6376960D02*
X6541491Y-6367436D01*
X6541491Y-6367436D02*
X6531967Y-6348388D01*
X6531967Y-6348388D02*
X6522443Y-6310293D01*
X6522443Y-6310293D02*
X6522443Y-6262674D01*
X6522443Y-6262674D02*
X6531967Y-6224579D01*
X6531967Y-6224579D02*
X6541491Y-6205531D01*
X6541491Y-6205531D02*
X6551015Y-6196008D01*
X6551015Y-6196008D02*
X6570062Y-6186484D01*
X6760539Y-6186484D02*
X6779586Y-6186484D01*
X6779586Y-6186484D02*
X6798634Y-6196008D01*
X6798634Y-6196008D02*
X6808158Y-6205531D01*
X6808158Y-6205531D02*
X6817682Y-6224579D01*
X6817682Y-6224579D02*
X6827205Y-6262674D01*
X6827205Y-6262674D02*
X6827205Y-6310293D01*
X6827205Y-6310293D02*
X6817682Y-6348388D01*
X6817682Y-6348388D02*
X6808158Y-6367436D01*
X6808158Y-6367436D02*
X6798634Y-6376960D01*
X6798634Y-6376960D02*
X6779586Y-6386484D01*
X6779586Y-6386484D02*
X6760539Y-6386484D01*
X6760539Y-6386484D02*
X6741491Y-6376960D01*
X6741491Y-6376960D02*
X6731967Y-6367436D01*
X6731967Y-6367436D02*
X6722443Y-6348388D01*
X6722443Y-6348388D02*
X6712920Y-6310293D01*
X6712920Y-6310293D02*
X6712920Y-6262674D01*
X6712920Y-6262674D02*
X6722443Y-6224579D01*
X6722443Y-6224579D02*
X6731967Y-6205531D01*
X6731967Y-6205531D02*
X6741491Y-6196008D01*
X6741491Y-6196008D02*
X6760539Y-6186484D01*
X6912920Y-6386484D02*
X6912920Y-6253150D01*
X6912920Y-6272198D02*
X6922443Y-6262674D01*
X6922443Y-6262674D02*
X6941491Y-6253150D01*
X6941491Y-6253150D02*
X6970063Y-6253150D01*
X6970063Y-6253150D02*
X6989110Y-6262674D01*
X6989110Y-6262674D02*
X6998634Y-6281722D01*
X6998634Y-6281722D02*
X6998634Y-6386484D01*
X6998634Y-6281722D02*
X7008158Y-6262674D01*
X7008158Y-6262674D02*
X7027205Y-6253150D01*
X7027205Y-6253150D02*
X7055777Y-6253150D01*
X7055777Y-6253150D02*
X7074824Y-6262674D01*
X7074824Y-6262674D02*
X7084348Y-6281722D01*
X7084348Y-6281722D02*
X7084348Y-6386484D01*
X7179586Y-6386484D02*
X7179586Y-6253150D01*
X7179586Y-6272198D02*
X7189110Y-6262674D01*
X7189110Y-6262674D02*
X7208158Y-6253150D01*
X7208158Y-6253150D02*
X7236729Y-6253150D01*
X7236729Y-6253150D02*
X7255777Y-6262674D01*
X7255777Y-6262674D02*
X7265301Y-6281722D01*
X7265301Y-6281722D02*
X7265301Y-6386484D01*
X7265301Y-6281722D02*
X7274824Y-6262674D01*
X7274824Y-6262674D02*
X7293872Y-6253150D01*
X7293872Y-6253150D02*
X7322443Y-6253150D01*
X7322443Y-6253150D02*
X7341491Y-6262674D01*
X7341491Y-6262674D02*
X7351015Y-6281722D01*
X7351015Y-6281722D02*
X7351015Y-6386484D01*
X7741491Y-6176960D02*
X7570063Y-6434103D01*
X7998634Y-6186484D02*
X8017682Y-6186484D01*
X8017682Y-6186484D02*
X8036729Y-6196008D01*
X8036729Y-6196008D02*
X8046253Y-6205531D01*
X8046253Y-6205531D02*
X8055777Y-6224579D01*
X8055777Y-6224579D02*
X8065301Y-6262674D01*
X8065301Y-6262674D02*
X8065301Y-6310293D01*
X8065301Y-6310293D02*
X8055777Y-6348388D01*
X8055777Y-6348388D02*
X8046253Y-6367436D01*
X8046253Y-6367436D02*
X8036729Y-6376960D01*
X8036729Y-6376960D02*
X8017682Y-6386484D01*
X8017682Y-6386484D02*
X7998634Y-6386484D01*
X7998634Y-6386484D02*
X7979586Y-6376960D01*
X7979586Y-6376960D02*
X7970063Y-6367436D01*
X7970063Y-6367436D02*
X7960539Y-6348388D01*
X7960539Y-6348388D02*
X7951015Y-6310293D01*
X7951015Y-6310293D02*
X7951015Y-6262674D01*
X7951015Y-6262674D02*
X7960539Y-6224579D01*
X7960539Y-6224579D02*
X7970063Y-6205531D01*
X7970063Y-6205531D02*
X7979586Y-6196008D01*
X7979586Y-6196008D02*
X7998634Y-6186484D01*
X8151015Y-6367436D02*
X8160539Y-6376960D01*
X8160539Y-6376960D02*
X8151015Y-6386484D01*
X8151015Y-6386484D02*
X8141491Y-6376960D01*
X8141491Y-6376960D02*
X8151015Y-6367436D01*
X8151015Y-6367436D02*
X8151015Y-6386484D01*
X8284348Y-6186484D02*
X8303396Y-6186484D01*
X8303396Y-6186484D02*
X8322444Y-6196008D01*
X8322444Y-6196008D02*
X8331967Y-6205531D01*
X8331967Y-6205531D02*
X8341491Y-6224579D01*
X8341491Y-6224579D02*
X8351015Y-6262674D01*
X8351015Y-6262674D02*
X8351015Y-6310293D01*
X8351015Y-6310293D02*
X8341491Y-6348388D01*
X8341491Y-6348388D02*
X8331967Y-6367436D01*
X8331967Y-6367436D02*
X8322444Y-6376960D01*
X8322444Y-6376960D02*
X8303396Y-6386484D01*
X8303396Y-6386484D02*
X8284348Y-6386484D01*
X8284348Y-6386484D02*
X8265301Y-6376960D01*
X8265301Y-6376960D02*
X8255777Y-6367436D01*
X8255777Y-6367436D02*
X8246253Y-6348388D01*
X8246253Y-6348388D02*
X8236729Y-6310293D01*
X8236729Y-6310293D02*
X8236729Y-6262674D01*
X8236729Y-6262674D02*
X8246253Y-6224579D01*
X8246253Y-6224579D02*
X8255777Y-6205531D01*
X8255777Y-6205531D02*
X8265301Y-6196008D01*
X8265301Y-6196008D02*
X8284348Y-6186484D01*
X8474825Y-6186484D02*
X8493872Y-6186484D01*
X8493872Y-6186484D02*
X8512920Y-6196008D01*
X8512920Y-6196008D02*
X8522444Y-6205531D01*
X8522444Y-6205531D02*
X8531968Y-6224579D01*
X8531968Y-6224579D02*
X8541491Y-6262674D01*
X8541491Y-6262674D02*
X8541491Y-6310293D01*
X8541491Y-6310293D02*
X8531968Y-6348388D01*
X8531968Y-6348388D02*
X8522444Y-6367436D01*
X8522444Y-6367436D02*
X8512920Y-6376960D01*
X8512920Y-6376960D02*
X8493872Y-6386484D01*
X8493872Y-6386484D02*
X8474825Y-6386484D01*
X8474825Y-6386484D02*
X8455777Y-6376960D01*
X8455777Y-6376960D02*
X8446253Y-6367436D01*
X8446253Y-6367436D02*
X8436729Y-6348388D01*
X8436729Y-6348388D02*
X8427206Y-6310293D01*
X8427206Y-6310293D02*
X8427206Y-6262674D01*
X8427206Y-6262674D02*
X8436729Y-6224579D01*
X8436729Y-6224579D02*
X8446253Y-6205531D01*
X8446253Y-6205531D02*
X8455777Y-6196008D01*
X8455777Y-6196008D02*
X8474825Y-6186484D01*
X8608158Y-6186484D02*
X8741491Y-6186484D01*
X8741491Y-6186484D02*
X8655777Y-6386484D01*
X8827206Y-6386484D02*
X8865301Y-6386484D01*
X8865301Y-6386484D02*
X8884349Y-6376960D01*
X8884349Y-6376960D02*
X8893872Y-6367436D01*
X8893872Y-6367436D02*
X8912920Y-6338865D01*
X8912920Y-6338865D02*
X8922444Y-6300769D01*
X8922444Y-6300769D02*
X8922444Y-6224579D01*
X8922444Y-6224579D02*
X8912920Y-6205531D01*
X8912920Y-6205531D02*
X8903396Y-6196008D01*
X8903396Y-6196008D02*
X8884349Y-6186484D01*
X8884349Y-6186484D02*
X8846253Y-6186484D01*
X8846253Y-6186484D02*
X8827206Y-6196008D01*
X8827206Y-6196008D02*
X8817682Y-6205531D01*
X8817682Y-6205531D02*
X8808158Y-6224579D01*
X8808158Y-6224579D02*
X8808158Y-6272198D01*
X8808158Y-6272198D02*
X8817682Y-6291246D01*
X8817682Y-6291246D02*
X8827206Y-6300769D01*
X8827206Y-6300769D02*
X8846253Y-6310293D01*
X8846253Y-6310293D02*
X8884349Y-6310293D01*
X8884349Y-6310293D02*
X8903396Y-6300769D01*
X8903396Y-6300769D02*
X8912920Y-6291246D01*
X8912920Y-6291246D02*
X8922444Y-6272198D01*
X8998634Y-6186484D02*
X8998634Y-6224579D01*
X9074825Y-6186484D02*
X9074825Y-6224579D01*
X9370063Y-6462674D02*
X9360539Y-6453150D01*
X9360539Y-6453150D02*
X9341491Y-6424579D01*
X9341491Y-6424579D02*
X9331968Y-6405531D01*
X9331968Y-6405531D02*
X9322444Y-6376960D01*
X9322444Y-6376960D02*
X9312920Y-6329341D01*
X9312920Y-6329341D02*
X9312920Y-6291246D01*
X9312920Y-6291246D02*
X9322444Y-6243627D01*
X9322444Y-6243627D02*
X9331968Y-6215055D01*
X9331968Y-6215055D02*
X9341491Y-6196008D01*
X9341491Y-6196008D02*
X9360539Y-6167436D01*
X9360539Y-6167436D02*
X9370063Y-6157912D01*
X9531968Y-6253150D02*
X9531968Y-6386484D01*
X9484349Y-6176960D02*
X9436730Y-6319817D01*
X9436730Y-6319817D02*
X9560539Y-6319817D01*
X9789111Y-6386484D02*
X9789111Y-6186484D01*
X9874825Y-6386484D02*
X9874825Y-6281722D01*
X9874825Y-6281722D02*
X9865301Y-6262674D01*
X9865301Y-6262674D02*
X9846253Y-6253150D01*
X9846253Y-6253150D02*
X9817682Y-6253150D01*
X9817682Y-6253150D02*
X9798634Y-6262674D01*
X9798634Y-6262674D02*
X9789111Y-6272198D01*
X9998634Y-6386484D02*
X9979587Y-6376960D01*
X9979587Y-6376960D02*
X9970063Y-6367436D01*
X9970063Y-6367436D02*
X9960539Y-6348388D01*
X9960539Y-6348388D02*
X9960539Y-6291246D01*
X9960539Y-6291246D02*
X9970063Y-6272198D01*
X9970063Y-6272198D02*
X9979587Y-6262674D01*
X9979587Y-6262674D02*
X9998634Y-6253150D01*
X9998634Y-6253150D02*
X10027206Y-6253150D01*
X10027206Y-6253150D02*
X10046253Y-6262674D01*
X10046253Y-6262674D02*
X10055777Y-6272198D01*
X10055777Y-6272198D02*
X10065301Y-6291246D01*
X10065301Y-6291246D02*
X10065301Y-6348388D01*
X10065301Y-6348388D02*
X10055777Y-6367436D01*
X10055777Y-6367436D02*
X10046253Y-6376960D01*
X10046253Y-6376960D02*
X10027206Y-6386484D01*
X10027206Y-6386484D02*
X9998634Y-6386484D01*
X10179587Y-6386484D02*
X10160539Y-6376960D01*
X10160539Y-6376960D02*
X10151015Y-6357912D01*
X10151015Y-6357912D02*
X10151015Y-6186484D01*
X10331968Y-6376960D02*
X10312920Y-6386484D01*
X10312920Y-6386484D02*
X10274825Y-6386484D01*
X10274825Y-6386484D02*
X10255777Y-6376960D01*
X10255777Y-6376960D02*
X10246253Y-6357912D01*
X10246253Y-6357912D02*
X10246253Y-6281722D01*
X10246253Y-6281722D02*
X10255777Y-6262674D01*
X10255777Y-6262674D02*
X10274825Y-6253150D01*
X10274825Y-6253150D02*
X10312920Y-6253150D01*
X10312920Y-6253150D02*
X10331968Y-6262674D01*
X10331968Y-6262674D02*
X10341492Y-6281722D01*
X10341492Y-6281722D02*
X10341492Y-6300769D01*
X10341492Y-6300769D02*
X10246253Y-6319817D01*
X10417682Y-6376960D02*
X10436730Y-6386484D01*
X10436730Y-6386484D02*
X10474825Y-6386484D01*
X10474825Y-6386484D02*
X10493873Y-6376960D01*
X10493873Y-6376960D02*
X10503396Y-6357912D01*
X10503396Y-6357912D02*
X10503396Y-6348388D01*
X10503396Y-6348388D02*
X10493873Y-6329341D01*
X10493873Y-6329341D02*
X10474825Y-6319817D01*
X10474825Y-6319817D02*
X10446253Y-6319817D01*
X10446253Y-6319817D02*
X10427206Y-6310293D01*
X10427206Y-6310293D02*
X10417682Y-6291246D01*
X10417682Y-6291246D02*
X10417682Y-6281722D01*
X10417682Y-6281722D02*
X10427206Y-6262674D01*
X10427206Y-6262674D02*
X10446253Y-6253150D01*
X10446253Y-6253150D02*
X10474825Y-6253150D01*
X10474825Y-6253150D02*
X10493873Y-6262674D01*
X10570063Y-6462674D02*
X10579587Y-6453150D01*
X10579587Y-6453150D02*
X10598634Y-6424579D01*
X10598634Y-6424579D02*
X10608158Y-6405531D01*
X10608158Y-6405531D02*
X10617682Y-6376960D01*
X10617682Y-6376960D02*
X10627206Y-6329341D01*
X10627206Y-6329341D02*
X10627206Y-6291246D01*
X10627206Y-6291246D02*
X10617682Y-6243627D01*
X10617682Y-6243627D02*
X10608158Y-6215055D01*
X10608158Y-6215055D02*
X10598634Y-6196008D01*
X10598634Y-6196008D02*
X10579587Y-6167436D01*
X10579587Y-6167436D02*
X10570063Y-6157912D01*
D10*
X5795000Y-6559000D02*
G75*
G02*
X5765000Y-6559000I-15000J0D01*
G01*
X5765000Y-6559000D02*
G75*
G02*
X5795000Y-6559000I15000J0D01*
G01*
D11*
X6093872Y-6450484D02*
X6112920Y-6450484D01*
X6112920Y-6450484D02*
X6131967Y-6460008D01*
X6131967Y-6460008D02*
X6141491Y-6469531D01*
X6141491Y-6469531D02*
X6151015Y-6488579D01*
X6151015Y-6488579D02*
X6160539Y-6526674D01*
X6160539Y-6526674D02*
X6160539Y-6574293D01*
X6160539Y-6574293D02*
X6151015Y-6612388D01*
X6151015Y-6612388D02*
X6141491Y-6631436D01*
X6141491Y-6631436D02*
X6131967Y-6640960D01*
X6131967Y-6640960D02*
X6112920Y-6650484D01*
X6112920Y-6650484D02*
X6093872Y-6650484D01*
X6093872Y-6650484D02*
X6074824Y-6640960D01*
X6074824Y-6640960D02*
X6065301Y-6631436D01*
X6065301Y-6631436D02*
X6055777Y-6612388D01*
X6055777Y-6612388D02*
X6046253Y-6574293D01*
X6046253Y-6574293D02*
X6046253Y-6526674D01*
X6046253Y-6526674D02*
X6055777Y-6488579D01*
X6055777Y-6488579D02*
X6065301Y-6469531D01*
X6065301Y-6469531D02*
X6074824Y-6460008D01*
X6074824Y-6460008D02*
X6093872Y-6450484D01*
X6246253Y-6631436D02*
X6255777Y-6640960D01*
X6255777Y-6640960D02*
X6246253Y-6650484D01*
X6246253Y-6650484D02*
X6236729Y-6640960D01*
X6236729Y-6640960D02*
X6246253Y-6631436D01*
X6246253Y-6631436D02*
X6246253Y-6650484D01*
X6322443Y-6450484D02*
X6446253Y-6450484D01*
X6446253Y-6450484D02*
X6379586Y-6526674D01*
X6379586Y-6526674D02*
X6408158Y-6526674D01*
X6408158Y-6526674D02*
X6427205Y-6536198D01*
X6427205Y-6536198D02*
X6436729Y-6545722D01*
X6436729Y-6545722D02*
X6446253Y-6564769D01*
X6446253Y-6564769D02*
X6446253Y-6612388D01*
X6446253Y-6612388D02*
X6436729Y-6631436D01*
X6436729Y-6631436D02*
X6427205Y-6640960D01*
X6427205Y-6640960D02*
X6408158Y-6650484D01*
X6408158Y-6650484D02*
X6351015Y-6650484D01*
X6351015Y-6650484D02*
X6331967Y-6640960D01*
X6331967Y-6640960D02*
X6322443Y-6631436D01*
X6570062Y-6450484D02*
X6589110Y-6450484D01*
X6589110Y-6450484D02*
X6608158Y-6460008D01*
X6608158Y-6460008D02*
X6617682Y-6469531D01*
X6617682Y-6469531D02*
X6627205Y-6488579D01*
X6627205Y-6488579D02*
X6636729Y-6526674D01*
X6636729Y-6526674D02*
X6636729Y-6574293D01*
X6636729Y-6574293D02*
X6627205Y-6612388D01*
X6627205Y-6612388D02*
X6617682Y-6631436D01*
X6617682Y-6631436D02*
X6608158Y-6640960D01*
X6608158Y-6640960D02*
X6589110Y-6650484D01*
X6589110Y-6650484D02*
X6570062Y-6650484D01*
X6570062Y-6650484D02*
X6551015Y-6640960D01*
X6551015Y-6640960D02*
X6541491Y-6631436D01*
X6541491Y-6631436D02*
X6531967Y-6612388D01*
X6531967Y-6612388D02*
X6522443Y-6574293D01*
X6522443Y-6574293D02*
X6522443Y-6526674D01*
X6522443Y-6526674D02*
X6531967Y-6488579D01*
X6531967Y-6488579D02*
X6541491Y-6469531D01*
X6541491Y-6469531D02*
X6551015Y-6460008D01*
X6551015Y-6460008D02*
X6570062Y-6450484D01*
X6760539Y-6450484D02*
X6779586Y-6450484D01*
X6779586Y-6450484D02*
X6798634Y-6460008D01*
X6798634Y-6460008D02*
X6808158Y-6469531D01*
X6808158Y-6469531D02*
X6817682Y-6488579D01*
X6817682Y-6488579D02*
X6827205Y-6526674D01*
X6827205Y-6526674D02*
X6827205Y-6574293D01*
X6827205Y-6574293D02*
X6817682Y-6612388D01*
X6817682Y-6612388D02*
X6808158Y-6631436D01*
X6808158Y-6631436D02*
X6798634Y-6640960D01*
X6798634Y-6640960D02*
X6779586Y-6650484D01*
X6779586Y-6650484D02*
X6760539Y-6650484D01*
X6760539Y-6650484D02*
X6741491Y-6640960D01*
X6741491Y-6640960D02*
X6731967Y-6631436D01*
X6731967Y-6631436D02*
X6722443Y-6612388D01*
X6722443Y-6612388D02*
X6712920Y-6574293D01*
X6712920Y-6574293D02*
X6712920Y-6526674D01*
X6712920Y-6526674D02*
X6722443Y-6488579D01*
X6722443Y-6488579D02*
X6731967Y-6469531D01*
X6731967Y-6469531D02*
X6741491Y-6460008D01*
X6741491Y-6460008D02*
X6760539Y-6450484D01*
X6912920Y-6650484D02*
X6912920Y-6517150D01*
X6912920Y-6536198D02*
X6922443Y-6526674D01*
X6922443Y-6526674D02*
X6941491Y-6517150D01*
X6941491Y-6517150D02*
X6970063Y-6517150D01*
X6970063Y-6517150D02*
X6989110Y-6526674D01*
X6989110Y-6526674D02*
X6998634Y-6545722D01*
X6998634Y-6545722D02*
X6998634Y-6650484D01*
X6998634Y-6545722D02*
X7008158Y-6526674D01*
X7008158Y-6526674D02*
X7027205Y-6517150D01*
X7027205Y-6517150D02*
X7055777Y-6517150D01*
X7055777Y-6517150D02*
X7074824Y-6526674D01*
X7074824Y-6526674D02*
X7084348Y-6545722D01*
X7084348Y-6545722D02*
X7084348Y-6650484D01*
X7179586Y-6650484D02*
X7179586Y-6517150D01*
X7179586Y-6536198D02*
X7189110Y-6526674D01*
X7189110Y-6526674D02*
X7208158Y-6517150D01*
X7208158Y-6517150D02*
X7236729Y-6517150D01*
X7236729Y-6517150D02*
X7255777Y-6526674D01*
X7255777Y-6526674D02*
X7265301Y-6545722D01*
X7265301Y-6545722D02*
X7265301Y-6650484D01*
X7265301Y-6545722D02*
X7274824Y-6526674D01*
X7274824Y-6526674D02*
X7293872Y-6517150D01*
X7293872Y-6517150D02*
X7322443Y-6517150D01*
X7322443Y-6517150D02*
X7341491Y-6526674D01*
X7341491Y-6526674D02*
X7351015Y-6545722D01*
X7351015Y-6545722D02*
X7351015Y-6650484D01*
X7741491Y-6440960D02*
X7570063Y-6698103D01*
X7998634Y-6450484D02*
X8017682Y-6450484D01*
X8017682Y-6450484D02*
X8036729Y-6460008D01*
X8036729Y-6460008D02*
X8046253Y-6469531D01*
X8046253Y-6469531D02*
X8055777Y-6488579D01*
X8055777Y-6488579D02*
X8065301Y-6526674D01*
X8065301Y-6526674D02*
X8065301Y-6574293D01*
X8065301Y-6574293D02*
X8055777Y-6612388D01*
X8055777Y-6612388D02*
X8046253Y-6631436D01*
X8046253Y-6631436D02*
X8036729Y-6640960D01*
X8036729Y-6640960D02*
X8017682Y-6650484D01*
X8017682Y-6650484D02*
X7998634Y-6650484D01*
X7998634Y-6650484D02*
X7979586Y-6640960D01*
X7979586Y-6640960D02*
X7970063Y-6631436D01*
X7970063Y-6631436D02*
X7960539Y-6612388D01*
X7960539Y-6612388D02*
X7951015Y-6574293D01*
X7951015Y-6574293D02*
X7951015Y-6526674D01*
X7951015Y-6526674D02*
X7960539Y-6488579D01*
X7960539Y-6488579D02*
X7970063Y-6469531D01*
X7970063Y-6469531D02*
X7979586Y-6460008D01*
X7979586Y-6460008D02*
X7998634Y-6450484D01*
X8151015Y-6631436D02*
X8160539Y-6640960D01*
X8160539Y-6640960D02*
X8151015Y-6650484D01*
X8151015Y-6650484D02*
X8141491Y-6640960D01*
X8141491Y-6640960D02*
X8151015Y-6631436D01*
X8151015Y-6631436D02*
X8151015Y-6650484D01*
X8284348Y-6450484D02*
X8303396Y-6450484D01*
X8303396Y-6450484D02*
X8322444Y-6460008D01*
X8322444Y-6460008D02*
X8331967Y-6469531D01*
X8331967Y-6469531D02*
X8341491Y-6488579D01*
X8341491Y-6488579D02*
X8351015Y-6526674D01*
X8351015Y-6526674D02*
X8351015Y-6574293D01*
X8351015Y-6574293D02*
X8341491Y-6612388D01*
X8341491Y-6612388D02*
X8331967Y-6631436D01*
X8331967Y-6631436D02*
X8322444Y-6640960D01*
X8322444Y-6640960D02*
X8303396Y-6650484D01*
X8303396Y-6650484D02*
X8284348Y-6650484D01*
X8284348Y-6650484D02*
X8265301Y-6640960D01*
X8265301Y-6640960D02*
X8255777Y-6631436D01*
X8255777Y-6631436D02*
X8246253Y-6612388D01*
X8246253Y-6612388D02*
X8236729Y-6574293D01*
X8236729Y-6574293D02*
X8236729Y-6526674D01*
X8236729Y-6526674D02*
X8246253Y-6488579D01*
X8246253Y-6488579D02*
X8255777Y-6469531D01*
X8255777Y-6469531D02*
X8265301Y-6460008D01*
X8265301Y-6460008D02*
X8284348Y-6450484D01*
X8541491Y-6650484D02*
X8427206Y-6650484D01*
X8484348Y-6650484D02*
X8484348Y-6450484D01*
X8484348Y-6450484D02*
X8465301Y-6479055D01*
X8465301Y-6479055D02*
X8446253Y-6498103D01*
X8446253Y-6498103D02*
X8427206Y-6507627D01*
X8731968Y-6650484D02*
X8617682Y-6650484D01*
X8674825Y-6650484D02*
X8674825Y-6450484D01*
X8674825Y-6450484D02*
X8655777Y-6479055D01*
X8655777Y-6479055D02*
X8636729Y-6498103D01*
X8636729Y-6498103D02*
X8617682Y-6507627D01*
X8846253Y-6536198D02*
X8827206Y-6526674D01*
X8827206Y-6526674D02*
X8817682Y-6517150D01*
X8817682Y-6517150D02*
X8808158Y-6498103D01*
X8808158Y-6498103D02*
X8808158Y-6488579D01*
X8808158Y-6488579D02*
X8817682Y-6469531D01*
X8817682Y-6469531D02*
X8827206Y-6460008D01*
X8827206Y-6460008D02*
X8846253Y-6450484D01*
X8846253Y-6450484D02*
X8884349Y-6450484D01*
X8884349Y-6450484D02*
X8903396Y-6460008D01*
X8903396Y-6460008D02*
X8912920Y-6469531D01*
X8912920Y-6469531D02*
X8922444Y-6488579D01*
X8922444Y-6488579D02*
X8922444Y-6498103D01*
X8922444Y-6498103D02*
X8912920Y-6517150D01*
X8912920Y-6517150D02*
X8903396Y-6526674D01*
X8903396Y-6526674D02*
X8884349Y-6536198D01*
X8884349Y-6536198D02*
X8846253Y-6536198D01*
X8846253Y-6536198D02*
X8827206Y-6545722D01*
X8827206Y-6545722D02*
X8817682Y-6555246D01*
X8817682Y-6555246D02*
X8808158Y-6574293D01*
X8808158Y-6574293D02*
X8808158Y-6612388D01*
X8808158Y-6612388D02*
X8817682Y-6631436D01*
X8817682Y-6631436D02*
X8827206Y-6640960D01*
X8827206Y-6640960D02*
X8846253Y-6650484D01*
X8846253Y-6650484D02*
X8884349Y-6650484D01*
X8884349Y-6650484D02*
X8903396Y-6640960D01*
X8903396Y-6640960D02*
X8912920Y-6631436D01*
X8912920Y-6631436D02*
X8922444Y-6612388D01*
X8922444Y-6612388D02*
X8922444Y-6574293D01*
X8922444Y-6574293D02*
X8912920Y-6555246D01*
X8912920Y-6555246D02*
X8903396Y-6545722D01*
X8903396Y-6545722D02*
X8884349Y-6536198D01*
X8998634Y-6450484D02*
X8998634Y-6488579D01*
X9074825Y-6450484D02*
X9074825Y-6488579D01*
X9370063Y-6726674D02*
X9360539Y-6717150D01*
X9360539Y-6717150D02*
X9341491Y-6688579D01*
X9341491Y-6688579D02*
X9331968Y-6669531D01*
X9331968Y-6669531D02*
X9322444Y-6640960D01*
X9322444Y-6640960D02*
X9312920Y-6593341D01*
X9312920Y-6593341D02*
X9312920Y-6555246D01*
X9312920Y-6555246D02*
X9322444Y-6507627D01*
X9322444Y-6507627D02*
X9331968Y-6479055D01*
X9331968Y-6479055D02*
X9341491Y-6460008D01*
X9341491Y-6460008D02*
X9360539Y-6431436D01*
X9360539Y-6431436D02*
X9370063Y-6421912D01*
X9541491Y-6450484D02*
X9446253Y-6450484D01*
X9446253Y-6450484D02*
X9436730Y-6545722D01*
X9436730Y-6545722D02*
X9446253Y-6536198D01*
X9446253Y-6536198D02*
X9465301Y-6526674D01*
X9465301Y-6526674D02*
X9512920Y-6526674D01*
X9512920Y-6526674D02*
X9531968Y-6536198D01*
X9531968Y-6536198D02*
X9541491Y-6545722D01*
X9541491Y-6545722D02*
X9551015Y-6564769D01*
X9551015Y-6564769D02*
X9551015Y-6612388D01*
X9551015Y-6612388D02*
X9541491Y-6631436D01*
X9541491Y-6631436D02*
X9531968Y-6640960D01*
X9531968Y-6640960D02*
X9512920Y-6650484D01*
X9512920Y-6650484D02*
X9465301Y-6650484D01*
X9465301Y-6650484D02*
X9446253Y-6640960D01*
X9446253Y-6640960D02*
X9436730Y-6631436D01*
X9617682Y-6450484D02*
X9751015Y-6450484D01*
X9751015Y-6450484D02*
X9665301Y-6650484D01*
X9979587Y-6650484D02*
X9979587Y-6450484D01*
X10065301Y-6650484D02*
X10065301Y-6545722D01*
X10065301Y-6545722D02*
X10055777Y-6526674D01*
X10055777Y-6526674D02*
X10036730Y-6517150D01*
X10036730Y-6517150D02*
X10008158Y-6517150D01*
X10008158Y-6517150D02*
X9989111Y-6526674D01*
X9989111Y-6526674D02*
X9979587Y-6536198D01*
X10189111Y-6650484D02*
X10170063Y-6640960D01*
X10170063Y-6640960D02*
X10160539Y-6631436D01*
X10160539Y-6631436D02*
X10151015Y-6612388D01*
X10151015Y-6612388D02*
X10151015Y-6555246D01*
X10151015Y-6555246D02*
X10160539Y-6536198D01*
X10160539Y-6536198D02*
X10170063Y-6526674D01*
X10170063Y-6526674D02*
X10189111Y-6517150D01*
X10189111Y-6517150D02*
X10217682Y-6517150D01*
X10217682Y-6517150D02*
X10236730Y-6526674D01*
X10236730Y-6526674D02*
X10246253Y-6536198D01*
X10246253Y-6536198D02*
X10255777Y-6555246D01*
X10255777Y-6555246D02*
X10255777Y-6612388D01*
X10255777Y-6612388D02*
X10246253Y-6631436D01*
X10246253Y-6631436D02*
X10236730Y-6640960D01*
X10236730Y-6640960D02*
X10217682Y-6650484D01*
X10217682Y-6650484D02*
X10189111Y-6650484D01*
X10370063Y-6650484D02*
X10351015Y-6640960D01*
X10351015Y-6640960D02*
X10341492Y-6621912D01*
X10341492Y-6621912D02*
X10341492Y-6450484D01*
X10522444Y-6640960D02*
X10503396Y-6650484D01*
X10503396Y-6650484D02*
X10465301Y-6650484D01*
X10465301Y-6650484D02*
X10446253Y-6640960D01*
X10446253Y-6640960D02*
X10436730Y-6621912D01*
X10436730Y-6621912D02*
X10436730Y-6545722D01*
X10436730Y-6545722D02*
X10446253Y-6526674D01*
X10446253Y-6526674D02*
X10465301Y-6517150D01*
X10465301Y-6517150D02*
X10503396Y-6517150D01*
X10503396Y-6517150D02*
X10522444Y-6526674D01*
X10522444Y-6526674D02*
X10531968Y-6545722D01*
X10531968Y-6545722D02*
X10531968Y-6564769D01*
X10531968Y-6564769D02*
X10436730Y-6583817D01*
X10608158Y-6640960D02*
X10627206Y-6650484D01*
X10627206Y-6650484D02*
X10665301Y-6650484D01*
X10665301Y-6650484D02*
X10684349Y-6640960D01*
X10684349Y-6640960D02*
X10693873Y-6621912D01*
X10693873Y-6621912D02*
X10693873Y-6612388D01*
X10693873Y-6612388D02*
X10684349Y-6593341D01*
X10684349Y-6593341D02*
X10665301Y-6583817D01*
X10665301Y-6583817D02*
X10636730Y-6583817D01*
X10636730Y-6583817D02*
X10617682Y-6574293D01*
X10617682Y-6574293D02*
X10608158Y-6555246D01*
X10608158Y-6555246D02*
X10608158Y-6545722D01*
X10608158Y-6545722D02*
X10617682Y-6526674D01*
X10617682Y-6526674D02*
X10636730Y-6517150D01*
X10636730Y-6517150D02*
X10665301Y-6517150D01*
X10665301Y-6517150D02*
X10684349Y-6526674D01*
X10760539Y-6726674D02*
X10770063Y-6717150D01*
X10770063Y-6717150D02*
X10789111Y-6688579D01*
X10789111Y-6688579D02*
X10798634Y-6669531D01*
X10798634Y-6669531D02*
X10808158Y-6640960D01*
X10808158Y-6640960D02*
X10817682Y-6593341D01*
X10817682Y-6593341D02*
X10817682Y-6555246D01*
X10817682Y-6555246D02*
X10808158Y-6507627D01*
X10808158Y-6507627D02*
X10798634Y-6479055D01*
X10798634Y-6479055D02*
X10789111Y-6460008D01*
X10789111Y-6460008D02*
X10770063Y-6431436D01*
X10770063Y-6431436D02*
X10760539Y-6421912D01*
D10*
X5755000Y-6783000D02*
X5755000Y-6863000D01*
X5715000Y-6823000D02*
X5795000Y-6823000D01*
D11*
X6093872Y-6714484D02*
X6112920Y-6714484D01*
X6112920Y-6714484D02*
X6131967Y-6724008D01*
X6131967Y-6724008D02*
X6141491Y-6733531D01*
X6141491Y-6733531D02*
X6151015Y-6752579D01*
X6151015Y-6752579D02*
X6160539Y-6790674D01*
X6160539Y-6790674D02*
X6160539Y-6838293D01*
X6160539Y-6838293D02*
X6151015Y-6876388D01*
X6151015Y-6876388D02*
X6141491Y-6895436D01*
X6141491Y-6895436D02*
X6131967Y-6904960D01*
X6131967Y-6904960D02*
X6112920Y-6914484D01*
X6112920Y-6914484D02*
X6093872Y-6914484D01*
X6093872Y-6914484D02*
X6074824Y-6904960D01*
X6074824Y-6904960D02*
X6065301Y-6895436D01*
X6065301Y-6895436D02*
X6055777Y-6876388D01*
X6055777Y-6876388D02*
X6046253Y-6838293D01*
X6046253Y-6838293D02*
X6046253Y-6790674D01*
X6046253Y-6790674D02*
X6055777Y-6752579D01*
X6055777Y-6752579D02*
X6065301Y-6733531D01*
X6065301Y-6733531D02*
X6074824Y-6724008D01*
X6074824Y-6724008D02*
X6093872Y-6714484D01*
X6246253Y-6895436D02*
X6255777Y-6904960D01*
X6255777Y-6904960D02*
X6246253Y-6914484D01*
X6246253Y-6914484D02*
X6236729Y-6904960D01*
X6236729Y-6904960D02*
X6246253Y-6895436D01*
X6246253Y-6895436D02*
X6246253Y-6914484D01*
X6370062Y-6800198D02*
X6351015Y-6790674D01*
X6351015Y-6790674D02*
X6341491Y-6781150D01*
X6341491Y-6781150D02*
X6331967Y-6762103D01*
X6331967Y-6762103D02*
X6331967Y-6752579D01*
X6331967Y-6752579D02*
X6341491Y-6733531D01*
X6341491Y-6733531D02*
X6351015Y-6724008D01*
X6351015Y-6724008D02*
X6370062Y-6714484D01*
X6370062Y-6714484D02*
X6408158Y-6714484D01*
X6408158Y-6714484D02*
X6427205Y-6724008D01*
X6427205Y-6724008D02*
X6436729Y-6733531D01*
X6436729Y-6733531D02*
X6446253Y-6752579D01*
X6446253Y-6752579D02*
X6446253Y-6762103D01*
X6446253Y-6762103D02*
X6436729Y-6781150D01*
X6436729Y-6781150D02*
X6427205Y-6790674D01*
X6427205Y-6790674D02*
X6408158Y-6800198D01*
X6408158Y-6800198D02*
X6370062Y-6800198D01*
X6370062Y-6800198D02*
X6351015Y-6809722D01*
X6351015Y-6809722D02*
X6341491Y-6819246D01*
X6341491Y-6819246D02*
X6331967Y-6838293D01*
X6331967Y-6838293D02*
X6331967Y-6876388D01*
X6331967Y-6876388D02*
X6341491Y-6895436D01*
X6341491Y-6895436D02*
X6351015Y-6904960D01*
X6351015Y-6904960D02*
X6370062Y-6914484D01*
X6370062Y-6914484D02*
X6408158Y-6914484D01*
X6408158Y-6914484D02*
X6427205Y-6904960D01*
X6427205Y-6904960D02*
X6436729Y-6895436D01*
X6436729Y-6895436D02*
X6446253Y-6876388D01*
X6446253Y-6876388D02*
X6446253Y-6838293D01*
X6446253Y-6838293D02*
X6436729Y-6819246D01*
X6436729Y-6819246D02*
X6427205Y-6809722D01*
X6427205Y-6809722D02*
X6408158Y-6800198D01*
X6570062Y-6714484D02*
X6589110Y-6714484D01*
X6589110Y-6714484D02*
X6608158Y-6724008D01*
X6608158Y-6724008D02*
X6617682Y-6733531D01*
X6617682Y-6733531D02*
X6627205Y-6752579D01*
X6627205Y-6752579D02*
X6636729Y-6790674D01*
X6636729Y-6790674D02*
X6636729Y-6838293D01*
X6636729Y-6838293D02*
X6627205Y-6876388D01*
X6627205Y-6876388D02*
X6617682Y-6895436D01*
X6617682Y-6895436D02*
X6608158Y-6904960D01*
X6608158Y-6904960D02*
X6589110Y-6914484D01*
X6589110Y-6914484D02*
X6570062Y-6914484D01*
X6570062Y-6914484D02*
X6551015Y-6904960D01*
X6551015Y-6904960D02*
X6541491Y-6895436D01*
X6541491Y-6895436D02*
X6531967Y-6876388D01*
X6531967Y-6876388D02*
X6522443Y-6838293D01*
X6522443Y-6838293D02*
X6522443Y-6790674D01*
X6522443Y-6790674D02*
X6531967Y-6752579D01*
X6531967Y-6752579D02*
X6541491Y-6733531D01*
X6541491Y-6733531D02*
X6551015Y-6724008D01*
X6551015Y-6724008D02*
X6570062Y-6714484D01*
X6760539Y-6714484D02*
X6779586Y-6714484D01*
X6779586Y-6714484D02*
X6798634Y-6724008D01*
X6798634Y-6724008D02*
X6808158Y-6733531D01*
X6808158Y-6733531D02*
X6817682Y-6752579D01*
X6817682Y-6752579D02*
X6827205Y-6790674D01*
X6827205Y-6790674D02*
X6827205Y-6838293D01*
X6827205Y-6838293D02*
X6817682Y-6876388D01*
X6817682Y-6876388D02*
X6808158Y-6895436D01*
X6808158Y-6895436D02*
X6798634Y-6904960D01*
X6798634Y-6904960D02*
X6779586Y-6914484D01*
X6779586Y-6914484D02*
X6760539Y-6914484D01*
X6760539Y-6914484D02*
X6741491Y-6904960D01*
X6741491Y-6904960D02*
X6731967Y-6895436D01*
X6731967Y-6895436D02*
X6722443Y-6876388D01*
X6722443Y-6876388D02*
X6712920Y-6838293D01*
X6712920Y-6838293D02*
X6712920Y-6790674D01*
X6712920Y-6790674D02*
X6722443Y-6752579D01*
X6722443Y-6752579D02*
X6731967Y-6733531D01*
X6731967Y-6733531D02*
X6741491Y-6724008D01*
X6741491Y-6724008D02*
X6760539Y-6714484D01*
X6912920Y-6914484D02*
X6912920Y-6781150D01*
X6912920Y-6800198D02*
X6922443Y-6790674D01*
X6922443Y-6790674D02*
X6941491Y-6781150D01*
X6941491Y-6781150D02*
X6970063Y-6781150D01*
X6970063Y-6781150D02*
X6989110Y-6790674D01*
X6989110Y-6790674D02*
X6998634Y-6809722D01*
X6998634Y-6809722D02*
X6998634Y-6914484D01*
X6998634Y-6809722D02*
X7008158Y-6790674D01*
X7008158Y-6790674D02*
X7027205Y-6781150D01*
X7027205Y-6781150D02*
X7055777Y-6781150D01*
X7055777Y-6781150D02*
X7074824Y-6790674D01*
X7074824Y-6790674D02*
X7084348Y-6809722D01*
X7084348Y-6809722D02*
X7084348Y-6914484D01*
X7179586Y-6914484D02*
X7179586Y-6781150D01*
X7179586Y-6800198D02*
X7189110Y-6790674D01*
X7189110Y-6790674D02*
X7208158Y-6781150D01*
X7208158Y-6781150D02*
X7236729Y-6781150D01*
X7236729Y-6781150D02*
X7255777Y-6790674D01*
X7255777Y-6790674D02*
X7265301Y-6809722D01*
X7265301Y-6809722D02*
X7265301Y-6914484D01*
X7265301Y-6809722D02*
X7274824Y-6790674D01*
X7274824Y-6790674D02*
X7293872Y-6781150D01*
X7293872Y-6781150D02*
X7322443Y-6781150D01*
X7322443Y-6781150D02*
X7341491Y-6790674D01*
X7341491Y-6790674D02*
X7351015Y-6809722D01*
X7351015Y-6809722D02*
X7351015Y-6914484D01*
X7741491Y-6704960D02*
X7570063Y-6962103D01*
X7998634Y-6714484D02*
X8017682Y-6714484D01*
X8017682Y-6714484D02*
X8036729Y-6724008D01*
X8036729Y-6724008D02*
X8046253Y-6733531D01*
X8046253Y-6733531D02*
X8055777Y-6752579D01*
X8055777Y-6752579D02*
X8065301Y-6790674D01*
X8065301Y-6790674D02*
X8065301Y-6838293D01*
X8065301Y-6838293D02*
X8055777Y-6876388D01*
X8055777Y-6876388D02*
X8046253Y-6895436D01*
X8046253Y-6895436D02*
X8036729Y-6904960D01*
X8036729Y-6904960D02*
X8017682Y-6914484D01*
X8017682Y-6914484D02*
X7998634Y-6914484D01*
X7998634Y-6914484D02*
X7979586Y-6904960D01*
X7979586Y-6904960D02*
X7970063Y-6895436D01*
X7970063Y-6895436D02*
X7960539Y-6876388D01*
X7960539Y-6876388D02*
X7951015Y-6838293D01*
X7951015Y-6838293D02*
X7951015Y-6790674D01*
X7951015Y-6790674D02*
X7960539Y-6752579D01*
X7960539Y-6752579D02*
X7970063Y-6733531D01*
X7970063Y-6733531D02*
X7979586Y-6724008D01*
X7979586Y-6724008D02*
X7998634Y-6714484D01*
X8151015Y-6895436D02*
X8160539Y-6904960D01*
X8160539Y-6904960D02*
X8151015Y-6914484D01*
X8151015Y-6914484D02*
X8141491Y-6904960D01*
X8141491Y-6904960D02*
X8151015Y-6895436D01*
X8151015Y-6895436D02*
X8151015Y-6914484D01*
X8284348Y-6714484D02*
X8303396Y-6714484D01*
X8303396Y-6714484D02*
X8322444Y-6724008D01*
X8322444Y-6724008D02*
X8331967Y-6733531D01*
X8331967Y-6733531D02*
X8341491Y-6752579D01*
X8341491Y-6752579D02*
X8351015Y-6790674D01*
X8351015Y-6790674D02*
X8351015Y-6838293D01*
X8351015Y-6838293D02*
X8341491Y-6876388D01*
X8341491Y-6876388D02*
X8331967Y-6895436D01*
X8331967Y-6895436D02*
X8322444Y-6904960D01*
X8322444Y-6904960D02*
X8303396Y-6914484D01*
X8303396Y-6914484D02*
X8284348Y-6914484D01*
X8284348Y-6914484D02*
X8265301Y-6904960D01*
X8265301Y-6904960D02*
X8255777Y-6895436D01*
X8255777Y-6895436D02*
X8246253Y-6876388D01*
X8246253Y-6876388D02*
X8236729Y-6838293D01*
X8236729Y-6838293D02*
X8236729Y-6790674D01*
X8236729Y-6790674D02*
X8246253Y-6752579D01*
X8246253Y-6752579D02*
X8255777Y-6733531D01*
X8255777Y-6733531D02*
X8265301Y-6724008D01*
X8265301Y-6724008D02*
X8284348Y-6714484D01*
X8417682Y-6714484D02*
X8541491Y-6714484D01*
X8541491Y-6714484D02*
X8474825Y-6790674D01*
X8474825Y-6790674D02*
X8503396Y-6790674D01*
X8503396Y-6790674D02*
X8522444Y-6800198D01*
X8522444Y-6800198D02*
X8531968Y-6809722D01*
X8531968Y-6809722D02*
X8541491Y-6828769D01*
X8541491Y-6828769D02*
X8541491Y-6876388D01*
X8541491Y-6876388D02*
X8531968Y-6895436D01*
X8531968Y-6895436D02*
X8522444Y-6904960D01*
X8522444Y-6904960D02*
X8503396Y-6914484D01*
X8503396Y-6914484D02*
X8446253Y-6914484D01*
X8446253Y-6914484D02*
X8427206Y-6904960D01*
X8427206Y-6904960D02*
X8417682Y-6895436D01*
X8731968Y-6914484D02*
X8617682Y-6914484D01*
X8674825Y-6914484D02*
X8674825Y-6714484D01*
X8674825Y-6714484D02*
X8655777Y-6743055D01*
X8655777Y-6743055D02*
X8636729Y-6762103D01*
X8636729Y-6762103D02*
X8617682Y-6771627D01*
X8912920Y-6714484D02*
X8817682Y-6714484D01*
X8817682Y-6714484D02*
X8808158Y-6809722D01*
X8808158Y-6809722D02*
X8817682Y-6800198D01*
X8817682Y-6800198D02*
X8836729Y-6790674D01*
X8836729Y-6790674D02*
X8884349Y-6790674D01*
X8884349Y-6790674D02*
X8903396Y-6800198D01*
X8903396Y-6800198D02*
X8912920Y-6809722D01*
X8912920Y-6809722D02*
X8922444Y-6828769D01*
X8922444Y-6828769D02*
X8922444Y-6876388D01*
X8922444Y-6876388D02*
X8912920Y-6895436D01*
X8912920Y-6895436D02*
X8903396Y-6904960D01*
X8903396Y-6904960D02*
X8884349Y-6914484D01*
X8884349Y-6914484D02*
X8836729Y-6914484D01*
X8836729Y-6914484D02*
X8817682Y-6904960D01*
X8817682Y-6904960D02*
X8808158Y-6895436D01*
X8998634Y-6714484D02*
X8998634Y-6752579D01*
X9074825Y-6714484D02*
X9074825Y-6752579D01*
X9370063Y-6990674D02*
X9360539Y-6981150D01*
X9360539Y-6981150D02*
X9341491Y-6952579D01*
X9341491Y-6952579D02*
X9331968Y-6933531D01*
X9331968Y-6933531D02*
X9322444Y-6904960D01*
X9322444Y-6904960D02*
X9312920Y-6857341D01*
X9312920Y-6857341D02*
X9312920Y-6819246D01*
X9312920Y-6819246D02*
X9322444Y-6771627D01*
X9322444Y-6771627D02*
X9331968Y-6743055D01*
X9331968Y-6743055D02*
X9341491Y-6724008D01*
X9341491Y-6724008D02*
X9360539Y-6695436D01*
X9360539Y-6695436D02*
X9370063Y-6685912D01*
X9551015Y-6914484D02*
X9436730Y-6914484D01*
X9493872Y-6914484D02*
X9493872Y-6714484D01*
X9493872Y-6714484D02*
X9474825Y-6743055D01*
X9474825Y-6743055D02*
X9455777Y-6762103D01*
X9455777Y-6762103D02*
X9436730Y-6771627D01*
X9722444Y-6714484D02*
X9684349Y-6714484D01*
X9684349Y-6714484D02*
X9665301Y-6724008D01*
X9665301Y-6724008D02*
X9655777Y-6733531D01*
X9655777Y-6733531D02*
X9636730Y-6762103D01*
X9636730Y-6762103D02*
X9627206Y-6800198D01*
X9627206Y-6800198D02*
X9627206Y-6876388D01*
X9627206Y-6876388D02*
X9636730Y-6895436D01*
X9636730Y-6895436D02*
X9646253Y-6904960D01*
X9646253Y-6904960D02*
X9665301Y-6914484D01*
X9665301Y-6914484D02*
X9703396Y-6914484D01*
X9703396Y-6914484D02*
X9722444Y-6904960D01*
X9722444Y-6904960D02*
X9731968Y-6895436D01*
X9731968Y-6895436D02*
X9741491Y-6876388D01*
X9741491Y-6876388D02*
X9741491Y-6828769D01*
X9741491Y-6828769D02*
X9731968Y-6809722D01*
X9731968Y-6809722D02*
X9722444Y-6800198D01*
X9722444Y-6800198D02*
X9703396Y-6790674D01*
X9703396Y-6790674D02*
X9665301Y-6790674D01*
X9665301Y-6790674D02*
X9646253Y-6800198D01*
X9646253Y-6800198D02*
X9636730Y-6809722D01*
X9636730Y-6809722D02*
X9627206Y-6828769D01*
X9979587Y-6914484D02*
X9979587Y-6714484D01*
X10065301Y-6914484D02*
X10065301Y-6809722D01*
X10065301Y-6809722D02*
X10055777Y-6790674D01*
X10055777Y-6790674D02*
X10036730Y-6781150D01*
X10036730Y-6781150D02*
X10008158Y-6781150D01*
X10008158Y-6781150D02*
X9989111Y-6790674D01*
X9989111Y-6790674D02*
X9979587Y-6800198D01*
X10189111Y-6914484D02*
X10170063Y-6904960D01*
X10170063Y-6904960D02*
X10160539Y-6895436D01*
X10160539Y-6895436D02*
X10151015Y-6876388D01*
X10151015Y-6876388D02*
X10151015Y-6819246D01*
X10151015Y-6819246D02*
X10160539Y-6800198D01*
X10160539Y-6800198D02*
X10170063Y-6790674D01*
X10170063Y-6790674D02*
X10189111Y-6781150D01*
X10189111Y-6781150D02*
X10217682Y-6781150D01*
X10217682Y-6781150D02*
X10236730Y-6790674D01*
X10236730Y-6790674D02*
X10246253Y-6800198D01*
X10246253Y-6800198D02*
X10255777Y-6819246D01*
X10255777Y-6819246D02*
X10255777Y-6876388D01*
X10255777Y-6876388D02*
X10246253Y-6895436D01*
X10246253Y-6895436D02*
X10236730Y-6904960D01*
X10236730Y-6904960D02*
X10217682Y-6914484D01*
X10217682Y-6914484D02*
X10189111Y-6914484D01*
X10370063Y-6914484D02*
X10351015Y-6904960D01*
X10351015Y-6904960D02*
X10341492Y-6885912D01*
X10341492Y-6885912D02*
X10341492Y-6714484D01*
X10522444Y-6904960D02*
X10503396Y-6914484D01*
X10503396Y-6914484D02*
X10465301Y-6914484D01*
X10465301Y-6914484D02*
X10446253Y-6904960D01*
X10446253Y-6904960D02*
X10436730Y-6885912D01*
X10436730Y-6885912D02*
X10436730Y-6809722D01*
X10436730Y-6809722D02*
X10446253Y-6790674D01*
X10446253Y-6790674D02*
X10465301Y-6781150D01*
X10465301Y-6781150D02*
X10503396Y-6781150D01*
X10503396Y-6781150D02*
X10522444Y-6790674D01*
X10522444Y-6790674D02*
X10531968Y-6809722D01*
X10531968Y-6809722D02*
X10531968Y-6828769D01*
X10531968Y-6828769D02*
X10436730Y-6847817D01*
X10608158Y-6904960D02*
X10627206Y-6914484D01*
X10627206Y-6914484D02*
X10665301Y-6914484D01*
X10665301Y-6914484D02*
X10684349Y-6904960D01*
X10684349Y-6904960D02*
X10693873Y-6885912D01*
X10693873Y-6885912D02*
X10693873Y-6876388D01*
X10693873Y-6876388D02*
X10684349Y-6857341D01*
X10684349Y-6857341D02*
X10665301Y-6847817D01*
X10665301Y-6847817D02*
X10636730Y-6847817D01*
X10636730Y-6847817D02*
X10617682Y-6838293D01*
X10617682Y-6838293D02*
X10608158Y-6819246D01*
X10608158Y-6819246D02*
X10608158Y-6809722D01*
X10608158Y-6809722D02*
X10617682Y-6790674D01*
X10617682Y-6790674D02*
X10636730Y-6781150D01*
X10636730Y-6781150D02*
X10665301Y-6781150D01*
X10665301Y-6781150D02*
X10684349Y-6790674D01*
X10760539Y-6990674D02*
X10770063Y-6981150D01*
X10770063Y-6981150D02*
X10789111Y-6952579D01*
X10789111Y-6952579D02*
X10798634Y-6933531D01*
X10798634Y-6933531D02*
X10808158Y-6904960D01*
X10808158Y-6904960D02*
X10817682Y-6857341D01*
X10817682Y-6857341D02*
X10817682Y-6819246D01*
X10817682Y-6819246D02*
X10808158Y-6771627D01*
X10808158Y-6771627D02*
X10798634Y-6743055D01*
X10798634Y-6743055D02*
X10789111Y-6724008D01*
X10789111Y-6724008D02*
X10770063Y-6695436D01*
X10770063Y-6695436D02*
X10760539Y-6685912D01*
M02*
