%TF.GenerationSoftware,KiCad,Pcbnew,9.0.5*%
%TF.CreationDate,2025-10-25T18:06:55-04:00*%
%TF.ProjectId,foc_controller,666f635f-636f-46e7-9472-6f6c6c65722e,rev?*%
%TF.SameCoordinates,Original*%
%TF.FileFunction,Copper,L2,Bot*%
%TF.FilePolarity,Positive*%
%FSLAX46Y46*%
G04 Gerber Fmt 4.6, Leading zero omitted, Abs format (unit mm)*
G04 Created by KiCad (PCBNEW 9.0.5) date 2025-10-25 18:06:55*
%MOMM*%
%LPD*%
G01*
G04 APERTURE LIST*
%TA.AperFunction,ComponentPad*%
%ADD10C,1.350000*%
%TD*%
%TA.AperFunction,ComponentPad*%
%ADD11R,1.350000X1.350000*%
%TD*%
%TA.AperFunction,WasherPad*%
%ADD12O,0.990600X2.108200*%
%TD*%
%TA.AperFunction,WasherPad*%
%ADD13O,0.990600X1.803400*%
%TD*%
%TA.AperFunction,HeatsinkPad*%
%ADD14C,0.500000*%
%TD*%
%TA.AperFunction,HeatsinkPad*%
%ADD15R,1.650000X1.650000*%
%TD*%
%TA.AperFunction,ViaPad*%
%ADD16C,0.600000*%
%TD*%
%TA.AperFunction,Conductor*%
%ADD17C,0.200000*%
%TD*%
G04 APERTURE END LIST*
D10*
%TO.P,J1-Programmer1,5,Pin_5*%
%TO.N,GND*%
X81000000Y-54500000D03*
%TO.P,J1-Programmer1,4,Pin_4*%
%TO.N,+3.3V*%
X79000000Y-54500000D03*
%TO.P,J1-Programmer1,3,Pin_3*%
%TO.N,NRST*%
X77000000Y-54500000D03*
%TO.P,J1-Programmer1,2,Pin_2*%
%TO.N,Net-(J1-Programmer1-Pin_2)*%
X75000000Y-54500000D03*
D11*
%TO.P,J1-Programmer1,1,Pin_1*%
%TO.N,Net-(J1-Programmer1-Pin_1)*%
X73000000Y-54500000D03*
%TD*%
%TO.P,J3,1,Pin_1*%
%TO.N,Uout*%
X64250001Y-32000000D03*
D10*
%TO.P,J3,2,Pin_2*%
%TO.N,Vout*%
X62250001Y-32000000D03*
%TO.P,J3,3,Pin_3*%
%TO.N,Wout*%
X60250001Y-32000000D03*
%TD*%
D11*
%TO.P,J1,1,Pin_1*%
%TO.N,+12V*%
X67500000Y-32000000D03*
D10*
%TO.P,J1,2,Pin_2*%
%TO.N,GND*%
X69500000Y-32000000D03*
%TD*%
D11*
%TO.P,J2,1,Pin_1*%
%TO.N,+3.3V*%
X90000000Y-43500000D03*
D10*
%TO.P,J2,2,Pin_2*%
%TO.N,UART2_RX*%
X90000000Y-45500000D03*
%TO.P,J2,3,Pin_3*%
%TO.N,UART2_TX*%
X90000000Y-47500000D03*
%TO.P,J2,4,Pin_4*%
%TO.N,GND*%
X90000000Y-49500000D03*
%TD*%
D12*
%TO.P,J5,*%
%TO.N,*%
X81640000Y-37180001D03*
D13*
X81640000Y-33000000D03*
D12*
X73000000Y-37180001D03*
D13*
X73000000Y-33000000D03*
%TD*%
D14*
%TO.P,U3,21*%
%TO.N,N/C*%
X67835000Y-41835000D03*
X68985000Y-41835000D03*
X68985000Y-42985000D03*
X67835000Y-42985000D03*
D15*
X68410000Y-42410000D03*
%TD*%
D11*
%TO.P,J6,1,Pin_1*%
%TO.N,VBUS*%
X86000000Y-32000000D03*
D10*
%TO.P,J6,2,Pin_2*%
%TO.N,GND*%
X84000000Y-32000000D03*
%TD*%
D16*
%TO.N,GND*%
X87077484Y-53273299D03*
X75000000Y-44000000D03*
%TO.N,+3.3V*%
X76900000Y-46386448D03*
X75000000Y-45000000D03*
%TO.N,I2C_SDA*%
X87000000Y-50000000D03*
X72065687Y-51202003D03*
%TO.N,I2C_SCL*%
X71500000Y-50500000D03*
X86000000Y-50000000D03*
%TO.N,Net-(J1-Programmer1-Pin_1)*%
X72500000Y-49001000D03*
%TO.N,Net-(J1-Programmer1-Pin_2)*%
X74499000Y-50001003D03*
%TO.N,GND*%
X70500000Y-52500000D03*
%TO.N,+3.3VA*%
X69000000Y-53500000D03*
X71374850Y-45400000D03*
%TO.N,GND*%
X83500000Y-51500000D03*
X62000000Y-47500000D03*
X79000000Y-51500000D03*
X89500000Y-36000000D03*
X62153787Y-49100000D03*
X74499000Y-48000000D03*
X65500000Y-47500000D03*
X71500000Y-39000000D03*
X67000000Y-41000000D03*
X71000000Y-33500000D03*
X59785000Y-52560000D03*
X81500000Y-39500000D03*
X62000000Y-40500000D03*
X70674816Y-40500000D03*
X68609890Y-45001522D03*
X69500000Y-40000000D03*
%TO.N,Net-(SW1-B)*%
X77500000Y-47500000D03*
X66202500Y-43656563D03*
%TO.N,+3.3V*%
X69790254Y-46125375D03*
X66000000Y-46500000D03*
%TO.N,V_ADC1_IN10*%
X63125108Y-52993167D03*
X59500000Y-37500000D03*
%TO.N,W_ADC2_IN4*%
X60100000Y-43500000D03*
X67031494Y-54280024D03*
%TO.N,U_ADC1_IN15*%
X68100000Y-54500000D03*
X63475000Y-46218733D03*
%TO.N,UART2_TX*%
X87500000Y-47000000D03*
X71340508Y-47407791D03*
%TO.N,PA2_TIM15_CH1*%
X63934313Y-51434313D03*
X64003921Y-46930392D03*
%TO.N,MOTOR_STDBY*%
X70000000Y-44000000D03*
X64500000Y-52000000D03*
%TO.N,PB5_TIM17_CH1*%
X67000000Y-44418798D03*
X69810000Y-44777111D03*
%TO.N,UART2_RX*%
X74499000Y-48800003D03*
X87163750Y-45336250D03*
%TO.N,MOTOR_DIAG*%
X70900000Y-43004760D03*
X65065687Y-52565687D03*
%TO.N,Vphase*%
X65000000Y-38600000D03*
X69010000Y-39000000D03*
%TO.N,Wphase*%
X63500000Y-39100000D03*
X66100000Y-41000000D03*
%TO.N,Uphase*%
X65000000Y-37100000D03*
X70000000Y-39000000D03*
%TD*%
D17*
%TO.N,GND*%
X68591614Y-45019798D02*
X65519798Y-45019798D01*
X68609890Y-45001522D02*
X68591614Y-45019798D01*
%TO.N,PB5_TIM17_CH1*%
X69810000Y-44777111D02*
X69433411Y-44400522D01*
X69433411Y-44400522D02*
X67018276Y-44400522D01*
X67018276Y-44400522D02*
X67000000Y-44418798D01*
%TO.N,PA2_TIM15_CH1*%
X64003921Y-46930392D02*
X63934313Y-47000000D01*
X63934313Y-47000000D02*
X63934313Y-51434313D01*
%TO.N,U_ADC1_IN15*%
X63475000Y-46218733D02*
X63333313Y-46360420D01*
X63333313Y-46360420D02*
X63333313Y-51752470D01*
X63333313Y-51752470D02*
X64748227Y-53167384D01*
X64748227Y-53167384D02*
X66767384Y-53167384D01*
X66767384Y-53167384D02*
X68100000Y-54500000D01*
%TO.N,PB5_TIM17_CH1*%
X69777109Y-44777111D02*
X69810000Y-44777111D01*
%TO.N,Net-(SW1-B)*%
X70651057Y-42403760D02*
X74403760Y-42403760D01*
X67614057Y-43536000D02*
X69536000Y-43536000D01*
X69536000Y-43536000D02*
X69536000Y-43500000D01*
X74403760Y-42403760D02*
X77500000Y-45500000D01*
X67493494Y-43656563D02*
X67614057Y-43536000D01*
X69554817Y-43500000D02*
X70651057Y-42403760D01*
X66202500Y-43656563D02*
X67493494Y-43656563D01*
X69536000Y-43500000D02*
X69554817Y-43500000D01*
X77500000Y-45500000D02*
X77500000Y-47500000D01*
%TO.N,+3.3V*%
X75000000Y-45000000D02*
X76386448Y-46386448D01*
X76386448Y-46386448D02*
X76900000Y-46386448D01*
%TO.N,V_ADC1_IN10*%
X63125108Y-52993167D02*
X63125108Y-52678465D01*
X59500000Y-47967100D02*
X59500000Y-43749943D01*
X63125108Y-52678465D02*
X61099000Y-50652357D01*
X61099000Y-50652357D02*
X61099000Y-49566100D01*
X61099000Y-49566100D02*
X59500000Y-47967100D01*
X59500000Y-43749943D02*
X59499000Y-43748943D01*
X59499000Y-43748943D02*
X59499000Y-43251057D01*
X59499000Y-43251057D02*
X59500000Y-43250057D01*
X59500000Y-43250057D02*
X59500000Y-37500000D01*
%TO.N,UART2_TX*%
X87500000Y-47000000D02*
X87700003Y-47200003D01*
X87700003Y-47200003D02*
X89700003Y-47200003D01*
X89700003Y-47200003D02*
X90000000Y-47500000D01*
X74500000Y-49401003D02*
X75098997Y-49401003D01*
X75098997Y-49401003D02*
X75498000Y-49002000D01*
X75498000Y-49002000D02*
X78277000Y-49002000D01*
X78277000Y-49002000D02*
X79279000Y-48000000D01*
X79279000Y-48000000D02*
X89500000Y-48000000D01*
X89500000Y-48000000D02*
X90000000Y-47500000D01*
%TO.N,I2C_SDA*%
X72065687Y-51202003D02*
X72767690Y-50500000D01*
X72767690Y-50500000D02*
X73580954Y-50500000D01*
X73580954Y-50500000D02*
X74083957Y-51003003D01*
X74914043Y-51003003D02*
X75417046Y-50500000D01*
X74083957Y-51003003D02*
X74914043Y-51003003D01*
X75417046Y-50500000D02*
X85650057Y-50500000D01*
X85650057Y-50500000D02*
X85751057Y-50601000D01*
X85751057Y-50601000D02*
X86248943Y-50601000D01*
X86248943Y-50601000D02*
X86349943Y-50500000D01*
X86500000Y-50500000D02*
X87000000Y-50000000D01*
X86349943Y-50500000D02*
X86500000Y-50500000D01*
%TO.N,MOTOR_DIAG*%
X69375211Y-47127375D02*
X68788254Y-46540418D01*
X70205297Y-47127375D02*
X69375211Y-47127375D01*
X70792254Y-46540418D02*
X70205297Y-47127375D01*
X68788254Y-46500000D02*
X67484143Y-46500000D01*
X68788254Y-46540418D02*
X68788254Y-46500000D01*
X67015456Y-46968687D02*
X66948356Y-46968687D01*
X70792254Y-45710332D02*
X70792254Y-46540418D01*
X70900000Y-43004760D02*
X70500000Y-43404760D01*
X70812000Y-45192154D02*
X70543038Y-45461116D01*
X70601000Y-44151068D02*
X70812000Y-44362068D01*
X67484143Y-46500000D02*
X67015456Y-46968687D01*
X66502000Y-47915043D02*
X65915043Y-48502000D01*
X65101000Y-52248943D02*
X64748943Y-52601000D01*
X70812000Y-44362068D02*
X70812000Y-45192154D01*
X70601000Y-43751057D02*
X70601000Y-44151068D01*
X70500000Y-43650057D02*
X70601000Y-43751057D01*
X70500000Y-43404760D02*
X70500000Y-43650057D01*
X70543038Y-45461116D02*
X70792254Y-45710332D01*
X66948356Y-46968687D02*
X66502000Y-47415043D01*
X66502000Y-47415043D02*
X66502000Y-47915043D01*
X65915043Y-48502000D02*
X65565100Y-48502000D01*
X65565100Y-48502000D02*
X65101000Y-48966100D01*
X65101000Y-48966100D02*
X65101000Y-52248943D01*
X64748943Y-52601000D02*
X65030374Y-52601000D01*
X65030374Y-52601000D02*
X65065687Y-52565687D01*
%TO.N,UART2_TX*%
X71340508Y-47407791D02*
X71435993Y-47407791D01*
X71435993Y-47407791D02*
X71515733Y-47487531D01*
X71515733Y-47566368D02*
X71501000Y-47581101D01*
X71501000Y-47581101D02*
X71501000Y-47568283D01*
X71515733Y-47487531D02*
X71515733Y-47566368D01*
X71501000Y-47568283D02*
X71340508Y-47407791D01*
X71340508Y-47407791D02*
X72407791Y-47407791D01*
X72407791Y-47407791D02*
X73898000Y-48898000D01*
X74250057Y-49401003D02*
X74500000Y-49401003D01*
X73898000Y-48898000D02*
X73898000Y-49048946D01*
X73898000Y-49048946D02*
X74250057Y-49401003D01*
%TO.N,Net-(J1-Programmer1-Pin_2)*%
X70537497Y-47929375D02*
X69637725Y-47929375D01*
X70774823Y-47692049D02*
X70537497Y-47929375D01*
X71500000Y-48008791D02*
X71091565Y-48008791D01*
X73497000Y-49148057D02*
X72748943Y-48400000D01*
X71590209Y-48099000D02*
X71500000Y-48008791D01*
X72466100Y-48400000D02*
X72165100Y-48099000D01*
X71091565Y-48008791D02*
X70774823Y-47692049D01*
X69248943Y-52899000D02*
X71849943Y-55500000D01*
X72748943Y-48400000D02*
X72466100Y-48400000D01*
X69637725Y-47929375D02*
X67500000Y-50067100D01*
X73497000Y-49215046D02*
X73497000Y-49148057D01*
X72165100Y-48099000D02*
X71590209Y-48099000D01*
X74083957Y-49802003D02*
X73497000Y-49215046D01*
X67500000Y-50067100D02*
X67500000Y-51432900D01*
X74300000Y-49802003D02*
X74083957Y-49802003D01*
X74499000Y-50001003D02*
X74300000Y-49802003D01*
X67500000Y-51432900D02*
X68966100Y-52899000D01*
X68966100Y-52899000D02*
X69248943Y-52899000D01*
%TO.N,Net-(J1-Programmer1-Pin_1)*%
X69958521Y-53041479D02*
X68000000Y-51082958D01*
X68000000Y-51082958D02*
X68000000Y-50134200D01*
X68000000Y-50134200D02*
X69634200Y-48500000D01*
X69634200Y-48500000D02*
X71999000Y-48500000D01*
X71999000Y-48500000D02*
X72500000Y-49001000D01*
X71417043Y-54500000D02*
X69958521Y-53041479D01*
%TO.N,UART2_TX*%
X74500000Y-49401003D02*
X74747943Y-49401003D01*
%TO.N,UART2_RX*%
X78110900Y-48601000D02*
X80311900Y-46400000D01*
X74499000Y-48800003D02*
X74698003Y-48601000D01*
X86100000Y-46400000D02*
X87163750Y-45336250D01*
X74698003Y-48601000D02*
X78110900Y-48601000D01*
X80311900Y-46400000D02*
X86100000Y-46400000D01*
%TO.N,Net-(J1-Programmer1-Pin_1)*%
X69958521Y-53041479D02*
X69708521Y-52791478D01*
%TO.N,+3.3VA*%
X71374850Y-45400000D02*
X71374850Y-45625150D01*
X70371397Y-47528375D02*
X69471625Y-47528375D01*
X71374850Y-45625150D02*
X71193254Y-45806746D01*
X71193254Y-45806746D02*
X71193254Y-46706518D01*
X71193254Y-46706518D02*
X70371397Y-47528375D01*
X69471625Y-47528375D02*
X67000000Y-50000000D01*
X67000000Y-50000000D02*
X67000000Y-51500000D01*
X67000000Y-51500000D02*
X69000000Y-53500000D01*
%TO.N,+3.3V*%
X68858833Y-45602522D02*
X67035313Y-45602522D01*
X69056356Y-45404999D02*
X68858833Y-45602522D01*
X69069878Y-45404999D02*
X69056356Y-45404999D01*
X66333313Y-46166687D02*
X66000000Y-46500000D01*
X67035313Y-45602522D02*
X67035313Y-45814630D01*
X69790254Y-46125375D02*
X69069878Y-45404999D01*
X67035313Y-45814630D02*
X66683256Y-46166687D01*
X66683256Y-46166687D02*
X66333313Y-46166687D01*
%TO.N,MOTOR_STDBY*%
X66601000Y-46748943D02*
X66601000Y-46567687D01*
X69189254Y-46105297D02*
X69189254Y-46374318D01*
X70391254Y-45876432D02*
X70039197Y-45524375D01*
X66248943Y-47101000D02*
X66601000Y-46748943D01*
X64535313Y-51185370D02*
X64500000Y-51150057D01*
X69056206Y-45972249D02*
X69189254Y-46105297D01*
X70391254Y-46374318D02*
X70391254Y-45876432D01*
X65748943Y-48101000D02*
X66101000Y-47748943D01*
X66849356Y-46567687D02*
X67413521Y-46003522D01*
X65399000Y-48101000D02*
X65748943Y-48101000D01*
X66601000Y-46567687D02*
X66849356Y-46567687D01*
X64500000Y-49000000D02*
X65399000Y-48101000D01*
X64500000Y-51150057D02*
X64500000Y-49000000D01*
X66101000Y-47101000D02*
X66248943Y-47101000D01*
X64535313Y-51683256D02*
X64535313Y-51185370D01*
X69024933Y-46003522D02*
X69056206Y-45972249D01*
X66101000Y-47748943D02*
X66101000Y-47101000D01*
X64500000Y-51718569D02*
X64535313Y-51683256D01*
X70039197Y-46726375D02*
X70391254Y-46374318D01*
X70411000Y-45026054D02*
X70411000Y-44528168D01*
X64500000Y-52000000D02*
X64500000Y-51718569D01*
X67413521Y-46003522D02*
X69024933Y-46003522D01*
X69189254Y-46374318D02*
X69541311Y-46726375D01*
X70039197Y-45524375D02*
X70039197Y-45397857D01*
X69541311Y-46726375D02*
X70039197Y-46726375D01*
X70039197Y-45397857D02*
X70411000Y-45026054D01*
X70411000Y-44528168D02*
X70058943Y-44176111D01*
X70058943Y-44176111D02*
X70000000Y-44176111D01*
X70000000Y-44176111D02*
X70000000Y-44000000D01*
%TO.N,W_ADC2_IN4*%
X61500000Y-49400000D02*
X60000000Y-47900000D01*
X61500000Y-50486257D02*
X61500000Y-49400000D01*
X67031494Y-54280024D02*
X66319854Y-53568384D01*
X60000000Y-43600000D02*
X60100000Y-43500000D01*
X60001000Y-44051057D02*
X60001000Y-43933900D01*
X66319854Y-53568384D02*
X64582127Y-53568384D01*
X60000000Y-44052057D02*
X60001000Y-44051057D01*
X64582127Y-53568384D02*
X61500000Y-50486257D01*
X60000000Y-43932900D02*
X60000000Y-43600000D01*
X60001000Y-43933900D02*
X60000000Y-43932900D01*
X60000000Y-47900000D02*
X60000000Y-44052057D01*
%TO.N,Vphase*%
X65000000Y-38600000D02*
X65100000Y-38500000D01*
X68510000Y-38500000D02*
X69010000Y-39000000D01*
X65100000Y-38500000D02*
X68510000Y-38500000D01*
%TO.N,Wphase*%
X63500000Y-39100000D02*
X64200000Y-39100000D01*
X64200000Y-39100000D02*
X66100000Y-41000000D01*
%TO.N,Uphase*%
X65100000Y-37000000D02*
X67500000Y-37000000D01*
X67500000Y-37000000D02*
X68500000Y-38000000D01*
X68500000Y-38000000D02*
X69000000Y-38000000D01*
X65000000Y-37100000D02*
X65100000Y-37000000D01*
X69000000Y-38000000D02*
X70000000Y-39000000D01*
%TO.N,Net-(J1-Programmer1-Pin_1)*%
X73000000Y-54500000D02*
X71417043Y-54500000D01*
%TO.N,Net-(J1-Programmer1-Pin_2)*%
X74000000Y-55500000D02*
X75000000Y-54500000D01*
X71849943Y-55500000D02*
X74000000Y-55500000D01*
%TO.N,I2C_SCL*%
X71500000Y-50500000D02*
X72000000Y-50000000D01*
X74250057Y-50602003D02*
X74747943Y-50602003D01*
X72000000Y-50000000D02*
X73714854Y-50000000D01*
X73714854Y-50000000D02*
X73898000Y-50183146D01*
X73898000Y-50183146D02*
X73898000Y-50249946D01*
X73898000Y-50249946D02*
X74250057Y-50602003D01*
X74747943Y-50602003D02*
X75100000Y-50249946D01*
X75100000Y-50249946D02*
X75100000Y-50000000D01*
X75100000Y-50000000D02*
X86000000Y-50000000D01*
%TD*%
%TA.AperFunction,Conductor*%
%TO.N,GND*%
G36*
X59205203Y-48521984D02*
G01*
X59211681Y-48528016D01*
X60462181Y-49778516D01*
X60495666Y-49839839D01*
X60498500Y-49866197D01*
X60498500Y-50565687D01*
X60498499Y-50565705D01*
X60498499Y-50731411D01*
X60498498Y-50731411D01*
X60539423Y-50884142D01*
X60557048Y-50914669D01*
X60557047Y-50914669D01*
X60557048Y-50914670D01*
X60618475Y-51021066D01*
X60618480Y-51021073D01*
X60737349Y-51139942D01*
X60737355Y-51139947D01*
X62308787Y-52711379D01*
X62342272Y-52772702D01*
X62342723Y-52823251D01*
X62324608Y-52914320D01*
X62324608Y-53072013D01*
X62355369Y-53226656D01*
X62355372Y-53226668D01*
X62415710Y-53372339D01*
X62415717Y-53372352D01*
X62503318Y-53503455D01*
X62503321Y-53503459D01*
X62614815Y-53614953D01*
X62614819Y-53614956D01*
X62745922Y-53702557D01*
X62745935Y-53702564D01*
X62891606Y-53762902D01*
X62891611Y-53762904D01*
X63013096Y-53787069D01*
X63046261Y-53793666D01*
X63046264Y-53793667D01*
X63046266Y-53793667D01*
X63203952Y-53793667D01*
X63203953Y-53793666D01*
X63358605Y-53762904D01*
X63504287Y-53702561D01*
X63635397Y-53614956D01*
X63635397Y-53614955D01*
X63637145Y-53613788D01*
X63703822Y-53592910D01*
X63771202Y-53611394D01*
X63793716Y-53629208D01*
X64213411Y-54048904D01*
X64350342Y-54127961D01*
X64503070Y-54168885D01*
X64503073Y-54168885D01*
X64668781Y-54168885D01*
X64668797Y-54168884D01*
X66019757Y-54168884D01*
X66049197Y-54177528D01*
X66079184Y-54184052D01*
X66084199Y-54187806D01*
X66086796Y-54188569D01*
X66107438Y-54205203D01*
X66196919Y-54294684D01*
X66230404Y-54356007D01*
X66230855Y-54358173D01*
X66261755Y-54513515D01*
X66261758Y-54513525D01*
X66322096Y-54659196D01*
X66322103Y-54659209D01*
X66409704Y-54790312D01*
X66409707Y-54790316D01*
X66521201Y-54901810D01*
X66521205Y-54901813D01*
X66652308Y-54989414D01*
X66652321Y-54989421D01*
X66753336Y-55031262D01*
X66797997Y-55049761D01*
X66952647Y-55080523D01*
X66952650Y-55080524D01*
X66952652Y-55080524D01*
X67110338Y-55080524D01*
X67110339Y-55080523D01*
X67264991Y-55049761D01*
X67367125Y-55007455D01*
X67436592Y-54999987D01*
X67499072Y-55031262D01*
X67502257Y-55034336D01*
X67589707Y-55121786D01*
X67589711Y-55121789D01*
X67720814Y-55209390D01*
X67720827Y-55209397D01*
X67866498Y-55269735D01*
X67866503Y-55269737D01*
X68021153Y-55300499D01*
X68021156Y-55300500D01*
X68021158Y-55300500D01*
X68178844Y-55300500D01*
X68178845Y-55300499D01*
X68333497Y-55269737D01*
X68479179Y-55209394D01*
X68610289Y-55121789D01*
X68721789Y-55010289D01*
X68809394Y-54879179D01*
X68869737Y-54733497D01*
X68900500Y-54578842D01*
X68900500Y-54424500D01*
X68920185Y-54357461D01*
X68972989Y-54311706D01*
X69024500Y-54300500D01*
X69078844Y-54300500D01*
X69078845Y-54300499D01*
X69233497Y-54269737D01*
X69379179Y-54209394D01*
X69439805Y-54168885D01*
X69492939Y-54133382D01*
X69559616Y-54112504D01*
X69626996Y-54130988D01*
X69649511Y-54148803D01*
X71288527Y-55787819D01*
X71322012Y-55849142D01*
X71317028Y-55918834D01*
X71275156Y-55974767D01*
X71209692Y-55999184D01*
X71200846Y-55999500D01*
X59124000Y-55999500D01*
X59056961Y-55979815D01*
X59011206Y-55927011D01*
X59000000Y-55875500D01*
X59000000Y-48615697D01*
X59019685Y-48548658D01*
X59072489Y-48502903D01*
X59141647Y-48492959D01*
X59205203Y-48521984D01*
G37*
%TD.AperFunction*%
%TA.AperFunction,Conductor*%
G36*
X89024820Y-48620185D02*
G01*
X89070575Y-48672989D01*
X89080519Y-48742147D01*
X89058099Y-48797385D01*
X88995052Y-48884162D01*
X88911084Y-49048956D01*
X88911083Y-49048959D01*
X88853933Y-49224852D01*
X88825000Y-49407526D01*
X88825000Y-49592473D01*
X88853933Y-49775147D01*
X88911083Y-49951040D01*
X88911084Y-49951043D01*
X88995050Y-50115834D01*
X89010015Y-50136430D01*
X89600000Y-49546445D01*
X89600000Y-49552661D01*
X89627259Y-49654394D01*
X89679920Y-49745606D01*
X89754394Y-49820080D01*
X89845606Y-49872741D01*
X89947339Y-49900000D01*
X89953553Y-49900000D01*
X89363568Y-50489983D01*
X89363568Y-50489984D01*
X89384165Y-50504949D01*
X89548956Y-50588915D01*
X89548959Y-50588916D01*
X89724852Y-50646066D01*
X89907527Y-50675000D01*
X90092473Y-50675000D01*
X90275147Y-50646066D01*
X90451040Y-50588916D01*
X90451043Y-50588915D01*
X90615836Y-50504947D01*
X90615845Y-50504942D01*
X90636430Y-50489984D01*
X90636431Y-50489983D01*
X90046448Y-49900000D01*
X90052661Y-49900000D01*
X90154394Y-49872741D01*
X90245606Y-49820080D01*
X90320080Y-49745606D01*
X90372741Y-49654394D01*
X90400000Y-49552661D01*
X90400000Y-49546447D01*
X90989983Y-50136430D01*
X90989984Y-50136430D01*
X91004942Y-50115845D01*
X91004947Y-50115836D01*
X91088915Y-49951043D01*
X91088917Y-49951037D01*
X91137271Y-49802217D01*
X91176708Y-49744541D01*
X91241066Y-49717342D01*
X91309913Y-49729256D01*
X91361389Y-49776500D01*
X91379178Y-49838103D01*
X91497511Y-55873069D01*
X91479145Y-55940482D01*
X91427248Y-55987263D01*
X91373535Y-55999500D01*
X74649096Y-55999500D01*
X74582057Y-55979815D01*
X74536302Y-55927011D01*
X74526358Y-55857853D01*
X74555383Y-55794297D01*
X74561415Y-55787819D01*
X74661020Y-55688214D01*
X74722342Y-55654730D01*
X74768098Y-55653423D01*
X74907486Y-55675500D01*
X74907487Y-55675500D01*
X75092513Y-55675500D01*
X75092514Y-55675500D01*
X75275264Y-55646555D01*
X75451235Y-55589379D01*
X75616096Y-55505378D01*
X75765787Y-55396621D01*
X75896621Y-55265787D01*
X75899680Y-55261576D01*
X75955006Y-55218909D01*
X76024619Y-55212926D01*
X76086415Y-55245529D01*
X76100315Y-55261570D01*
X76103379Y-55265787D01*
X76234213Y-55396621D01*
X76383904Y-55505378D01*
X76464763Y-55546577D01*
X76548764Y-55589379D01*
X76548767Y-55589380D01*
X76636750Y-55617967D01*
X76724736Y-55646555D01*
X76907486Y-55675500D01*
X76907487Y-55675500D01*
X77092513Y-55675500D01*
X77092514Y-55675500D01*
X77275264Y-55646555D01*
X77451235Y-55589379D01*
X77616096Y-55505378D01*
X77765787Y-55396621D01*
X77896621Y-55265787D01*
X77899680Y-55261576D01*
X77955006Y-55218909D01*
X78024619Y-55212926D01*
X78086415Y-55245529D01*
X78100315Y-55261570D01*
X78103379Y-55265787D01*
X78234213Y-55396621D01*
X78383904Y-55505378D01*
X78464763Y-55546577D01*
X78548764Y-55589379D01*
X78548767Y-55589380D01*
X78636750Y-55617967D01*
X78724736Y-55646555D01*
X78907486Y-55675500D01*
X78907487Y-55675500D01*
X79092513Y-55675500D01*
X79092514Y-55675500D01*
X79275264Y-55646555D01*
X79451235Y-55589379D01*
X79616096Y-55505378D01*
X79765787Y-55396621D01*
X79896621Y-55265787D01*
X79954112Y-55186656D01*
X79957774Y-55182466D01*
X79974867Y-55171579D01*
X80600000Y-54546446D01*
X80600000Y-54552661D01*
X80627259Y-54654394D01*
X80679920Y-54745606D01*
X80754394Y-54820080D01*
X80845606Y-54872741D01*
X80947339Y-54900000D01*
X80953553Y-54900000D01*
X80363568Y-55489983D01*
X80363568Y-55489984D01*
X80384165Y-55504949D01*
X80548956Y-55588915D01*
X80548959Y-55588916D01*
X80724852Y-55646066D01*
X80907527Y-55675000D01*
X81092473Y-55675000D01*
X81275147Y-55646066D01*
X81451040Y-55588916D01*
X81451043Y-55588915D01*
X81615836Y-55504947D01*
X81615845Y-55504942D01*
X81636430Y-55489984D01*
X81636431Y-55489983D01*
X81046448Y-54900000D01*
X81052661Y-54900000D01*
X81154394Y-54872741D01*
X81245606Y-54820080D01*
X81320080Y-54745606D01*
X81372741Y-54654394D01*
X81400000Y-54552661D01*
X81400000Y-54546447D01*
X81989983Y-55136430D01*
X81989984Y-55136430D01*
X82004942Y-55115845D01*
X82004947Y-55115836D01*
X82088915Y-54951043D01*
X82088916Y-54951040D01*
X82146066Y-54775147D01*
X82175000Y-54592473D01*
X82175000Y-54407526D01*
X82146066Y-54224852D01*
X82088916Y-54048959D01*
X82088915Y-54048956D01*
X82004949Y-53884165D01*
X81989983Y-53863568D01*
X81400000Y-54453551D01*
X81400000Y-54447339D01*
X81372741Y-54345606D01*
X81320080Y-54254394D01*
X81245606Y-54179920D01*
X81154394Y-54127259D01*
X81052661Y-54100000D01*
X81046447Y-54100000D01*
X81636431Y-53510016D01*
X81636430Y-53510015D01*
X81615834Y-53495050D01*
X81451043Y-53411084D01*
X81451040Y-53411083D01*
X81275147Y-53353933D01*
X81092473Y-53325000D01*
X80907527Y-53325000D01*
X80724852Y-53353933D01*
X80548959Y-53411083D01*
X80548956Y-53411084D01*
X80384167Y-53495049D01*
X80363568Y-53510015D01*
X80953554Y-54100000D01*
X80947339Y-54100000D01*
X80845606Y-54127259D01*
X80754394Y-54179920D01*
X80679920Y-54254394D01*
X80627259Y-54345606D01*
X80600000Y-54447339D01*
X80600000Y-54453552D01*
X79988310Y-53841862D01*
X79987844Y-53841491D01*
X79984541Y-53840536D01*
X79972885Y-53829573D01*
X79957773Y-53817532D01*
X79954109Y-53813338D01*
X79896621Y-53734213D01*
X79765787Y-53603379D01*
X79616096Y-53494622D01*
X79562778Y-53467455D01*
X79451235Y-53410620D01*
X79451232Y-53410619D01*
X79275265Y-53353445D01*
X79132972Y-53330908D01*
X79092514Y-53324500D01*
X78907486Y-53324500D01*
X78867028Y-53330908D01*
X78724734Y-53353445D01*
X78548767Y-53410619D01*
X78548764Y-53410620D01*
X78383903Y-53494622D01*
X78317425Y-53542922D01*
X78234213Y-53603379D01*
X78234211Y-53603381D01*
X78234210Y-53603381D01*
X78103381Y-53734210D01*
X78100314Y-53738432D01*
X78044981Y-53781094D01*
X77975367Y-53787069D01*
X77913574Y-53754459D01*
X77899686Y-53738432D01*
X77896621Y-53734213D01*
X77765787Y-53603379D01*
X77616096Y-53494622D01*
X77562778Y-53467455D01*
X77451235Y-53410620D01*
X77451232Y-53410619D01*
X77275265Y-53353445D01*
X77132972Y-53330908D01*
X77092514Y-53324500D01*
X76907486Y-53324500D01*
X76867028Y-53330908D01*
X76724734Y-53353445D01*
X76548767Y-53410619D01*
X76548764Y-53410620D01*
X76383903Y-53494622D01*
X76317425Y-53542922D01*
X76234213Y-53603379D01*
X76234211Y-53603381D01*
X76234210Y-53603381D01*
X76103381Y-53734210D01*
X76100314Y-53738432D01*
X76044981Y-53781094D01*
X75975367Y-53787069D01*
X75913574Y-53754459D01*
X75899686Y-53738432D01*
X75896621Y-53734213D01*
X75765787Y-53603379D01*
X75616096Y-53494622D01*
X75562778Y-53467455D01*
X75451235Y-53410620D01*
X75451232Y-53410619D01*
X75275265Y-53353445D01*
X75132972Y-53330908D01*
X75092514Y-53324500D01*
X74907486Y-53324500D01*
X74867028Y-53330908D01*
X74724734Y-53353445D01*
X74548767Y-53410619D01*
X74548764Y-53410620D01*
X74383900Y-53494624D01*
X74268392Y-53578545D01*
X74202586Y-53602025D01*
X74134532Y-53586199D01*
X74096241Y-53552539D01*
X74053204Y-53495050D01*
X74032546Y-53467454D01*
X74032544Y-53467453D01*
X74032544Y-53467452D01*
X73917335Y-53381206D01*
X73917328Y-53381202D01*
X73782482Y-53330908D01*
X73782483Y-53330908D01*
X73722883Y-53324501D01*
X73722881Y-53324500D01*
X73722873Y-53324500D01*
X73722864Y-53324500D01*
X72277129Y-53324500D01*
X72277123Y-53324501D01*
X72217516Y-53330908D01*
X72082671Y-53381202D01*
X72082664Y-53381206D01*
X71967455Y-53467452D01*
X71967452Y-53467455D01*
X71881206Y-53582664D01*
X71881202Y-53582671D01*
X71830908Y-53717516D01*
X71824917Y-53773244D01*
X71798179Y-53837795D01*
X71740786Y-53877643D01*
X71670961Y-53880136D01*
X71613947Y-53847669D01*
X70365684Y-52599407D01*
X70071865Y-52305586D01*
X70071848Y-52305571D01*
X68636819Y-50870542D01*
X68603334Y-50809219D01*
X68600500Y-50782861D01*
X68600500Y-50434297D01*
X68620185Y-50367258D01*
X68636819Y-50346616D01*
X69846617Y-49136819D01*
X69907940Y-49103334D01*
X69934298Y-49100500D01*
X71601845Y-49100500D01*
X71624588Y-49107178D01*
X71648185Y-49109484D01*
X71657498Y-49116841D01*
X71668884Y-49120185D01*
X71684405Y-49138098D01*
X71703011Y-49152796D01*
X71708804Y-49166255D01*
X71714639Y-49172989D01*
X71719114Y-49184202D01*
X71721831Y-49192110D01*
X71730263Y-49234497D01*
X71766266Y-49321417D01*
X71767515Y-49325051D01*
X71768933Y-49356274D01*
X71772276Y-49387367D01*
X71770506Y-49390901D01*
X71770686Y-49394849D01*
X71754995Y-49421887D01*
X71741000Y-49449846D01*
X71736857Y-49453143D01*
X71735618Y-49455280D01*
X71731560Y-49457360D01*
X71712246Y-49472736D01*
X71631287Y-49519477D01*
X71485337Y-49665427D01*
X71424014Y-49698911D01*
X71421848Y-49699362D01*
X71266508Y-49730261D01*
X71266498Y-49730264D01*
X71120827Y-49790602D01*
X71120814Y-49790609D01*
X70989711Y-49878210D01*
X70989707Y-49878213D01*
X70878213Y-49989707D01*
X70878210Y-49989711D01*
X70790609Y-50120814D01*
X70790602Y-50120827D01*
X70730264Y-50266498D01*
X70730261Y-50266510D01*
X70699500Y-50421153D01*
X70699500Y-50578846D01*
X70730261Y-50733489D01*
X70730264Y-50733501D01*
X70790602Y-50879172D01*
X70790609Y-50879185D01*
X70878210Y-51010288D01*
X70878213Y-51010292D01*
X70989710Y-51121789D01*
X71047761Y-51160577D01*
X71120821Y-51209394D01*
X71201426Y-51242781D01*
X71255828Y-51286620D01*
X71275590Y-51333149D01*
X71295948Y-51435494D01*
X71295951Y-51435504D01*
X71356289Y-51581175D01*
X71356296Y-51581188D01*
X71443897Y-51712291D01*
X71443900Y-51712295D01*
X71555394Y-51823789D01*
X71555398Y-51823792D01*
X71686501Y-51911393D01*
X71686514Y-51911400D01*
X71832185Y-51971738D01*
X71832190Y-51971740D01*
X71986840Y-52002502D01*
X71986843Y-52002503D01*
X71986845Y-52002503D01*
X72144531Y-52002503D01*
X72144532Y-52002502D01*
X72299184Y-51971740D01*
X72444866Y-51911397D01*
X72575976Y-51823792D01*
X72687476Y-51712292D01*
X72775081Y-51581182D01*
X72775963Y-51579054D01*
X72835422Y-51435504D01*
X72835424Y-51435500D01*
X72855783Y-51333149D01*
X72866325Y-51280153D01*
X72875089Y-51263397D01*
X72879110Y-51244916D01*
X72897855Y-51219874D01*
X72898710Y-51218242D01*
X72900154Y-51216770D01*
X72980108Y-51136816D01*
X73041430Y-51103334D01*
X73067787Y-51100500D01*
X73280857Y-51100500D01*
X73347896Y-51120185D01*
X73368537Y-51136818D01*
X73715241Y-51483523D01*
X73715243Y-51483524D01*
X73715247Y-51483527D01*
X73852166Y-51562576D01*
X73852173Y-51562580D01*
X74004900Y-51603504D01*
X74004902Y-51603504D01*
X74170611Y-51603504D01*
X74170627Y-51603503D01*
X74827374Y-51603503D01*
X74827390Y-51603504D01*
X74834986Y-51603504D01*
X74993097Y-51603504D01*
X74993100Y-51603504D01*
X75145828Y-51562580D01*
X75195947Y-51533642D01*
X75282759Y-51483523D01*
X75394563Y-51371719D01*
X75394564Y-51371717D01*
X75629464Y-51136816D01*
X75690786Y-51103334D01*
X75717144Y-51100500D01*
X85381991Y-51100500D01*
X85443990Y-51117112D01*
X85519273Y-51160577D01*
X85672000Y-51201501D01*
X85672002Y-51201501D01*
X85837711Y-51201501D01*
X85837727Y-51201500D01*
X86162274Y-51201500D01*
X86162290Y-51201501D01*
X86169886Y-51201501D01*
X86327997Y-51201501D01*
X86328000Y-51201501D01*
X86480728Y-51160577D01*
X86531464Y-51131284D01*
X86575608Y-51105797D01*
X86605503Y-51093414D01*
X86731785Y-51059577D01*
X86798475Y-51021073D01*
X86868716Y-50980520D01*
X86980520Y-50868716D01*
X86980521Y-50868714D01*
X87014662Y-50834572D01*
X87075983Y-50801089D01*
X87078150Y-50800638D01*
X87136085Y-50789113D01*
X87233497Y-50769737D01*
X87379179Y-50709394D01*
X87510289Y-50621789D01*
X87621789Y-50510289D01*
X87709394Y-50379179D01*
X87769737Y-50233497D01*
X87800500Y-50078842D01*
X87800500Y-49921158D01*
X87800500Y-49921155D01*
X87800499Y-49921153D01*
X87790869Y-49872741D01*
X87769737Y-49766503D01*
X87760640Y-49744541D01*
X87709397Y-49620827D01*
X87709390Y-49620814D01*
X87621789Y-49489711D01*
X87621786Y-49489707D01*
X87510292Y-49378213D01*
X87510288Y-49378210D01*
X87379185Y-49290609D01*
X87379172Y-49290602D01*
X87233501Y-49230264D01*
X87233489Y-49230261D01*
X87078845Y-49199500D01*
X87078842Y-49199500D01*
X86921158Y-49199500D01*
X86921155Y-49199500D01*
X86766510Y-49230261D01*
X86766498Y-49230264D01*
X86620827Y-49290602D01*
X86620814Y-49290609D01*
X86568891Y-49325304D01*
X86502214Y-49346182D01*
X86434833Y-49327698D01*
X86431109Y-49325304D01*
X86379185Y-49290609D01*
X86379172Y-49290602D01*
X86233501Y-49230264D01*
X86233489Y-49230261D01*
X86078845Y-49199500D01*
X86078842Y-49199500D01*
X85921158Y-49199500D01*
X85921155Y-49199500D01*
X85766510Y-49230261D01*
X85766498Y-49230264D01*
X85620827Y-49290602D01*
X85620814Y-49290609D01*
X85489125Y-49378602D01*
X85422447Y-49399480D01*
X85420234Y-49399500D01*
X79028096Y-49399500D01*
X78961057Y-49379815D01*
X78915302Y-49327011D01*
X78905358Y-49257853D01*
X78934383Y-49194297D01*
X78940415Y-49187819D01*
X79145713Y-48982522D01*
X79491416Y-48636819D01*
X79552739Y-48603334D01*
X79579097Y-48600500D01*
X88957781Y-48600500D01*
X89024820Y-48620185D01*
G37*
%TD.AperFunction*%
%TA.AperFunction,Conductor*%
G36*
X90945457Y-30520185D02*
G01*
X90991212Y-30572989D01*
X91002393Y-30622066D01*
X91174017Y-39374886D01*
X91232689Y-42367146D01*
X91214323Y-42434559D01*
X91162426Y-42481340D01*
X91093476Y-42492637D01*
X91034402Y-42468843D01*
X90917335Y-42381206D01*
X90917328Y-42381202D01*
X90782482Y-42330908D01*
X90782483Y-42330908D01*
X90722883Y-42324501D01*
X90722881Y-42324500D01*
X90722873Y-42324500D01*
X90722864Y-42324500D01*
X89277129Y-42324500D01*
X89277123Y-42324501D01*
X89217516Y-42330908D01*
X89082671Y-42381202D01*
X89082664Y-42381206D01*
X88967455Y-42467452D01*
X88967452Y-42467455D01*
X88881206Y-42582664D01*
X88881202Y-42582671D01*
X88830908Y-42717517D01*
X88824501Y-42777116D01*
X88824500Y-42777135D01*
X88824500Y-44222870D01*
X88824501Y-44222876D01*
X88830908Y-44282483D01*
X88881202Y-44417328D01*
X88881206Y-44417335D01*
X88967452Y-44532544D01*
X88967453Y-44532544D01*
X88967454Y-44532546D01*
X89012825Y-44566511D01*
X89052539Y-44596241D01*
X89094409Y-44652175D01*
X89099393Y-44721867D01*
X89078545Y-44768392D01*
X88994624Y-44883900D01*
X88910620Y-45048764D01*
X88910619Y-45048767D01*
X88853445Y-45224734D01*
X88828983Y-45379179D01*
X88824500Y-45407486D01*
X88824500Y-45592514D01*
X88829136Y-45621786D01*
X88853445Y-45775265D01*
X88910619Y-45951232D01*
X88910620Y-45951235D01*
X88958919Y-46046025D01*
X88994622Y-46116096D01*
X89103379Y-46265787D01*
X89103381Y-46265789D01*
X89225414Y-46387822D01*
X89258899Y-46449145D01*
X89253915Y-46518837D01*
X89212043Y-46574770D01*
X89146579Y-46599187D01*
X89137733Y-46599503D01*
X88261429Y-46599503D01*
X88194390Y-46579818D01*
X88158327Y-46544394D01*
X88121789Y-46489711D01*
X88121787Y-46489708D01*
X88010292Y-46378213D01*
X88010288Y-46378210D01*
X87879185Y-46290609D01*
X87879172Y-46290602D01*
X87733501Y-46230264D01*
X87733492Y-46230262D01*
X87667337Y-46217102D01*
X87605427Y-46184716D01*
X87570853Y-46124000D01*
X87574594Y-46054231D01*
X87615461Y-45997559D01*
X87622625Y-45992392D01*
X87674039Y-45958039D01*
X87785539Y-45846539D01*
X87873144Y-45715429D01*
X87880235Y-45698311D01*
X87907084Y-45633489D01*
X87933487Y-45569747D01*
X87964250Y-45415092D01*
X87964250Y-45257408D01*
X87964250Y-45257405D01*
X87964249Y-45257403D01*
X87939162Y-45131284D01*
X87933487Y-45102753D01*
X87933485Y-45102748D01*
X87873147Y-44957077D01*
X87873140Y-44957064D01*
X87785539Y-44825961D01*
X87785536Y-44825957D01*
X87674042Y-44714463D01*
X87674038Y-44714460D01*
X87542935Y-44626859D01*
X87542922Y-44626852D01*
X87397251Y-44566514D01*
X87397239Y-44566511D01*
X87242595Y-44535750D01*
X87242592Y-44535750D01*
X87084908Y-44535750D01*
X87084905Y-44535750D01*
X86930260Y-44566511D01*
X86930248Y-44566514D01*
X86784577Y-44626852D01*
X86784564Y-44626859D01*
X86653461Y-44714460D01*
X86653457Y-44714463D01*
X86541963Y-44825957D01*
X86541960Y-44825961D01*
X86454359Y-44957064D01*
X86454352Y-44957077D01*
X86394014Y-45102748D01*
X86394011Y-45102758D01*
X86363112Y-45258099D01*
X86330727Y-45320009D01*
X86329176Y-45321588D01*
X85887584Y-45763181D01*
X85826261Y-45796666D01*
X85799903Y-45799500D01*
X80232843Y-45799500D01*
X80080114Y-45840423D01*
X80031113Y-45868715D01*
X80031111Y-45868715D01*
X79943190Y-45919475D01*
X79943182Y-45919481D01*
X78487934Y-47374730D01*
X78426611Y-47408215D01*
X78356919Y-47403231D01*
X78300986Y-47361359D01*
X78278636Y-47311240D01*
X78269738Y-47266509D01*
X78269737Y-47266503D01*
X78252437Y-47224736D01*
X78209397Y-47120827D01*
X78209390Y-47120814D01*
X78121398Y-46989125D01*
X78100520Y-46922447D01*
X78100500Y-46920234D01*
X78100500Y-45589060D01*
X78100501Y-45589047D01*
X78100501Y-45420944D01*
X78098934Y-45415096D01*
X78059577Y-45268216D01*
X78039711Y-45233806D01*
X77980524Y-45131290D01*
X77980518Y-45131282D01*
X74891350Y-42042115D01*
X74891348Y-42042112D01*
X74772477Y-41923241D01*
X74772476Y-41923240D01*
X74685664Y-41873120D01*
X74685664Y-41873119D01*
X74685660Y-41873118D01*
X74635545Y-41844183D01*
X74482817Y-41803259D01*
X74324703Y-41803259D01*
X74317107Y-41803259D01*
X74317091Y-41803260D01*
X70571997Y-41803260D01*
X70531076Y-41814224D01*
X70531076Y-41814225D01*
X70493808Y-41824211D01*
X70419271Y-41844183D01*
X70419266Y-41844186D01*
X70282347Y-41923235D01*
X70282339Y-41923241D01*
X69947180Y-42258401D01*
X69885857Y-42291886D01*
X69816165Y-42286902D01*
X69760232Y-42245030D01*
X69735815Y-42179566D01*
X69735499Y-42170720D01*
X69735499Y-41908921D01*
X69735500Y-41908918D01*
X69735500Y-41761082D01*
X69735499Y-41761077D01*
X69735499Y-41537128D01*
X69729091Y-41477517D01*
X69692413Y-41379179D01*
X69678797Y-41342671D01*
X69678793Y-41342664D01*
X69592547Y-41227455D01*
X69592544Y-41227452D01*
X69477335Y-41141206D01*
X69477328Y-41141202D01*
X69342482Y-41090908D01*
X69342483Y-41090908D01*
X69282883Y-41084501D01*
X69282881Y-41084500D01*
X69282873Y-41084500D01*
X69058918Y-41084500D01*
X68911082Y-41084500D01*
X68911080Y-41084500D01*
X67908921Y-41084500D01*
X67908918Y-41084500D01*
X67761082Y-41084500D01*
X67761077Y-41084500D01*
X67537130Y-41084500D01*
X67537123Y-41084501D01*
X67477516Y-41090908D01*
X67342671Y-41141202D01*
X67342664Y-41141206D01*
X67227455Y-41227452D01*
X67227452Y-41227455D01*
X67141206Y-41342664D01*
X67141202Y-41342671D01*
X67090908Y-41477517D01*
X67087385Y-41510292D01*
X67084501Y-41537123D01*
X67084500Y-41537135D01*
X67084500Y-42932063D01*
X67081949Y-42940748D01*
X67083238Y-42949710D01*
X67072259Y-42973750D01*
X67064815Y-42999102D01*
X67057974Y-43005029D01*
X67054213Y-43013266D01*
X67031978Y-43027555D01*
X67012011Y-43044857D01*
X67001496Y-43047144D01*
X66995435Y-43051040D01*
X66960500Y-43056063D01*
X66782266Y-43056063D01*
X66715227Y-43036378D01*
X66713375Y-43035165D01*
X66581685Y-42947172D01*
X66581672Y-42947165D01*
X66436001Y-42886827D01*
X66435989Y-42886824D01*
X66281345Y-42856063D01*
X66281342Y-42856063D01*
X66123658Y-42856063D01*
X66123655Y-42856063D01*
X65969010Y-42886824D01*
X65968998Y-42886827D01*
X65823327Y-42947165D01*
X65823314Y-42947172D01*
X65692211Y-43034773D01*
X65692207Y-43034776D01*
X65580713Y-43146270D01*
X65580710Y-43146274D01*
X65493109Y-43277377D01*
X65493102Y-43277390D01*
X65432764Y-43423061D01*
X65432761Y-43423073D01*
X65402000Y-43577716D01*
X65402000Y-43735409D01*
X65432761Y-43890052D01*
X65432764Y-43890064D01*
X65493102Y-44035735D01*
X65493109Y-44035748D01*
X65580710Y-44166851D01*
X65580713Y-44166855D01*
X65692207Y-44278349D01*
X65692211Y-44278352D01*
X65823314Y-44365953D01*
X65823327Y-44365960D01*
X65947359Y-44417335D01*
X65969003Y-44426300D01*
X66042451Y-44440910D01*
X66112958Y-44454935D01*
X66174869Y-44487320D01*
X66209443Y-44548035D01*
X66210384Y-44552360D01*
X66230261Y-44652289D01*
X66230264Y-44652299D01*
X66290602Y-44797970D01*
X66290609Y-44797983D01*
X66378210Y-44929086D01*
X66378213Y-44929090D01*
X66489708Y-45040585D01*
X66489711Y-45040587D01*
X66520663Y-45061269D01*
X66565468Y-45114880D01*
X66574176Y-45184205D01*
X66556429Y-45225366D01*
X66558856Y-45226767D01*
X66475739Y-45370731D01*
X66475736Y-45370738D01*
X66447991Y-45474280D01*
X66411628Y-45533940D01*
X66348781Y-45564469D01*
X66328218Y-45566186D01*
X66254256Y-45566186D01*
X66168940Y-45589047D01*
X66101528Y-45607110D01*
X65968880Y-45683693D01*
X65926907Y-45697183D01*
X65927132Y-45698311D01*
X65766510Y-45730261D01*
X65766498Y-45730264D01*
X65620827Y-45790602D01*
X65620814Y-45790609D01*
X65489711Y-45878210D01*
X65489707Y-45878213D01*
X65378213Y-45989707D01*
X65378210Y-45989711D01*
X65290609Y-46120814D01*
X65290602Y-46120827D01*
X65230264Y-46266498D01*
X65230261Y-46266510D01*
X65199500Y-46421153D01*
X65199500Y-46578846D01*
X65230261Y-46733489D01*
X65230264Y-46733501D01*
X65290602Y-46879172D01*
X65290609Y-46879185D01*
X65378209Y-47010287D01*
X65378210Y-47010288D01*
X65378211Y-47010289D01*
X65464182Y-47096260D01*
X65478888Y-47123191D01*
X65495477Y-47149005D01*
X65496368Y-47155204D01*
X65497666Y-47157581D01*
X65500500Y-47183940D01*
X65500500Y-47376499D01*
X65480815Y-47443538D01*
X65428011Y-47489293D01*
X65376500Y-47500499D01*
X65319943Y-47500499D01*
X65205397Y-47531192D01*
X65167214Y-47541423D01*
X65119127Y-47569187D01*
X65119126Y-47569187D01*
X65030287Y-47620477D01*
X65030282Y-47620481D01*
X64746494Y-47904270D01*
X64727057Y-47914882D01*
X64710324Y-47929383D01*
X64696992Y-47931299D01*
X64685171Y-47937755D01*
X64663084Y-47936175D01*
X64641166Y-47939327D01*
X64628914Y-47933731D01*
X64615479Y-47932771D01*
X64597752Y-47919500D01*
X64577610Y-47910302D01*
X64570327Y-47898970D01*
X64559546Y-47890899D01*
X64551808Y-47870153D01*
X64539836Y-47851524D01*
X64536684Y-47829605D01*
X64535129Y-47825435D01*
X64534813Y-47816589D01*
X64534813Y-47582940D01*
X64554498Y-47515901D01*
X64571133Y-47495258D01*
X64625707Y-47440684D01*
X64625710Y-47440681D01*
X64713315Y-47309571D01*
X64773658Y-47163889D01*
X64804421Y-47009234D01*
X64804421Y-46851550D01*
X64804421Y-46851547D01*
X64804420Y-46851545D01*
X64791805Y-46788126D01*
X64773658Y-46696895D01*
X64744898Y-46627461D01*
X64713318Y-46551219D01*
X64713311Y-46551206D01*
X64625710Y-46420103D01*
X64625707Y-46420099D01*
X64514213Y-46308605D01*
X64514209Y-46308602D01*
X64383106Y-46221001D01*
X64383094Y-46220995D01*
X64344652Y-46205071D01*
X64290250Y-46161229D01*
X64270490Y-46114702D01*
X64253897Y-46031286D01*
X64244737Y-45985236D01*
X64233471Y-45958037D01*
X64184397Y-45839560D01*
X64184390Y-45839547D01*
X64096789Y-45708444D01*
X64096786Y-45708440D01*
X63985292Y-45596946D01*
X63985288Y-45596943D01*
X63854185Y-45509342D01*
X63854172Y-45509335D01*
X63708501Y-45448997D01*
X63708489Y-45448994D01*
X63553845Y-45418233D01*
X63553842Y-45418233D01*
X63396158Y-45418233D01*
X63396155Y-45418233D01*
X63241510Y-45448994D01*
X63241498Y-45448997D01*
X63095827Y-45509335D01*
X63095814Y-45509342D01*
X62964711Y-45596943D01*
X62964707Y-45596946D01*
X62853213Y-45708440D01*
X62853210Y-45708444D01*
X62765609Y-45839547D01*
X62765602Y-45839560D01*
X62705264Y-45985231D01*
X62705261Y-45985243D01*
X62674500Y-46139886D01*
X62674500Y-46297579D01*
X62698872Y-46420103D01*
X62705263Y-46452230D01*
X62714852Y-46475381D01*
X62723374Y-46495953D01*
X62732813Y-46543406D01*
X62732813Y-50570472D01*
X62713128Y-50637511D01*
X62660324Y-50683266D01*
X62591166Y-50693210D01*
X62527610Y-50664185D01*
X62521132Y-50658153D01*
X62136819Y-50273840D01*
X62103334Y-50212517D01*
X62100500Y-50186159D01*
X62100500Y-49320945D01*
X62100500Y-49320943D01*
X62059577Y-49168216D01*
X62029916Y-49116841D01*
X61980524Y-49031290D01*
X61980521Y-49031286D01*
X61980520Y-49031284D01*
X61868716Y-48919480D01*
X61868715Y-48919479D01*
X61864385Y-48915149D01*
X61864374Y-48915139D01*
X60636819Y-47687584D01*
X60603334Y-47626261D01*
X60600500Y-47599903D01*
X60600500Y-44182941D01*
X60620185Y-44115902D01*
X60636819Y-44095260D01*
X60721786Y-44010292D01*
X60721789Y-44010289D01*
X60809394Y-43879179D01*
X60869737Y-43733497D01*
X60900500Y-43578842D01*
X60900500Y-43421158D01*
X60900500Y-43421155D01*
X60900499Y-43421153D01*
X60893095Y-43383932D01*
X60869737Y-43266503D01*
X60830593Y-43172000D01*
X60809397Y-43120827D01*
X60809390Y-43120814D01*
X60721789Y-42989711D01*
X60721786Y-42989707D01*
X60610292Y-42878213D01*
X60610288Y-42878210D01*
X60479185Y-42790609D01*
X60479172Y-42790602D01*
X60333501Y-42730264D01*
X60333491Y-42730261D01*
X60200308Y-42703769D01*
X60138397Y-42671384D01*
X60103823Y-42610668D01*
X60100500Y-42582152D01*
X60100500Y-39021153D01*
X62699500Y-39021153D01*
X62699500Y-39178846D01*
X62730261Y-39333489D01*
X62730264Y-39333501D01*
X62790602Y-39479172D01*
X62790609Y-39479185D01*
X62878210Y-39610288D01*
X62878213Y-39610292D01*
X62989707Y-39721786D01*
X62989711Y-39721789D01*
X63120814Y-39809390D01*
X63120827Y-39809397D01*
X63266498Y-39869735D01*
X63266503Y-39869737D01*
X63421153Y-39900499D01*
X63421156Y-39900500D01*
X63421158Y-39900500D01*
X63578844Y-39900500D01*
X63578845Y-39900499D01*
X63733497Y-39869737D01*
X63879179Y-39809394D01*
X63903055Y-39793439D01*
X63969729Y-39772562D01*
X64037110Y-39791045D01*
X64059626Y-39808861D01*
X65265425Y-41014660D01*
X65298910Y-41075983D01*
X65299361Y-41078149D01*
X65330261Y-41233491D01*
X65330264Y-41233501D01*
X65390602Y-41379172D01*
X65390609Y-41379185D01*
X65478210Y-41510288D01*
X65478213Y-41510292D01*
X65589707Y-41621786D01*
X65589711Y-41621789D01*
X65720814Y-41709390D01*
X65720827Y-41709397D01*
X65866498Y-41769735D01*
X65866503Y-41769737D01*
X66021153Y-41800499D01*
X66021156Y-41800500D01*
X66021158Y-41800500D01*
X66178844Y-41800500D01*
X66178845Y-41800499D01*
X66333497Y-41769737D01*
X66479179Y-41709394D01*
X66610289Y-41621789D01*
X66721789Y-41510289D01*
X66809394Y-41379179D01*
X66869737Y-41233497D01*
X66900500Y-41078842D01*
X66900500Y-40921158D01*
X66900500Y-40921155D01*
X66900499Y-40921153D01*
X66869738Y-40766510D01*
X66869737Y-40766503D01*
X66869735Y-40766498D01*
X66809397Y-40620827D01*
X66809390Y-40620814D01*
X66721789Y-40489711D01*
X66721786Y-40489707D01*
X66610292Y-40378213D01*
X66610288Y-40378210D01*
X66479185Y-40290609D01*
X66479172Y-40290602D01*
X66333501Y-40230264D01*
X66333491Y-40230261D01*
X66178151Y-40199362D01*
X66116241Y-40166977D01*
X66114662Y-40165426D01*
X65413755Y-39464519D01*
X65406837Y-39451850D01*
X65396078Y-39442227D01*
X65390426Y-39421796D01*
X65380270Y-39403196D01*
X65381299Y-39388799D01*
X65377451Y-39374886D01*
X65383742Y-39354645D01*
X65385254Y-39333504D01*
X65394291Y-39320703D01*
X65398189Y-39308165D01*
X65415135Y-39291182D01*
X65421719Y-39281858D01*
X65426910Y-39277501D01*
X65510289Y-39221789D01*
X65599084Y-39132993D01*
X65603223Y-39129520D01*
X65630470Y-39117591D01*
X65656581Y-39103334D01*
X65665139Y-39102413D01*
X65667227Y-39101500D01*
X65669805Y-39101912D01*
X65682940Y-39100500D01*
X68112044Y-39100500D01*
X68179083Y-39120185D01*
X68224838Y-39172989D01*
X68233661Y-39200309D01*
X68240261Y-39233489D01*
X68240264Y-39233501D01*
X68300602Y-39379172D01*
X68300609Y-39379185D01*
X68388210Y-39510288D01*
X68388213Y-39510292D01*
X68499707Y-39621786D01*
X68499711Y-39621789D01*
X68630814Y-39709390D01*
X68630827Y-39709397D01*
X68776498Y-39769735D01*
X68776503Y-39769737D01*
X68931153Y-39800499D01*
X68931156Y-39800500D01*
X68931158Y-39800500D01*
X69088844Y-39800500D01*
X69088845Y-39800499D01*
X69243497Y-39769737D01*
X69389179Y-39709394D01*
X69436109Y-39678035D01*
X69502785Y-39657157D01*
X69570165Y-39675641D01*
X69573865Y-39678018D01*
X69620821Y-39709394D01*
X69620823Y-39709395D01*
X69620825Y-39709396D01*
X69650745Y-39721789D01*
X69766503Y-39769737D01*
X69921153Y-39800499D01*
X69921156Y-39800500D01*
X69921158Y-39800500D01*
X70078844Y-39800500D01*
X70078845Y-39800499D01*
X70233497Y-39769737D01*
X70379179Y-39709394D01*
X70510289Y-39621789D01*
X70621789Y-39510289D01*
X70709394Y-39379179D01*
X70769737Y-39233497D01*
X70800500Y-39078842D01*
X70800500Y-38921158D01*
X70800500Y-38921155D01*
X70800499Y-38921153D01*
X70769738Y-38766510D01*
X70769737Y-38766503D01*
X70756523Y-38734601D01*
X70709397Y-38620827D01*
X70709390Y-38620814D01*
X70621789Y-38489711D01*
X70621786Y-38489707D01*
X70510292Y-38378213D01*
X70510288Y-38378210D01*
X70379185Y-38290609D01*
X70379172Y-38290602D01*
X70233501Y-38230264D01*
X70233491Y-38230261D01*
X70078151Y-38199362D01*
X70016241Y-38166977D01*
X70014662Y-38165426D01*
X69487590Y-37638355D01*
X69487588Y-37638352D01*
X69368717Y-37519481D01*
X69368709Y-37519475D01*
X69280789Y-37468715D01*
X69280788Y-37468715D01*
X69260077Y-37456757D01*
X69231785Y-37440423D01*
X69079057Y-37399499D01*
X68920943Y-37399499D01*
X68913347Y-37399499D01*
X68913331Y-37399500D01*
X68800098Y-37399500D01*
X68733059Y-37379815D01*
X68712417Y-37363181D01*
X67987590Y-36638355D01*
X67987588Y-36638352D01*
X67872354Y-36523118D01*
X72004200Y-36523118D01*
X72004200Y-37836883D01*
X72042466Y-38029257D01*
X72042468Y-38029265D01*
X72117532Y-38210485D01*
X72117537Y-38210495D01*
X72226511Y-38373585D01*
X72226514Y-38373589D01*
X72365211Y-38512286D01*
X72365215Y-38512289D01*
X72528305Y-38621263D01*
X72528309Y-38621265D01*
X72528312Y-38621267D01*
X72709536Y-38696333D01*
X72832676Y-38720827D01*
X72901917Y-38734600D01*
X72901920Y-38734601D01*
X72901922Y-38734601D01*
X73098080Y-38734601D01*
X73098081Y-38734600D01*
X73290464Y-38696333D01*
X73471688Y-38621267D01*
X73634785Y-38512289D01*
X73773488Y-38373586D01*
X73882466Y-38210489D01*
X73957532Y-38029265D01*
X73995800Y-37836879D01*
X73995800Y-37210700D01*
X74015485Y-37143661D01*
X74068289Y-37097906D01*
X74137447Y-37087962D01*
X74181797Y-37103312D01*
X74240598Y-37137260D01*
X74365399Y-37170701D01*
X74365401Y-37170701D01*
X74494601Y-37170701D01*
X74494603Y-37170701D01*
X74619404Y-37137260D01*
X74731298Y-37072659D01*
X74822659Y-36981298D01*
X74887260Y-36869404D01*
X74920701Y-36744603D01*
X74920701Y-36615399D01*
X79719299Y-36615399D01*
X79719299Y-36744603D01*
X79752740Y-36869404D01*
X79817341Y-36981298D01*
X79908702Y-37072659D01*
X80020596Y-37137260D01*
X80145397Y-37170701D01*
X80145399Y-37170701D01*
X80274599Y-37170701D01*
X80274601Y-37170701D01*
X80399402Y-37137260D01*
X80458201Y-37103312D01*
X80526100Y-37086840D01*
X80592127Y-37109693D01*
X80635318Y-37164614D01*
X80644200Y-37210700D01*
X80644200Y-37836883D01*
X80682466Y-38029257D01*
X80682468Y-38029265D01*
X80757532Y-38210485D01*
X80757537Y-38210495D01*
X80866511Y-38373585D01*
X80866514Y-38373589D01*
X81005211Y-38512286D01*
X81005215Y-38512289D01*
X81168305Y-38621263D01*
X81168309Y-38621265D01*
X81168312Y-38621267D01*
X81349536Y-38696333D01*
X81472676Y-38720827D01*
X81541917Y-38734600D01*
X81541920Y-38734601D01*
X81541922Y-38734601D01*
X81738080Y-38734601D01*
X81738081Y-38734600D01*
X81930464Y-38696333D01*
X82111688Y-38621267D01*
X82274785Y-38512289D01*
X82413488Y-38373586D01*
X82522466Y-38210489D01*
X82597532Y-38029265D01*
X82635800Y-37836879D01*
X82635800Y-36523123D01*
X82635800Y-36523120D01*
X82635799Y-36523118D01*
X82625105Y-36469358D01*
X82597532Y-36330737D01*
X82522466Y-36149513D01*
X82522464Y-36149510D01*
X82522462Y-36149506D01*
X82413488Y-35986416D01*
X82413485Y-35986412D01*
X82274788Y-35847715D01*
X82274784Y-35847712D01*
X82111694Y-35738738D01*
X82111684Y-35738733D01*
X81930464Y-35663669D01*
X81930456Y-35663667D01*
X81738081Y-35625401D01*
X81738078Y-35625401D01*
X81541922Y-35625401D01*
X81541919Y-35625401D01*
X81349543Y-35663667D01*
X81349535Y-35663669D01*
X81168315Y-35738733D01*
X81168305Y-35738738D01*
X81005215Y-35847712D01*
X81005211Y-35847715D01*
X80866514Y-35986412D01*
X80866511Y-35986416D01*
X80757537Y-36149506D01*
X80757534Y-36149513D01*
X80716060Y-36249638D01*
X80672218Y-36304041D01*
X80605924Y-36326105D01*
X80538225Y-36308825D01*
X80513818Y-36289865D01*
X80511297Y-36287344D01*
X80511296Y-36287343D01*
X80399402Y-36222742D01*
X80399403Y-36222742D01*
X80357801Y-36211595D01*
X80274601Y-36189301D01*
X80145397Y-36189301D01*
X80062196Y-36211595D01*
X80020595Y-36222742D01*
X79908703Y-36287342D01*
X79908700Y-36287344D01*
X79817342Y-36378702D01*
X79817340Y-36378705D01*
X79752740Y-36490597D01*
X79744025Y-36523123D01*
X79719299Y-36615399D01*
X74920701Y-36615399D01*
X74887260Y-36490598D01*
X74822659Y-36378704D01*
X74731298Y-36287343D01*
X74619404Y-36222742D01*
X74619405Y-36222742D01*
X74577803Y-36211595D01*
X74494603Y-36189301D01*
X74365399Y-36189301D01*
X74282198Y-36211595D01*
X74240597Y-36222742D01*
X74128705Y-36287342D01*
X74126176Y-36289871D01*
X74123521Y-36291320D01*
X74122259Y-36292289D01*
X74122107Y-36292092D01*
X74064851Y-36323352D01*
X73995159Y-36318363D01*
X73939228Y-36276488D01*
X73923939Y-36249637D01*
X73882467Y-36149516D01*
X73882466Y-36149513D01*
X73882464Y-36149510D01*
X73882462Y-36149506D01*
X73773488Y-35986416D01*
X73773485Y-35986412D01*
X73634788Y-35847715D01*
X73634784Y-35847712D01*
X73471694Y-35738738D01*
X73471684Y-35738733D01*
X73290464Y-35663669D01*
X73290456Y-35663667D01*
X73098081Y-35625401D01*
X73098078Y-35625401D01*
X72901922Y-35625401D01*
X72901919Y-35625401D01*
X72709543Y-35663667D01*
X72709535Y-35663669D01*
X72528315Y-35738733D01*
X72528305Y-35738738D01*
X72365215Y-35847712D01*
X72365211Y-35847715D01*
X72226514Y-35986412D01*
X72226511Y-35986416D01*
X72117537Y-36149506D01*
X72117532Y-36149516D01*
X72042468Y-36330736D01*
X72042466Y-36330744D01*
X72004200Y-36523118D01*
X67872354Y-36523118D01*
X67868717Y-36519481D01*
X67868716Y-36519480D01*
X67781904Y-36469360D01*
X67781904Y-36469359D01*
X67781900Y-36469358D01*
X67731785Y-36440423D01*
X67579057Y-36399499D01*
X67420943Y-36399499D01*
X67413347Y-36399499D01*
X67413331Y-36399500D01*
X65425316Y-36399500D01*
X65377864Y-36390061D01*
X65233501Y-36330264D01*
X65233489Y-36330261D01*
X65078845Y-36299500D01*
X65078842Y-36299500D01*
X64921158Y-36299500D01*
X64921155Y-36299500D01*
X64766510Y-36330261D01*
X64766498Y-36330264D01*
X64620827Y-36390602D01*
X64620814Y-36390609D01*
X64489711Y-36478210D01*
X64489707Y-36478213D01*
X64378213Y-36589707D01*
X64378210Y-36589711D01*
X64290609Y-36720814D01*
X64290602Y-36720827D01*
X64230264Y-36866498D01*
X64230261Y-36866510D01*
X64199500Y-37021153D01*
X64199500Y-37178846D01*
X64230261Y-37333489D01*
X64230264Y-37333501D01*
X64290602Y-37479172D01*
X64290609Y-37479185D01*
X64378210Y-37610288D01*
X64378213Y-37610292D01*
X64489707Y-37721786D01*
X64527289Y-37746898D01*
X64572093Y-37800511D01*
X64580800Y-37869836D01*
X64550645Y-37932863D01*
X64527289Y-37953102D01*
X64489707Y-37978213D01*
X64378213Y-38089707D01*
X64378210Y-38089711D01*
X64290609Y-38220814D01*
X64290602Y-38220827D01*
X64230264Y-38366498D01*
X64230261Y-38366510D01*
X64223661Y-38399691D01*
X64208950Y-38427814D01*
X64195757Y-38456703D01*
X64192867Y-38458560D01*
X64191276Y-38461602D01*
X64163693Y-38477308D01*
X64136979Y-38494477D01*
X64132384Y-38495137D01*
X64130561Y-38496176D01*
X64102044Y-38499500D01*
X64079766Y-38499500D01*
X64012727Y-38479815D01*
X64010875Y-38478602D01*
X63879185Y-38390609D01*
X63879172Y-38390602D01*
X63733501Y-38330264D01*
X63733489Y-38330261D01*
X63578845Y-38299500D01*
X63578842Y-38299500D01*
X63421158Y-38299500D01*
X63421155Y-38299500D01*
X63266510Y-38330261D01*
X63266498Y-38330264D01*
X63120827Y-38390602D01*
X63120814Y-38390609D01*
X62989711Y-38478210D01*
X62989707Y-38478213D01*
X62878213Y-38589707D01*
X62878210Y-38589711D01*
X62790609Y-38720814D01*
X62790602Y-38720827D01*
X62730264Y-38866498D01*
X62730261Y-38866510D01*
X62699500Y-39021153D01*
X60100500Y-39021153D01*
X60100500Y-38079765D01*
X60120185Y-38012726D01*
X60121398Y-38010874D01*
X60143222Y-37978213D01*
X60209394Y-37879179D01*
X60211222Y-37874767D01*
X60226915Y-37836879D01*
X60269737Y-37733497D01*
X60300500Y-37578842D01*
X60300500Y-37421158D01*
X60300500Y-37421155D01*
X60300499Y-37421153D01*
X60292276Y-37379815D01*
X60269737Y-37266503D01*
X60218855Y-37143661D01*
X60209397Y-37120827D01*
X60209390Y-37120814D01*
X60121789Y-36989711D01*
X60121786Y-36989707D01*
X60010292Y-36878213D01*
X60010288Y-36878210D01*
X59879185Y-36790609D01*
X59879172Y-36790602D01*
X59733501Y-36730264D01*
X59733489Y-36730261D01*
X59578845Y-36699500D01*
X59578842Y-36699500D01*
X59421158Y-36699500D01*
X59421155Y-36699500D01*
X59266510Y-36730261D01*
X59266507Y-36730262D01*
X59266506Y-36730262D01*
X59266503Y-36730263D01*
X59185410Y-36763852D01*
X59171452Y-36769634D01*
X59101982Y-36777102D01*
X59039503Y-36745826D01*
X59003851Y-36685737D01*
X59000000Y-36655072D01*
X59000000Y-32652493D01*
X59019685Y-32585454D01*
X59072489Y-32539699D01*
X59141647Y-32529755D01*
X59205203Y-32558780D01*
X59234484Y-32596198D01*
X59244623Y-32616096D01*
X59353380Y-32765787D01*
X59484214Y-32896621D01*
X59633905Y-33005378D01*
X59687225Y-33032546D01*
X59798765Y-33089379D01*
X59798768Y-33089380D01*
X59886751Y-33117967D01*
X59974737Y-33146555D01*
X60157487Y-33175500D01*
X60157488Y-33175500D01*
X60342514Y-33175500D01*
X60342515Y-33175500D01*
X60525265Y-33146555D01*
X60701236Y-33089379D01*
X60866097Y-33005378D01*
X61015788Y-32896621D01*
X61146622Y-32765787D01*
X61149681Y-32761576D01*
X61205007Y-32718909D01*
X61274620Y-32712926D01*
X61336416Y-32745529D01*
X61350316Y-32761570D01*
X61353380Y-32765787D01*
X61484214Y-32896621D01*
X61633905Y-33005378D01*
X61687225Y-33032546D01*
X61798765Y-33089379D01*
X61798768Y-33089380D01*
X61886751Y-33117967D01*
X61974737Y-33146555D01*
X62157487Y-33175500D01*
X62157488Y-33175500D01*
X62342514Y-33175500D01*
X62342515Y-33175500D01*
X62525265Y-33146555D01*
X62701236Y-33089379D01*
X62866097Y-33005378D01*
X62981609Y-32921453D01*
X63047413Y-32897974D01*
X63115467Y-32913799D01*
X63153759Y-32947460D01*
X63217456Y-33032547D01*
X63332665Y-33118793D01*
X63332672Y-33118797D01*
X63467518Y-33169091D01*
X63467517Y-33169091D01*
X63474445Y-33169835D01*
X63527128Y-33175500D01*
X64972873Y-33175499D01*
X65032484Y-33169091D01*
X65167332Y-33118796D01*
X65282547Y-33032546D01*
X65368797Y-32917331D01*
X65419092Y-32782483D01*
X65425501Y-32722873D01*
X65425500Y-31277135D01*
X66324500Y-31277135D01*
X66324500Y-32722870D01*
X66324501Y-32722876D01*
X66330908Y-32782483D01*
X66381202Y-32917328D01*
X66381206Y-32917335D01*
X66467452Y-33032544D01*
X66467455Y-33032547D01*
X66582664Y-33118793D01*
X66582671Y-33118797D01*
X66717517Y-33169091D01*
X66717516Y-33169091D01*
X66724444Y-33169835D01*
X66777127Y-33175500D01*
X68222872Y-33175499D01*
X68282483Y-33169091D01*
X68417331Y-33118796D01*
X68532546Y-33032546D01*
X68596541Y-32947059D01*
X68652473Y-32905190D01*
X68722165Y-32900206D01*
X68768691Y-32921054D01*
X68884161Y-33004947D01*
X69048956Y-33088915D01*
X69048959Y-33088916D01*
X69224852Y-33146066D01*
X69407527Y-33175000D01*
X69592473Y-33175000D01*
X69775147Y-33146066D01*
X69951040Y-33088916D01*
X69951043Y-33088915D01*
X70115836Y-33004947D01*
X70115845Y-33004942D01*
X70136430Y-32989984D01*
X70136430Y-32989983D01*
X69546447Y-32400000D01*
X69552661Y-32400000D01*
X69654394Y-32372741D01*
X69745606Y-32320080D01*
X69820080Y-32245606D01*
X69872741Y-32154394D01*
X69900000Y-32052661D01*
X69900000Y-32046448D01*
X70489983Y-32636431D01*
X70489984Y-32636430D01*
X70504942Y-32615845D01*
X70504947Y-32615836D01*
X70566254Y-32495517D01*
X72004200Y-32495517D01*
X72004200Y-33504482D01*
X72042466Y-33696856D01*
X72042468Y-33696864D01*
X72117532Y-33878084D01*
X72117537Y-33878094D01*
X72226511Y-34041184D01*
X72226514Y-34041188D01*
X72365211Y-34179885D01*
X72365215Y-34179888D01*
X72528305Y-34288862D01*
X72528309Y-34288864D01*
X72528312Y-34288866D01*
X72709536Y-34363932D01*
X72901917Y-34402199D01*
X72901920Y-34402200D01*
X72901922Y-34402200D01*
X73098080Y-34402200D01*
X73098081Y-34402199D01*
X73290464Y-34363932D01*
X73471688Y-34288866D01*
X73634785Y-34179888D01*
X73773488Y-34041185D01*
X73882466Y-33878088D01*
X73957532Y-33696864D01*
X73995800Y-33504478D01*
X73995800Y-32495522D01*
X73995800Y-32495519D01*
X73995799Y-32495517D01*
X80644200Y-32495517D01*
X80644200Y-33504482D01*
X80682466Y-33696856D01*
X80682468Y-33696864D01*
X80757532Y-33878084D01*
X80757537Y-33878094D01*
X80866511Y-34041184D01*
X80866514Y-34041188D01*
X81005211Y-34179885D01*
X81005215Y-34179888D01*
X81168305Y-34288862D01*
X81168309Y-34288864D01*
X81168312Y-34288866D01*
X81349536Y-34363932D01*
X81541917Y-34402199D01*
X81541920Y-34402200D01*
X81541922Y-34402200D01*
X81738080Y-34402200D01*
X81738081Y-34402199D01*
X81930464Y-34363932D01*
X82111688Y-34288866D01*
X82274785Y-34179888D01*
X82413488Y-34041185D01*
X82522466Y-33878088D01*
X82597532Y-33696864D01*
X82635800Y-33504478D01*
X82635800Y-32495522D01*
X82635800Y-32495519D01*
X82635799Y-32495517D01*
X82626991Y-32451235D01*
X82597532Y-32303136D01*
X82522466Y-32121912D01*
X82522464Y-32121909D01*
X82522462Y-32121905D01*
X82421994Y-31971545D01*
X82421993Y-31971544D01*
X82413486Y-31958812D01*
X82362200Y-31907526D01*
X82825000Y-31907526D01*
X82825000Y-32092473D01*
X82853933Y-32275147D01*
X82911083Y-32451040D01*
X82911084Y-32451043D01*
X82995050Y-32615834D01*
X83010015Y-32636430D01*
X83010016Y-32636431D01*
X83600000Y-32046447D01*
X83600000Y-32052661D01*
X83627259Y-32154394D01*
X83679920Y-32245606D01*
X83754394Y-32320080D01*
X83845606Y-32372741D01*
X83947339Y-32400000D01*
X83953552Y-32400000D01*
X83363568Y-32989983D01*
X83363568Y-32989984D01*
X83384165Y-33004949D01*
X83548956Y-33088915D01*
X83548959Y-33088916D01*
X83724852Y-33146066D01*
X83907527Y-33175000D01*
X84092473Y-33175000D01*
X84275147Y-33146066D01*
X84451040Y-33088916D01*
X84451043Y-33088915D01*
X84615838Y-33004947D01*
X84731306Y-32921054D01*
X84797112Y-32897573D01*
X84865166Y-32913398D01*
X84903458Y-32947059D01*
X84967455Y-33032547D01*
X85082664Y-33118793D01*
X85082671Y-33118797D01*
X85217517Y-33169091D01*
X85217516Y-33169091D01*
X85224444Y-33169835D01*
X85277127Y-33175500D01*
X86722872Y-33175499D01*
X86782483Y-33169091D01*
X86917331Y-33118796D01*
X87032546Y-33032546D01*
X87118796Y-32917331D01*
X87169091Y-32782483D01*
X87175500Y-32722873D01*
X87175499Y-31277128D01*
X87169091Y-31217517D01*
X87155775Y-31181816D01*
X87118797Y-31082671D01*
X87118793Y-31082664D01*
X87032547Y-30967455D01*
X87032544Y-30967452D01*
X86917335Y-30881206D01*
X86917328Y-30881202D01*
X86782482Y-30830908D01*
X86782483Y-30830908D01*
X86722883Y-30824501D01*
X86722881Y-30824500D01*
X86722873Y-30824500D01*
X86722864Y-30824500D01*
X85277129Y-30824500D01*
X85277123Y-30824501D01*
X85217516Y-30830908D01*
X85082671Y-30881202D01*
X85082664Y-30881206D01*
X84967455Y-30967452D01*
X84903459Y-31052939D01*
X84847525Y-31094809D01*
X84777833Y-31099793D01*
X84731308Y-31078946D01*
X84615833Y-30995049D01*
X84451043Y-30911084D01*
X84451040Y-30911083D01*
X84275147Y-30853933D01*
X84092473Y-30825000D01*
X83907527Y-30825000D01*
X83724852Y-30853933D01*
X83548959Y-30911083D01*
X83548956Y-30911084D01*
X83384167Y-30995049D01*
X83363568Y-31010015D01*
X83953553Y-31600000D01*
X83947339Y-31600000D01*
X83845606Y-31627259D01*
X83754394Y-31679920D01*
X83679920Y-31754394D01*
X83627259Y-31845606D01*
X83600000Y-31947339D01*
X83600000Y-31953553D01*
X83010015Y-31363568D01*
X82995049Y-31384167D01*
X82911084Y-31548956D01*
X82911083Y-31548959D01*
X82853933Y-31724852D01*
X82825000Y-31907526D01*
X82362200Y-31907526D01*
X82274788Y-31820114D01*
X82274784Y-31820111D01*
X82111694Y-31711137D01*
X82111684Y-31711132D01*
X81930464Y-31636068D01*
X81930456Y-31636066D01*
X81738081Y-31597800D01*
X81738078Y-31597800D01*
X81541922Y-31597800D01*
X81541919Y-31597800D01*
X81349543Y-31636066D01*
X81349535Y-31636068D01*
X81168315Y-31711132D01*
X81168305Y-31711137D01*
X81005215Y-31820111D01*
X81005211Y-31820114D01*
X80866514Y-31958811D01*
X80866511Y-31958815D01*
X80757537Y-32121905D01*
X80757532Y-32121915D01*
X80682468Y-32303135D01*
X80682466Y-32303143D01*
X80644200Y-32495517D01*
X73995799Y-32495517D01*
X73986991Y-32451235D01*
X73957532Y-32303136D01*
X73882466Y-32121912D01*
X73882464Y-32121909D01*
X73882462Y-32121905D01*
X73773488Y-31958815D01*
X73773485Y-31958811D01*
X73634788Y-31820114D01*
X73634784Y-31820111D01*
X73471694Y-31711137D01*
X73471684Y-31711132D01*
X73290464Y-31636068D01*
X73290456Y-31636066D01*
X73098081Y-31597800D01*
X73098078Y-31597800D01*
X72901922Y-31597800D01*
X72901919Y-31597800D01*
X72709543Y-31636066D01*
X72709535Y-31636068D01*
X72528315Y-31711132D01*
X72528305Y-31711137D01*
X72365215Y-31820111D01*
X72365211Y-31820114D01*
X72226514Y-31958811D01*
X72226511Y-31958815D01*
X72117537Y-32121905D01*
X72117532Y-32121915D01*
X72042468Y-32303135D01*
X72042466Y-32303143D01*
X72004200Y-32495517D01*
X70566254Y-32495517D01*
X70588915Y-32451043D01*
X70588916Y-32451039D01*
X70646066Y-32275147D01*
X70675000Y-32092473D01*
X70675000Y-31907526D01*
X70646066Y-31724852D01*
X70588916Y-31548959D01*
X70588915Y-31548956D01*
X70504949Y-31384165D01*
X70489983Y-31363568D01*
X69900000Y-31953551D01*
X69900000Y-31947339D01*
X69872741Y-31845606D01*
X69820080Y-31754394D01*
X69745606Y-31679920D01*
X69654394Y-31627259D01*
X69552661Y-31600000D01*
X69546446Y-31600000D01*
X70136431Y-31010015D01*
X70115834Y-30995050D01*
X69951043Y-30911084D01*
X69951040Y-30911083D01*
X69775147Y-30853933D01*
X69592473Y-30825000D01*
X69407527Y-30825000D01*
X69224852Y-30853933D01*
X69048959Y-30911083D01*
X69048956Y-30911084D01*
X68884163Y-30995051D01*
X68768690Y-31078946D01*
X68702884Y-31102425D01*
X68634830Y-31086599D01*
X68596540Y-31052938D01*
X68532547Y-30967455D01*
X68532544Y-30967452D01*
X68417335Y-30881206D01*
X68417328Y-30881202D01*
X68282482Y-30830908D01*
X68282483Y-30830908D01*
X68222883Y-30824501D01*
X68222881Y-30824500D01*
X68222873Y-30824500D01*
X68222864Y-30824500D01*
X66777129Y-30824500D01*
X66777123Y-30824501D01*
X66717516Y-30830908D01*
X66582671Y-30881202D01*
X66582664Y-30881206D01*
X66467455Y-30967452D01*
X66467452Y-30967455D01*
X66381206Y-31082664D01*
X66381202Y-31082671D01*
X66330908Y-31217517D01*
X66328660Y-31238432D01*
X66324501Y-31277123D01*
X66324500Y-31277135D01*
X65425500Y-31277135D01*
X65425500Y-31277128D01*
X65419092Y-31217517D01*
X65405776Y-31181816D01*
X65368798Y-31082671D01*
X65368794Y-31082664D01*
X65282548Y-30967455D01*
X65282545Y-30967452D01*
X65167336Y-30881206D01*
X65167329Y-30881202D01*
X65032483Y-30830908D01*
X65032484Y-30830908D01*
X64972884Y-30824501D01*
X64972882Y-30824500D01*
X64972874Y-30824500D01*
X64972865Y-30824500D01*
X63527130Y-30824500D01*
X63527124Y-30824501D01*
X63467517Y-30830908D01*
X63332672Y-30881202D01*
X63332665Y-30881206D01*
X63217456Y-30967452D01*
X63153759Y-31052539D01*
X63097824Y-31094410D01*
X63028133Y-31099393D01*
X62981608Y-31078545D01*
X62866100Y-30994624D01*
X62866099Y-30994623D01*
X62866097Y-30994622D01*
X62812773Y-30967452D01*
X62701236Y-30910620D01*
X62701233Y-30910619D01*
X62525266Y-30853445D01*
X62382973Y-30830908D01*
X62342515Y-30824500D01*
X62157487Y-30824500D01*
X62117029Y-30830908D01*
X61974735Y-30853445D01*
X61798768Y-30910619D01*
X61798765Y-30910620D01*
X61633904Y-30994622D01*
X61612718Y-31010015D01*
X61484214Y-31103379D01*
X61484212Y-31103381D01*
X61484211Y-31103381D01*
X61353382Y-31234210D01*
X61350315Y-31238432D01*
X61294982Y-31281094D01*
X61225368Y-31287069D01*
X61163575Y-31254459D01*
X61149687Y-31238432D01*
X61146622Y-31234213D01*
X61015788Y-31103379D01*
X60866097Y-30994622D01*
X60812779Y-30967455D01*
X60701236Y-30910620D01*
X60701233Y-30910619D01*
X60525266Y-30853445D01*
X60382973Y-30830908D01*
X60342515Y-30824500D01*
X60157487Y-30824500D01*
X60117029Y-30830908D01*
X59974735Y-30853445D01*
X59798768Y-30910619D01*
X59798765Y-30910620D01*
X59633904Y-30994622D01*
X59612718Y-31010015D01*
X59484214Y-31103379D01*
X59484212Y-31103381D01*
X59484211Y-31103381D01*
X59353382Y-31234210D01*
X59353382Y-31234211D01*
X59353380Y-31234213D01*
X59322200Y-31277129D01*
X59244623Y-31383903D01*
X59234485Y-31403801D01*
X59186510Y-31454597D01*
X59118689Y-31471392D01*
X59052554Y-31448854D01*
X59009103Y-31394139D01*
X59000000Y-31347506D01*
X59000000Y-30624500D01*
X59019685Y-30557461D01*
X59072489Y-30511706D01*
X59124000Y-30500500D01*
X90878418Y-30500500D01*
X90945457Y-30520185D01*
G37*
%TD.AperFunction*%
%TA.AperFunction,Conductor*%
G36*
X91272957Y-47844608D02*
G01*
X91324434Y-47891851D01*
X91342224Y-47953456D01*
X91364966Y-49113293D01*
X91346600Y-49180706D01*
X91294703Y-49227487D01*
X91225753Y-49238784D01*
X91161640Y-49211011D01*
X91123059Y-49154042D01*
X91088916Y-49048959D01*
X91088915Y-49048956D01*
X91004949Y-48884165D01*
X90989983Y-48863568D01*
X90400000Y-49453551D01*
X90400000Y-49447339D01*
X90372741Y-49345606D01*
X90320080Y-49254394D01*
X90245606Y-49179920D01*
X90154394Y-49127259D01*
X90052661Y-49100000D01*
X90046446Y-49100000D01*
X90660675Y-48485771D01*
X90691165Y-48450836D01*
X90765787Y-48396621D01*
X90896621Y-48265787D01*
X91005378Y-48116096D01*
X91089379Y-47951235D01*
X91100317Y-47917570D01*
X91139752Y-47859895D01*
X91204110Y-47832696D01*
X91272957Y-47844608D01*
G37*
%TD.AperFunction*%
%TA.AperFunction,Conductor*%
G36*
X74170702Y-43023945D02*
G01*
X74191344Y-43040579D01*
X75138584Y-43987819D01*
X75172069Y-44049142D01*
X75167085Y-44118834D01*
X75125213Y-44174767D01*
X75059749Y-44199184D01*
X75050903Y-44199500D01*
X74921155Y-44199500D01*
X74766510Y-44230261D01*
X74766498Y-44230264D01*
X74620827Y-44290602D01*
X74620814Y-44290609D01*
X74489711Y-44378210D01*
X74489707Y-44378213D01*
X74378213Y-44489707D01*
X74378210Y-44489711D01*
X74290609Y-44620814D01*
X74290602Y-44620827D01*
X74230264Y-44766498D01*
X74230261Y-44766510D01*
X74199500Y-44921153D01*
X74199500Y-45078846D01*
X74230261Y-45233489D01*
X74230264Y-45233501D01*
X74290602Y-45379172D01*
X74290609Y-45379185D01*
X74378210Y-45510288D01*
X74378213Y-45510292D01*
X74489707Y-45621786D01*
X74489711Y-45621789D01*
X74620814Y-45709390D01*
X74620827Y-45709397D01*
X74750675Y-45763181D01*
X74766503Y-45769737D01*
X74831147Y-45782595D01*
X74921849Y-45800638D01*
X74983760Y-45833023D01*
X74985337Y-45834572D01*
X76017732Y-46866968D01*
X76017734Y-46866969D01*
X76017738Y-46866972D01*
X76144665Y-46940252D01*
X76154664Y-46946025D01*
X76307391Y-46986949D01*
X76320236Y-46986949D01*
X76387275Y-47006634D01*
X76389127Y-47007847D01*
X76520814Y-47095838D01*
X76520818Y-47095840D01*
X76520821Y-47095842D01*
X76651667Y-47150040D01*
X76706067Y-47193878D01*
X76728133Y-47260172D01*
X76725829Y-47288790D01*
X76699500Y-47421153D01*
X76699500Y-47578846D01*
X76730261Y-47733489D01*
X76730264Y-47733501D01*
X76769841Y-47829048D01*
X76777310Y-47898517D01*
X76746035Y-47960996D01*
X76685946Y-47996648D01*
X76655280Y-48000500D01*
X74777065Y-48000500D01*
X74777061Y-48000499D01*
X74618946Y-48000499D01*
X74614614Y-48001659D01*
X74602180Y-48001744D01*
X74596030Y-47999983D01*
X74583952Y-47999588D01*
X74583902Y-48000100D01*
X74577843Y-47999503D01*
X74577842Y-47999503D01*
X74420158Y-47999503D01*
X74420155Y-47999503D01*
X74265510Y-48030264D01*
X74265498Y-48030267D01*
X74119828Y-48090605D01*
X74119817Y-48090611D01*
X74096546Y-48106161D01*
X74029869Y-48127038D01*
X73962489Y-48108553D01*
X73939975Y-48090739D01*
X72895381Y-47046146D01*
X72895379Y-47046143D01*
X72776508Y-46927272D01*
X72776500Y-46927266D01*
X72685102Y-46874498D01*
X72685101Y-46874498D01*
X72662444Y-46861417D01*
X72639576Y-46848214D01*
X72486848Y-46807290D01*
X72328734Y-46807290D01*
X72321138Y-46807290D01*
X72321122Y-46807291D01*
X71920274Y-46807291D01*
X71902126Y-46801962D01*
X71883215Y-46801624D01*
X71855006Y-46788126D01*
X71853235Y-46787606D01*
X71851378Y-46786390D01*
X71848858Y-46784706D01*
X71804056Y-46731091D01*
X71793754Y-46681607D01*
X71793754Y-46149129D01*
X71813439Y-46082090D01*
X71848861Y-46046028D01*
X71885139Y-46021789D01*
X71996639Y-45910289D01*
X72084244Y-45779179D01*
X72144587Y-45633497D01*
X72175350Y-45478842D01*
X72175350Y-45321158D01*
X72175350Y-45321155D01*
X72175349Y-45321153D01*
X72162669Y-45257408D01*
X72144587Y-45166503D01*
X72133521Y-45139786D01*
X72084247Y-45020827D01*
X72084240Y-45020814D01*
X71996639Y-44889711D01*
X71996636Y-44889707D01*
X71885142Y-44778213D01*
X71885138Y-44778210D01*
X71754035Y-44690609D01*
X71754022Y-44690602D01*
X71608351Y-44630264D01*
X71608341Y-44630261D01*
X71512308Y-44611159D01*
X71450397Y-44578774D01*
X71415823Y-44518058D01*
X71412500Y-44489542D01*
X71412500Y-44283013D01*
X71412500Y-44283011D01*
X71392839Y-44209634D01*
X71371577Y-44130283D01*
X71333348Y-44064069D01*
X71292520Y-43993352D01*
X71231938Y-43932770D01*
X71226901Y-43926165D01*
X71217252Y-43900987D01*
X71204334Y-43877328D01*
X71202831Y-43863352D01*
X71201900Y-43860922D01*
X71202341Y-43858799D01*
X71201500Y-43850970D01*
X71201500Y-43840117D01*
X71201501Y-43840104D01*
X71201501Y-43829183D01*
X71202759Y-43824896D01*
X71203187Y-43819732D01*
X71203188Y-43819726D01*
X71204227Y-43819899D01*
X71221186Y-43762144D01*
X71273990Y-43716389D01*
X71278042Y-43714624D01*
X71279179Y-43714154D01*
X71410289Y-43626549D01*
X71521789Y-43515049D01*
X71609394Y-43383939D01*
X71669737Y-43238257D01*
X71690552Y-43133608D01*
X71696429Y-43104069D01*
X71728814Y-43042158D01*
X71789529Y-43007584D01*
X71818046Y-43004260D01*
X74103663Y-43004260D01*
X74170702Y-43023945D01*
G37*
%TD.AperFunction*%
%TD*%
M02*
