%TF.GenerationSoftware,KiCad,Pcbnew,9.0.5*%
%TF.CreationDate,2025-10-25T18:06:08-04:00*%
%TF.ProjectId,foc_controller,666f635f-636f-46e7-9472-6f6c6c65722e,rev?*%
%TF.SameCoordinates,Original*%
%TF.FileFunction,Soldermask,Top*%
%TF.FilePolarity,Negative*%
%FSLAX46Y46*%
G04 Gerber Fmt 4.6, Leading zero omitted, Abs format (unit mm)*
G04 Created by KiCad (PCBNEW 9.0.5) date 2025-10-25 18:06:08*
%MOMM*%
%LPD*%
G01*
G04 APERTURE LIST*
G04 Aperture macros list*
%AMRoundRect*
0 Rectangle with rounded corners*
0 $1 Rounding radius*
0 $2 $3 $4 $5 $6 $7 $8 $9 X,Y pos of 4 corners*
0 Add a 4 corners polygon primitive as box body*
4,1,4,$2,$3,$4,$5,$6,$7,$8,$9,$2,$3,0*
0 Add four circle primitives for the rounded corners*
1,1,$1+$1,$2,$3*
1,1,$1+$1,$4,$5*
1,1,$1+$1,$6,$7*
1,1,$1+$1,$8,$9*
0 Add four rect primitives between the rounded corners*
20,1,$1+$1,$2,$3,$4,$5,0*
20,1,$1+$1,$4,$5,$6,$7,0*
20,1,$1+$1,$6,$7,$8,$9,0*
20,1,$1+$1,$8,$9,$2,$3,0*%
G04 Aperture macros list end*
%ADD10RoundRect,0.225000X-0.225000X-0.250000X0.225000X-0.250000X0.225000X0.250000X-0.225000X0.250000X0*%
%ADD11RoundRect,0.225000X0.225000X0.250000X-0.225000X0.250000X-0.225000X-0.250000X0.225000X-0.250000X0*%
%ADD12RoundRect,0.225000X0.250000X-0.225000X0.250000X0.225000X-0.250000X0.225000X-0.250000X-0.225000X0*%
%ADD13C,1.350000*%
%ADD14R,1.350000X1.350000*%
%ADD15R,0.850800X1.761200*%
%ADD16R,3.150799X1.761200*%
%ADD17RoundRect,0.200000X-0.275000X0.200000X-0.275000X-0.200000X0.275000X-0.200000X0.275000X0.200000X0*%
%ADD18RoundRect,0.218750X-0.218750X-0.256250X0.218750X-0.256250X0.218750X0.256250X-0.218750X0.256250X0*%
%ADD19RoundRect,0.225000X-0.250000X0.225000X-0.250000X-0.225000X0.250000X-0.225000X0.250000X0.225000X0*%
%ADD20RoundRect,0.200000X0.275000X-0.200000X0.275000X0.200000X-0.275000X0.200000X-0.275000X-0.200000X0*%
%ADD21RoundRect,0.200000X-0.200000X-0.275000X0.200000X-0.275000X0.200000X0.275000X-0.200000X0.275000X0*%
%ADD22RoundRect,0.200000X0.200000X0.275000X-0.200000X0.275000X-0.200000X-0.275000X0.200000X-0.275000X0*%
%ADD23RoundRect,0.102000X-0.500000X-0.550000X0.500000X-0.550000X0.500000X0.550000X-0.500000X0.550000X0*%
%ADD24R,0.355600X1.473200*%
%ADD25RoundRect,0.100000X-0.100000X0.637500X-0.100000X-0.637500X0.100000X-0.637500X0.100000X0.637500X0*%
%ADD26RoundRect,0.062500X-0.375000X-0.062500X0.375000X-0.062500X0.375000X0.062500X-0.375000X0.062500X0*%
%ADD27RoundRect,0.062500X-0.062500X-0.375000X0.062500X-0.375000X0.062500X0.375000X-0.062500X0.375000X0*%
%ADD28R,3.450000X3.450000*%
%ADD29R,0.558800X0.952500*%
%ADD30O,0.990600X2.108200*%
%ADD31O,0.990600X1.803400*%
%ADD32C,0.660400*%
%ADD33R,0.609600X1.143000*%
%ADD34R,0.304800X1.143000*%
%ADD35RoundRect,0.050000X-0.375000X-0.050000X0.375000X-0.050000X0.375000X0.050000X-0.375000X0.050000X0*%
%ADD36RoundRect,0.050000X-0.050000X-0.375000X0.050000X-0.375000X0.050000X0.375000X-0.050000X0.375000X0*%
%ADD37R,1.650000X1.650000*%
%ADD38RoundRect,0.218750X-0.256250X0.218750X-0.256250X-0.218750X0.256250X-0.218750X0.256250X0.218750X0*%
G04 APERTURE END LIST*
D10*
%TO.C,C11*%
X90500000Y-54000000D03*
X88950000Y-54000000D03*
%TD*%
%TO.C,C13*%
X80225000Y-50525000D03*
X81775000Y-50525000D03*
%TD*%
D11*
%TO.C,C16*%
X60225000Y-55000000D03*
X61775000Y-55000000D03*
%TD*%
D12*
%TO.C,C3*%
X62500000Y-44725000D03*
X62500000Y-46275000D03*
%TD*%
D13*
%TO.C,J1-Programmer1*%
X81000000Y-54500000D03*
X79000000Y-54500000D03*
X77000000Y-54500000D03*
X75000000Y-54500000D03*
D14*
X73000000Y-54500000D03*
%TD*%
D15*
%TO.C,U1*%
X88300000Y-36475000D03*
X86000000Y-36475000D03*
X83700000Y-36475000D03*
D16*
X86000000Y-42525000D03*
%TD*%
D11*
%TO.C,C6*%
X68275000Y-34500000D03*
X66725000Y-34500000D03*
%TD*%
D14*
%TO.C,J3*%
X64250001Y-32000000D03*
D13*
X62250001Y-32000000D03*
X60250001Y-32000000D03*
%TD*%
D17*
%TO.C,R3*%
X88500000Y-31350000D03*
X88500000Y-33000000D03*
%TD*%
D18*
%TO.C,D1*%
X84500000Y-46500000D03*
X86075000Y-46500000D03*
%TD*%
D10*
%TO.C,C19*%
X72500000Y-42500000D03*
X74050000Y-42500000D03*
%TD*%
D14*
%TO.C,J1*%
X67500000Y-32000000D03*
D13*
X69500000Y-32000000D03*
%TD*%
D19*
%TO.C,C18*%
X77000000Y-49225000D03*
X77000000Y-50775000D03*
%TD*%
D20*
%TO.C,R4*%
X74000000Y-41000000D03*
X74000000Y-39350000D03*
%TD*%
D10*
%TO.C,C7*%
X88000000Y-34500000D03*
X89550000Y-34500000D03*
%TD*%
D21*
%TO.C,R5*%
X78675000Y-39500000D03*
X80325000Y-39500000D03*
%TD*%
D11*
%TO.C,C8*%
X71275000Y-37500000D03*
X69725000Y-37500000D03*
%TD*%
D22*
%TO.C,Rshunt1*%
X64575001Y-34500000D03*
X62925001Y-34500000D03*
%TD*%
D10*
%TO.C,C21*%
X72500000Y-47000000D03*
X74050000Y-47000000D03*
%TD*%
D17*
%TO.C,R2*%
X83000000Y-42350000D03*
X83000000Y-44000000D03*
%TD*%
D23*
%TO.C,Y1*%
X59785000Y-49500000D03*
X59785000Y-51150000D03*
X61035000Y-51150000D03*
X61035000Y-49500000D03*
%TD*%
D14*
%TO.C,J2*%
X90000000Y-43500000D03*
D13*
X90000000Y-45500000D03*
X90000000Y-47500000D03*
X90000000Y-49500000D03*
%TD*%
D12*
%TO.C,C5*%
X72500000Y-41000000D03*
X72500000Y-39450000D03*
%TD*%
D21*
%TO.C,Rshunt3*%
X59350000Y-46000000D03*
X61000000Y-46000000D03*
%TD*%
D10*
%TO.C,C14*%
X80225000Y-52000000D03*
X81775000Y-52000000D03*
%TD*%
D24*
%TO.C,U2*%
X64150001Y-36500000D03*
X63500000Y-36500000D03*
X62849999Y-36500000D03*
X62200000Y-36500000D03*
X61550001Y-36500000D03*
X60900000Y-36500000D03*
X60250001Y-36500000D03*
X60249999Y-42342000D03*
X60900000Y-42342000D03*
X61549999Y-42342000D03*
X62200000Y-42342000D03*
X62849999Y-42342000D03*
X63500000Y-42342000D03*
X64149999Y-42342000D03*
%TD*%
D10*
%TO.C,C2*%
X69725000Y-34500000D03*
X71275000Y-34500000D03*
%TD*%
%TO.C,C20*%
X72500000Y-44000000D03*
X74050000Y-44000000D03*
%TD*%
D18*
%TO.C,D2*%
X84500000Y-45000000D03*
X86075000Y-45000000D03*
%TD*%
D10*
%TO.C,C12*%
X88950000Y-52000000D03*
X90500000Y-52000000D03*
%TD*%
D25*
%TO.C,U4*%
X87450000Y-48637500D03*
X86800000Y-48637500D03*
X86150000Y-48637500D03*
X85500000Y-48637500D03*
X84850000Y-48637500D03*
X84200000Y-48637500D03*
X83550000Y-48637500D03*
X83550000Y-54362500D03*
X84200000Y-54362500D03*
X84850000Y-54362500D03*
X85500000Y-54362500D03*
X86150000Y-54362500D03*
X86800000Y-54362500D03*
X87450000Y-54362500D03*
%TD*%
D26*
%TO.C,U5*%
X65412500Y-48250000D03*
X65412500Y-48750000D03*
X65412500Y-49250000D03*
X65412500Y-49750000D03*
X65412500Y-50250000D03*
X65412500Y-50750000D03*
X65412500Y-51250000D03*
X65412500Y-51750000D03*
D27*
X66100000Y-52437500D03*
X66600000Y-52437500D03*
X67100000Y-52437500D03*
X67600000Y-52437500D03*
X68100000Y-52437500D03*
X68600000Y-52437500D03*
X69100000Y-52437500D03*
X69600000Y-52437500D03*
D26*
X70287500Y-51750000D03*
X70287500Y-51250000D03*
X70287500Y-50750000D03*
X70287500Y-50250000D03*
X70287500Y-49750000D03*
X70287500Y-49250000D03*
X70287500Y-48750000D03*
X70287500Y-48250000D03*
D27*
X69600000Y-47562500D03*
X69100000Y-47562500D03*
X68600000Y-47562500D03*
X68100000Y-47562500D03*
X67600000Y-47562500D03*
X67100000Y-47562500D03*
X66600000Y-47562500D03*
X66100000Y-47562500D03*
D28*
X67850000Y-50000000D03*
%TD*%
D10*
%TO.C,C4*%
X69725000Y-36000000D03*
X71275000Y-36000000D03*
%TD*%
D11*
%TO.C,C10*%
X61775000Y-53500000D03*
X60225000Y-53500000D03*
%TD*%
D18*
%TO.C,FB1*%
X72487500Y-45500000D03*
X74062500Y-45500000D03*
%TD*%
D29*
%TO.C,SW1*%
X76791600Y-47362700D03*
X76791600Y-41000000D03*
X80500000Y-47362700D03*
X80500000Y-41000000D03*
%TD*%
D11*
%TO.C,C1*%
X85775000Y-34500000D03*
X84225000Y-34500000D03*
%TD*%
D21*
%TO.C,Rshunt2*%
X59925001Y-34500000D03*
X61575001Y-34500000D03*
%TD*%
D10*
%TO.C,C9*%
X59450000Y-47500000D03*
X61000000Y-47500000D03*
%TD*%
D30*
%TO.C,J5*%
X81640000Y-37180001D03*
D31*
X81640000Y-33000000D03*
D32*
X80209999Y-36680001D03*
X74430001Y-36680001D03*
D30*
X73000000Y-37180001D03*
D31*
X73000000Y-33000000D03*
D33*
X80520001Y-37750001D03*
X79720000Y-37750001D03*
D34*
X78570000Y-37750001D03*
X77570000Y-37750001D03*
X77070000Y-37750001D03*
X76070000Y-37750001D03*
D33*
X74120001Y-37750001D03*
X74920000Y-37750001D03*
D34*
X75570001Y-37750001D03*
X76569999Y-37750001D03*
X78070001Y-37750001D03*
X79069999Y-37750001D03*
%TD*%
D35*
%TO.C,U3*%
X66960000Y-41610000D03*
X66960000Y-42010000D03*
X66960000Y-42410000D03*
X66960000Y-42810000D03*
X66960000Y-43210000D03*
D36*
X67610000Y-43860000D03*
X68010000Y-43860000D03*
X68410000Y-43860000D03*
X68810000Y-43860000D03*
X69210000Y-43860000D03*
D35*
X69860000Y-43210000D03*
X69860000Y-42810000D03*
X69860000Y-42410000D03*
X69860000Y-42010000D03*
X69860000Y-41610000D03*
D36*
X69210000Y-40960000D03*
X68810000Y-40960000D03*
X68410000Y-40960000D03*
X68010000Y-40960000D03*
X67610000Y-40960000D03*
D37*
X68410000Y-42410000D03*
%TD*%
D17*
%TO.C,R1*%
X83000000Y-45350000D03*
X83000000Y-47000000D03*
%TD*%
D10*
%TO.C,C15*%
X80225000Y-49000000D03*
X81775000Y-49000000D03*
%TD*%
D38*
%TO.C,D3*%
X90000000Y-31425000D03*
X90000000Y-33000000D03*
%TD*%
D14*
%TO.C,J6*%
X86000000Y-32000000D03*
D13*
X84000000Y-32000000D03*
%TD*%
M02*
