%TF.GenerationSoftware,KiCad,Pcbnew,9.0.5*%
%TF.CreationDate,2025-10-25T18:06:08-04:00*%
%TF.ProjectId,foc_controller,666f635f-636f-46e7-9472-6f6c6c65722e,rev?*%
%TF.SameCoordinates,Original*%
%TF.FileFunction,Legend,Top*%
%TF.FilePolarity,Positive*%
%FSLAX46Y46*%
G04 Gerber Fmt 4.6, Leading zero omitted, Abs format (unit mm)*
G04 Created by KiCad (PCBNEW 9.0.5) date 2025-10-25 18:06:08*
%MOMM*%
%LPD*%
G01*
G04 APERTURE LIST*
%ADD10C,0.100000*%
%ADD11C,0.150000*%
%ADD12C,0.000000*%
%ADD13C,0.120000*%
%ADD14C,0.152400*%
%ADD15C,0.200000*%
G04 APERTURE END LIST*
D10*
G36*
X62852054Y-53133263D02*
G01*
X62909890Y-53146297D01*
X62960651Y-53167166D01*
X63006716Y-53196599D01*
X63044959Y-53232806D01*
X63076116Y-53276343D01*
X63098680Y-53324963D01*
X63112574Y-53379357D01*
X63117393Y-53440718D01*
X63117393Y-53835232D01*
X63112514Y-53898477D01*
X63098564Y-53953517D01*
X63076116Y-54001744D01*
X63045035Y-54044835D01*
X63006797Y-54081043D01*
X62960651Y-54110860D01*
X62909851Y-54132106D01*
X62852018Y-54145360D01*
X62785834Y-54150000D01*
X62500436Y-54150000D01*
X62500436Y-54014323D01*
X62651500Y-54014323D01*
X62785834Y-54014323D01*
X62838959Y-54008622D01*
X62882044Y-53992601D01*
X62917297Y-53966756D01*
X62943848Y-53932187D01*
X62960360Y-53889166D01*
X62966268Y-53835232D01*
X62966268Y-53440718D01*
X62960443Y-53388659D01*
X62944005Y-53346249D01*
X62917297Y-53311331D01*
X62881989Y-53285058D01*
X62838904Y-53268807D01*
X62785834Y-53263032D01*
X62651500Y-53263032D01*
X62651500Y-54014323D01*
X62500436Y-54014323D01*
X62500436Y-53128698D01*
X62785834Y-53128698D01*
X62852054Y-53133263D01*
G37*
G36*
X63355042Y-54150000D02*
G01*
X63355042Y-53128698D01*
X63955207Y-53128698D01*
X63955207Y-53263032D01*
X63503297Y-53263032D01*
X63503297Y-53553986D01*
X63906237Y-53553986D01*
X63906237Y-53684106D01*
X63503297Y-53684106D01*
X63503297Y-54015666D01*
X63955207Y-54015666D01*
X63955207Y-54150000D01*
X63355042Y-54150000D01*
G37*
G36*
X64486619Y-54163982D02*
G01*
X64411378Y-54158476D01*
X64347114Y-54142885D01*
X64291994Y-54118087D01*
X64244574Y-54084237D01*
X64205308Y-54041398D01*
X64177201Y-53991745D01*
X64159778Y-53933926D01*
X64153655Y-53866006D01*
X64301971Y-53866006D01*
X64307923Y-53915015D01*
X64324752Y-53954626D01*
X64352346Y-53987028D01*
X64388262Y-54010815D01*
X64432295Y-54025724D01*
X64486619Y-54031053D01*
X64539931Y-54025613D01*
X64582522Y-54010456D01*
X64616739Y-53986296D01*
X64642832Y-53953763D01*
X64658718Y-53914772D01*
X64664305Y-53867411D01*
X64660776Y-53831097D01*
X64650510Y-53798728D01*
X64633531Y-53769469D01*
X64610540Y-53744854D01*
X64581549Y-53725774D01*
X64545420Y-53712133D01*
X64398508Y-53672932D01*
X64332949Y-53648463D01*
X64279202Y-53614475D01*
X64235476Y-53570839D01*
X64202738Y-53518690D01*
X64182913Y-53460052D01*
X64176064Y-53393152D01*
X64180410Y-53338201D01*
X64192900Y-53289853D01*
X64213128Y-53246973D01*
X64241113Y-53208736D01*
X64276053Y-53176439D01*
X64318763Y-53149703D01*
X64365663Y-53130666D01*
X64418468Y-53118838D01*
X64478253Y-53114715D01*
X64538041Y-53118827D01*
X64591084Y-53130646D01*
X64638416Y-53149703D01*
X64681642Y-53176423D01*
X64717284Y-53208726D01*
X64746127Y-53246973D01*
X64767236Y-53289922D01*
X64780177Y-53337818D01*
X64784656Y-53391748D01*
X64636340Y-53391748D01*
X64631202Y-53349865D01*
X64616530Y-53315216D01*
X64592254Y-53286113D01*
X64560790Y-53264366D01*
X64523333Y-53250966D01*
X64478253Y-53246240D01*
X64433163Y-53250998D01*
X64396197Y-53264420D01*
X64365596Y-53286113D01*
X64342120Y-53315075D01*
X64327934Y-53349290D01*
X64322976Y-53390343D01*
X64326334Y-53423838D01*
X64335942Y-53452422D01*
X64351614Y-53477110D01*
X64385213Y-53506269D01*
X64432092Y-53526020D01*
X64583156Y-53566625D01*
X64650121Y-53591697D01*
X64705510Y-53627925D01*
X64751073Y-53675741D01*
X64784997Y-53732509D01*
X64805541Y-53795816D01*
X64812622Y-53867411D01*
X64807849Y-53926884D01*
X64794158Y-53978923D01*
X64772017Y-54024825D01*
X64741559Y-54065606D01*
X64704049Y-54099736D01*
X64658688Y-54127651D01*
X64608965Y-54147320D01*
X64552041Y-54159652D01*
X64486619Y-54163982D01*
G37*
G36*
X65039035Y-54150000D02*
G01*
X65039035Y-54012918D01*
X65244688Y-54012918D01*
X65244688Y-53265840D01*
X65039035Y-53265840D01*
X65039035Y-53128698D01*
X65605678Y-53128698D01*
X65605678Y-53265840D01*
X65398622Y-53265840D01*
X65398622Y-54012918D01*
X65605678Y-54012918D01*
X65605678Y-54150000D01*
X65039035Y-54150000D01*
G37*
G36*
X66166460Y-54163982D02*
G01*
X66094906Y-54158441D01*
X66034108Y-54142763D01*
X65982193Y-54117792D01*
X65937727Y-54083565D01*
X65901360Y-54040766D01*
X65875148Y-53991205D01*
X65858835Y-53933559D01*
X65853096Y-53866006D01*
X65853096Y-53412691D01*
X65858868Y-53344366D01*
X65875232Y-53286405D01*
X65901447Y-53236900D01*
X65937727Y-53194460D01*
X65982151Y-53160546D01*
X66034050Y-53135778D01*
X66094863Y-53120217D01*
X66166460Y-53114715D01*
X66237246Y-53120239D01*
X66297588Y-53135895D01*
X66349306Y-53160880D01*
X66393789Y-53195193D01*
X66430183Y-53237967D01*
X66456413Y-53287508D01*
X66472737Y-53345142D01*
X66478480Y-53412691D01*
X66327355Y-53412691D01*
X66322063Y-53361220D01*
X66307538Y-53321564D01*
X66284674Y-53290997D01*
X66253804Y-53268344D01*
X66215144Y-53254150D01*
X66166460Y-53249049D01*
X66116824Y-53254182D01*
X66077740Y-53268406D01*
X66046842Y-53290997D01*
X66023916Y-53321535D01*
X66009420Y-53360771D01*
X66004161Y-53411287D01*
X66004161Y-53866006D01*
X66009435Y-53917491D01*
X66023949Y-53957420D01*
X66046842Y-53988433D01*
X66077792Y-54011414D01*
X66116878Y-54025850D01*
X66166460Y-54031053D01*
X66215091Y-54025883D01*
X66253752Y-54011477D01*
X66284674Y-53988433D01*
X66307566Y-53957420D01*
X66322081Y-53917491D01*
X66327355Y-53866006D01*
X66327355Y-53740099D01*
X66137090Y-53740099D01*
X66137090Y-53605765D01*
X66478480Y-53605765D01*
X66478480Y-53866006D01*
X66472738Y-53933555D01*
X66456415Y-53991200D01*
X66430185Y-54040762D01*
X66393789Y-54083565D01*
X66349310Y-54117850D01*
X66297593Y-54142817D01*
X66237249Y-54158462D01*
X66166460Y-54163982D01*
G37*
G36*
X66693719Y-54150000D02*
G01*
X66693719Y-53128698D01*
X66885389Y-53128698D01*
X67181961Y-53977930D01*
X67174939Y-53882798D01*
X67168650Y-53766660D01*
X67166573Y-53656140D01*
X67166573Y-53128698D01*
X67306464Y-53128698D01*
X67306464Y-54150000D01*
X67116198Y-54150000D01*
X66819626Y-53300767D01*
X66825916Y-53392419D01*
X66832205Y-53505076D01*
X66835014Y-53614192D01*
X66835014Y-54150000D01*
X66693719Y-54150000D01*
G37*
G36*
X67551134Y-54150000D02*
G01*
X67551134Y-53128698D01*
X68151300Y-53128698D01*
X68151300Y-53263032D01*
X67699389Y-53263032D01*
X67699389Y-53553986D01*
X68102329Y-53553986D01*
X68102329Y-53684106D01*
X67699389Y-53684106D01*
X67699389Y-54015666D01*
X68151300Y-54015666D01*
X68151300Y-54150000D01*
X67551134Y-54150000D01*
G37*
G36*
X68726583Y-53133263D02*
G01*
X68784419Y-53146297D01*
X68835180Y-53167166D01*
X68881245Y-53196599D01*
X68919488Y-53232806D01*
X68950645Y-53276343D01*
X68973209Y-53324963D01*
X68987102Y-53379357D01*
X68991922Y-53440718D01*
X68991922Y-53835232D01*
X68987042Y-53898477D01*
X68973093Y-53953517D01*
X68950645Y-54001744D01*
X68919564Y-54044835D01*
X68881326Y-54081043D01*
X68835180Y-54110860D01*
X68784380Y-54132106D01*
X68726547Y-54145360D01*
X68660363Y-54150000D01*
X68374965Y-54150000D01*
X68374965Y-54014323D01*
X68526029Y-54014323D01*
X68660363Y-54014323D01*
X68713488Y-54008622D01*
X68756573Y-53992601D01*
X68791826Y-53966756D01*
X68818377Y-53932187D01*
X68834889Y-53889166D01*
X68840797Y-53835232D01*
X68840797Y-53440718D01*
X68834972Y-53388659D01*
X68818534Y-53346249D01*
X68791826Y-53311331D01*
X68756518Y-53285058D01*
X68713433Y-53268807D01*
X68660363Y-53263032D01*
X68526029Y-53263032D01*
X68526029Y-54014323D01*
X68374965Y-54014323D01*
X68374965Y-53128698D01*
X68660363Y-53128698D01*
X68726583Y-53133263D01*
G37*
G36*
X70429211Y-53133676D02*
G01*
X70489961Y-53147657D01*
X70541154Y-53169660D01*
X70584325Y-53199345D01*
X70620372Y-53237464D01*
X70646078Y-53281584D01*
X70661972Y-53332899D01*
X70667550Y-53393152D01*
X70661993Y-53445524D01*
X70645739Y-53492439D01*
X70618580Y-53535179D01*
X70582610Y-53570565D01*
X70540595Y-53595296D01*
X70491268Y-53609979D01*
X70491268Y-53614192D01*
X70546891Y-53628238D01*
X70595499Y-53656140D01*
X70635798Y-53695543D01*
X70666146Y-53744312D01*
X70684884Y-53799776D01*
X70691364Y-53863197D01*
X70685633Y-53927742D01*
X70669287Y-53983043D01*
X70642884Y-54030848D01*
X70606001Y-54072391D01*
X70561359Y-54105342D01*
X70509249Y-54129463D01*
X70448249Y-54144635D01*
X70376535Y-54150000D01*
X70056211Y-54150000D01*
X70056211Y-54019879D01*
X70203062Y-54019879D01*
X70363957Y-54019879D01*
X70417325Y-54014515D01*
X70459916Y-53999591D01*
X70494077Y-53975854D01*
X70520073Y-53943697D01*
X70536003Y-53904500D01*
X70541643Y-53856175D01*
X70536013Y-53805914D01*
X70520067Y-53764610D01*
X70494077Y-53730268D01*
X70459645Y-53704474D01*
X70417052Y-53688433D01*
X70363957Y-53682702D01*
X70203062Y-53682702D01*
X70203062Y-54019879D01*
X70056211Y-54019879D01*
X70056211Y-53556795D01*
X70203062Y-53556795D01*
X70355591Y-53556795D01*
X70403509Y-53551972D01*
X70442236Y-53538483D01*
X70473744Y-53516922D01*
X70497809Y-53487721D01*
X70512583Y-53451796D01*
X70517830Y-53407135D01*
X70512690Y-53363319D01*
X70498175Y-53327805D01*
X70474476Y-53298691D01*
X70443382Y-53277155D01*
X70404902Y-53263656D01*
X70356996Y-53258818D01*
X70203062Y-53258818D01*
X70203062Y-53556795D01*
X70056211Y-53556795D01*
X70056211Y-53128698D01*
X70356996Y-53128698D01*
X70429211Y-53133676D01*
G37*
G36*
X71120621Y-54150000D02*
G01*
X71120621Y-53773682D01*
X70817027Y-53128698D01*
X70976518Y-53128698D01*
X71154204Y-53514846D01*
X71183574Y-53586226D01*
X71198962Y-53636540D01*
X71214349Y-53586226D01*
X71242376Y-53514846D01*
X71418658Y-53128698D01*
X71575340Y-53128698D01*
X71271746Y-53773682D01*
X71271746Y-54150000D01*
X71120621Y-54150000D01*
G37*
G36*
X65393900Y-54813676D02*
G01*
X65454650Y-54827657D01*
X65505843Y-54849660D01*
X65549014Y-54879345D01*
X65585061Y-54917464D01*
X65610767Y-54961584D01*
X65626661Y-55012899D01*
X65632240Y-55073152D01*
X65626683Y-55125524D01*
X65610428Y-55172439D01*
X65583269Y-55215179D01*
X65547299Y-55250565D01*
X65505284Y-55275296D01*
X65455957Y-55289979D01*
X65455957Y-55294192D01*
X65511580Y-55308238D01*
X65560188Y-55336140D01*
X65600487Y-55375543D01*
X65630835Y-55424312D01*
X65649574Y-55479776D01*
X65656053Y-55543197D01*
X65650322Y-55607742D01*
X65633976Y-55663043D01*
X65607573Y-55710848D01*
X65570690Y-55752391D01*
X65526048Y-55785342D01*
X65473938Y-55809463D01*
X65412938Y-55824635D01*
X65341224Y-55830000D01*
X65020900Y-55830000D01*
X65020900Y-55699879D01*
X65167751Y-55699879D01*
X65328646Y-55699879D01*
X65382014Y-55694515D01*
X65424605Y-55679591D01*
X65458766Y-55655854D01*
X65484762Y-55623697D01*
X65500692Y-55584500D01*
X65506332Y-55536175D01*
X65500703Y-55485914D01*
X65484757Y-55444610D01*
X65458766Y-55410268D01*
X65424335Y-55384474D01*
X65381741Y-55368433D01*
X65328646Y-55362702D01*
X65167751Y-55362702D01*
X65167751Y-55699879D01*
X65020900Y-55699879D01*
X65020900Y-55236795D01*
X65167751Y-55236795D01*
X65320280Y-55236795D01*
X65368198Y-55231972D01*
X65406925Y-55218483D01*
X65438433Y-55196922D01*
X65462498Y-55167721D01*
X65477272Y-55131796D01*
X65482519Y-55087135D01*
X65477380Y-55043319D01*
X65462864Y-55007805D01*
X65439166Y-54978691D01*
X65408071Y-54957155D01*
X65369591Y-54943656D01*
X65321685Y-54938818D01*
X65167751Y-54938818D01*
X65167751Y-55236795D01*
X65020900Y-55236795D01*
X65020900Y-54808698D01*
X65321685Y-54808698D01*
X65393900Y-54813676D01*
G37*
G36*
X65878253Y-55830000D02*
G01*
X65878253Y-55692918D01*
X66083906Y-55692918D01*
X66083906Y-54945840D01*
X65878253Y-54945840D01*
X65878253Y-54808698D01*
X66444897Y-54808698D01*
X66444897Y-54945840D01*
X66237840Y-54945840D01*
X66237840Y-55692918D01*
X66444897Y-55692918D01*
X66444897Y-55830000D01*
X65878253Y-55830000D01*
G37*
G36*
X66756673Y-55830000D02*
G01*
X66756673Y-54808698D01*
X66907737Y-54808698D01*
X66907737Y-55692918D01*
X67354030Y-55692918D01*
X67354030Y-55830000D01*
X66756673Y-55830000D01*
G37*
G36*
X67595891Y-55830000D02*
G01*
X67595891Y-54808698D01*
X67746955Y-54808698D01*
X67746955Y-55692918D01*
X68193248Y-55692918D01*
X68193248Y-55830000D01*
X67595891Y-55830000D01*
G37*
G36*
X68602965Y-55830000D02*
G01*
X68602965Y-55453682D01*
X68299372Y-54808698D01*
X68458862Y-54808698D01*
X68636549Y-55194846D01*
X68665919Y-55266226D01*
X68681306Y-55316540D01*
X68696694Y-55266226D01*
X68724720Y-55194846D01*
X68901003Y-54808698D01*
X69057684Y-54808698D01*
X68754091Y-55453682D01*
X68754091Y-55830000D01*
X68602965Y-55830000D01*
G37*
G36*
X62318981Y-49160000D02*
G01*
X62060144Y-47117397D01*
X62214078Y-47117397D01*
X62379125Y-48477219D01*
X62405687Y-48717920D01*
X62422479Y-48899759D01*
X62440003Y-48716577D01*
X62467297Y-48474532D01*
X62625383Y-47117397D01*
X62780661Y-47117397D01*
X62520420Y-49160000D01*
X62318981Y-49160000D01*
G37*
G36*
X63295160Y-47976631D02*
G01*
X63322575Y-48008639D01*
X63340645Y-48059290D01*
X63347060Y-48130272D01*
X63340610Y-48204048D01*
X63322575Y-48256301D01*
X63295105Y-48289340D01*
X63258949Y-48300997D01*
X63222741Y-48289335D01*
X63195263Y-48256301D01*
X63177228Y-48204048D01*
X63170778Y-48130272D01*
X63177192Y-48059290D01*
X63195263Y-48008639D01*
X63222686Y-47976636D01*
X63258949Y-47965286D01*
X63295160Y-47976631D01*
G37*
G36*
X63331084Y-47100779D02*
G01*
X63392407Y-47132913D01*
X63444817Y-47184162D01*
X63489759Y-47254539D01*
X63526539Y-47342217D01*
X63552976Y-47442818D01*
X63569373Y-47558861D01*
X63575122Y-47693810D01*
X63575122Y-48580778D01*
X63570502Y-48701791D01*
X63557266Y-48807767D01*
X63535921Y-48901224D01*
X63506358Y-48984926D01*
X63469993Y-49055005D01*
X63426133Y-49112494D01*
X63377689Y-49153443D01*
X63322392Y-49179008D01*
X63258949Y-49187965D01*
X63186777Y-49176622D01*
X63125434Y-49144507D01*
X63073016Y-49093295D01*
X63028079Y-49022979D01*
X62991365Y-48935324D01*
X62964922Y-48834303D01*
X62948488Y-48717310D01*
X62942716Y-48580778D01*
X62942716Y-47693810D01*
X63086819Y-47693810D01*
X63086819Y-48580778D01*
X63092381Y-48681398D01*
X63108118Y-48764008D01*
X63133714Y-48832592D01*
X63167645Y-48884524D01*
X63208705Y-48916435D01*
X63258949Y-48927725D01*
X63309191Y-48916432D01*
X63350230Y-48884519D01*
X63384124Y-48832592D01*
X63409720Y-48764008D01*
X63425456Y-48681398D01*
X63431018Y-48580778D01*
X63431018Y-47693810D01*
X63425490Y-47595073D01*
X63409786Y-47513329D01*
X63384124Y-47444804D01*
X63350230Y-47392877D01*
X63309191Y-47360964D01*
X63258949Y-47349672D01*
X63208705Y-47360961D01*
X63167645Y-47392872D01*
X63133714Y-47444804D01*
X63108052Y-47513329D01*
X63092347Y-47595073D01*
X63086819Y-47693810D01*
X62942716Y-47693810D01*
X62948464Y-47558861D01*
X62964861Y-47442818D01*
X62991298Y-47342217D01*
X63028079Y-47254539D01*
X63073020Y-47184167D01*
X63125439Y-47132917D01*
X63186781Y-47100781D01*
X63258949Y-47089431D01*
X63331084Y-47100779D01*
G37*
G36*
X63800130Y-49160000D02*
G01*
X63800130Y-48885837D01*
X64071545Y-48885837D01*
X64071545Y-47397177D01*
X63798726Y-47800177D01*
X63798726Y-47458848D01*
X64032405Y-47117397D01*
X64222670Y-47117397D01*
X64222670Y-48885837D01*
X64442306Y-48885837D01*
X64442306Y-49160000D01*
X63800130Y-49160000D01*
G37*
G36*
X66111924Y-36876100D02*
G01*
X66111924Y-36687239D01*
X66369356Y-36687239D01*
X66369356Y-36067472D01*
X66109115Y-36254929D01*
X66109115Y-36022715D01*
X66348351Y-35854798D01*
X66579221Y-35854798D01*
X66579221Y-36687239D01*
X66783469Y-36687239D01*
X66783469Y-36876100D01*
X66111924Y-36876100D01*
G37*
G36*
X66930137Y-36876100D02*
G01*
X66930137Y-36688643D01*
X67317690Y-36303900D01*
X67350501Y-36261790D01*
X67369842Y-36215227D01*
X67376430Y-36162605D01*
X67372429Y-36125667D01*
X67360973Y-36094365D01*
X67342175Y-36067472D01*
X67317189Y-36046636D01*
X67287578Y-36034069D01*
X67251927Y-36029676D01*
X67215437Y-36034208D01*
X67184885Y-36047221D01*
X67158871Y-36068877D01*
X67139389Y-36096820D01*
X67127422Y-36129913D01*
X67123211Y-36169566D01*
X66913346Y-36169566D01*
X66918490Y-36105542D01*
X66933322Y-36048857D01*
X66957431Y-35998230D01*
X66990464Y-35952854D01*
X67030784Y-35914550D01*
X67079125Y-35882825D01*
X67132373Y-35859897D01*
X67191910Y-35845733D01*
X67258949Y-35840815D01*
X67324220Y-35845359D01*
X67381615Y-35858372D01*
X67432362Y-35879283D01*
X67478570Y-35908610D01*
X67517035Y-35944374D01*
X67548499Y-35987056D01*
X67571529Y-36034788D01*
X67585634Y-36087792D01*
X67590509Y-36147218D01*
X67586651Y-36200575D01*
X67575069Y-36252879D01*
X67555521Y-36304632D01*
X67528742Y-36353109D01*
X67491489Y-36403094D01*
X67442192Y-36454964D01*
X67198743Y-36687239D01*
X67601683Y-36687239D01*
X67601683Y-36876100D01*
X66930137Y-36876100D01*
G37*
G36*
X67966643Y-36876100D02*
G01*
X67713424Y-35854798D01*
X67930251Y-35854798D01*
X68071545Y-36499782D01*
X68089070Y-36585145D01*
X68105129Y-36673256D01*
X68119112Y-36585145D01*
X68134499Y-36498378D01*
X68271641Y-35854798D01*
X68482850Y-35854798D01*
X68232440Y-36876100D01*
X67966643Y-36876100D01*
G37*
G36*
X64350575Y-46687965D02*
G01*
X64207467Y-46676883D01*
X64085871Y-46645527D01*
X63982041Y-46595584D01*
X63893108Y-46527131D01*
X63820375Y-46441533D01*
X63767951Y-46342411D01*
X63735325Y-46227118D01*
X63723848Y-46092013D01*
X63723848Y-45185383D01*
X63735392Y-45048732D01*
X63768119Y-44932810D01*
X63820550Y-44833801D01*
X63893108Y-44748921D01*
X63981957Y-44681092D01*
X64085756Y-44631556D01*
X64207382Y-44600434D01*
X64350575Y-44589431D01*
X64492146Y-44600479D01*
X64612831Y-44631790D01*
X64716268Y-44681761D01*
X64805233Y-44750387D01*
X64878021Y-44835935D01*
X64930480Y-44935017D01*
X64963130Y-45050284D01*
X64974616Y-45185383D01*
X64672365Y-45185383D01*
X64661782Y-45082440D01*
X64632731Y-45003128D01*
X64587002Y-44941995D01*
X64525264Y-44896689D01*
X64447943Y-44868300D01*
X64350575Y-44858098D01*
X64251304Y-44868365D01*
X64173135Y-44896813D01*
X64111339Y-44941995D01*
X64065487Y-45003071D01*
X64036495Y-45081542D01*
X64025976Y-45182575D01*
X64025976Y-46092013D01*
X64036525Y-46194982D01*
X64065554Y-46274841D01*
X64111339Y-46336866D01*
X64173240Y-46382828D01*
X64251411Y-46411700D01*
X64350575Y-46422107D01*
X64447838Y-46411766D01*
X64525160Y-46382954D01*
X64587002Y-46336866D01*
X64632788Y-46274841D01*
X64661817Y-46194982D01*
X64672365Y-46092013D01*
X64672365Y-45840198D01*
X64291835Y-45840198D01*
X64291835Y-45571531D01*
X64974616Y-45571531D01*
X64974616Y-46092013D01*
X64963132Y-46227111D01*
X64930485Y-46342401D01*
X64878025Y-46441525D01*
X64805233Y-46527131D01*
X64716275Y-46595701D01*
X64612841Y-46645634D01*
X64492154Y-46676925D01*
X64350575Y-46687965D01*
G37*
G36*
X66739759Y-46660000D02*
G01*
X66432013Y-46660000D01*
X66308792Y-46142327D01*
X65729692Y-46142327D01*
X65606594Y-46660000D01*
X65298726Y-46660000D01*
X65494801Y-45890512D01*
X65785624Y-45890512D01*
X66250052Y-45890512D01*
X66110223Y-45302986D01*
X66050017Y-45031632D01*
X66017899Y-44872020D01*
X65987002Y-45031632D01*
X65925575Y-45300177D01*
X65785624Y-45890512D01*
X65494801Y-45890512D01*
X65819207Y-44617397D01*
X66216468Y-44617397D01*
X66739759Y-46660000D01*
G37*
G36*
X67131036Y-46660000D02*
G01*
X67131036Y-46385837D01*
X67542341Y-46385837D01*
X67542341Y-44891681D01*
X67131036Y-44891681D01*
X67131036Y-44617397D01*
X68264323Y-44617397D01*
X68264323Y-44891681D01*
X67850209Y-44891681D01*
X67850209Y-46385837D01*
X68264323Y-46385837D01*
X68264323Y-46660000D01*
X67131036Y-46660000D01*
G37*
G36*
X69374773Y-46687965D02*
G01*
X69228362Y-46676651D01*
X69106830Y-46644964D01*
X69005674Y-46595018D01*
X68921458Y-46527131D01*
X68853437Y-46442172D01*
X68803953Y-46342877D01*
X68772930Y-46226457D01*
X68761967Y-46089204D01*
X68761967Y-44617397D01*
X69064096Y-44617397D01*
X69064096Y-46086395D01*
X69073734Y-46188082D01*
X69100391Y-46268631D01*
X69142376Y-46332592D01*
X69200399Y-46380777D01*
X69276033Y-46411091D01*
X69374773Y-46422107D01*
X69473427Y-46411091D01*
X69548979Y-46380779D01*
X69606926Y-46332592D01*
X69648980Y-46268621D01*
X69675676Y-46188073D01*
X69685327Y-46086395D01*
X69685327Y-44617397D01*
X69987456Y-44617397D01*
X69987456Y-46089204D01*
X69976429Y-46228018D01*
X69945309Y-46345065D01*
X69895817Y-46444239D01*
X69827965Y-46528475D01*
X69743836Y-46595744D01*
X69642731Y-46645282D01*
X69521208Y-46676733D01*
X69374773Y-46687965D01*
G37*
G36*
X71061514Y-46687965D02*
G01*
X70911032Y-46676953D01*
X70782504Y-46645771D01*
X70672264Y-46596174D01*
X70577424Y-46528475D01*
X70498892Y-46442797D01*
X70442678Y-46343490D01*
X70407831Y-46227852D01*
X70395586Y-46092013D01*
X70692219Y-46092013D01*
X70704122Y-46190030D01*
X70737780Y-46269253D01*
X70792969Y-46334057D01*
X70864800Y-46381631D01*
X70952866Y-46411448D01*
X71061514Y-46422107D01*
X71168138Y-46411226D01*
X71253321Y-46380913D01*
X71321755Y-46332592D01*
X71373941Y-46267526D01*
X71405712Y-46189545D01*
X71416887Y-46094822D01*
X71409828Y-46022195D01*
X71389296Y-45957457D01*
X71355338Y-45898939D01*
X71309355Y-45849709D01*
X71251374Y-45811548D01*
X71179117Y-45784267D01*
X70885293Y-45705865D01*
X70754174Y-45656926D01*
X70646680Y-45588951D01*
X70559228Y-45501678D01*
X70493752Y-45397381D01*
X70454101Y-45280104D01*
X70440404Y-45146304D01*
X70449096Y-45036402D01*
X70474077Y-44939707D01*
X70514532Y-44853946D01*
X70570503Y-44777472D01*
X70640383Y-44712878D01*
X70725802Y-44659406D01*
X70819602Y-44621333D01*
X70925212Y-44597676D01*
X71044783Y-44589431D01*
X71164359Y-44597654D01*
X71270444Y-44621292D01*
X71365108Y-44659406D01*
X71451560Y-44712847D01*
X71522844Y-44777453D01*
X71580530Y-44853946D01*
X71622749Y-44939845D01*
X71648631Y-45035637D01*
X71657588Y-45143496D01*
X71360956Y-45143496D01*
X71350680Y-45059731D01*
X71321337Y-44990433D01*
X71272784Y-44932226D01*
X71209855Y-44888732D01*
X71134941Y-44861933D01*
X71044783Y-44852480D01*
X70954602Y-44861997D01*
X70880669Y-44888841D01*
X70819469Y-44932226D01*
X70772517Y-44990151D01*
X70744144Y-45058581D01*
X70734228Y-45140687D01*
X70740945Y-45207676D01*
X70760159Y-45264845D01*
X70791503Y-45314221D01*
X70858703Y-45372539D01*
X70952459Y-45412041D01*
X71254588Y-45493251D01*
X71388518Y-45543395D01*
X71499297Y-45615850D01*
X71590422Y-45711482D01*
X71658271Y-45825018D01*
X71699358Y-45951632D01*
X71713520Y-46094822D01*
X71703974Y-46213768D01*
X71676592Y-46317847D01*
X71632309Y-46409651D01*
X71571394Y-46491213D01*
X71496375Y-46559473D01*
X71405652Y-46615303D01*
X71306207Y-46654641D01*
X71192359Y-46679305D01*
X71061514Y-46687965D01*
G37*
D11*
X86761904Y-40045180D02*
X86761904Y-39235657D01*
X86761904Y-39235657D02*
X86714285Y-39140419D01*
X86714285Y-39140419D02*
X86666666Y-39092800D01*
X86666666Y-39092800D02*
X86571428Y-39045180D01*
X86571428Y-39045180D02*
X86380952Y-39045180D01*
X86380952Y-39045180D02*
X86285714Y-39092800D01*
X86285714Y-39092800D02*
X86238095Y-39140419D01*
X86238095Y-39140419D02*
X86190476Y-39235657D01*
X86190476Y-39235657D02*
X86190476Y-40045180D01*
X85190476Y-39045180D02*
X85761904Y-39045180D01*
X85476190Y-39045180D02*
X85476190Y-40045180D01*
X85476190Y-40045180D02*
X85571428Y-39902323D01*
X85571428Y-39902323D02*
X85666666Y-39807085D01*
X85666666Y-39807085D02*
X85761904Y-39759466D01*
X62745180Y-38659095D02*
X61935657Y-38659095D01*
X61935657Y-38659095D02*
X61840419Y-38706714D01*
X61840419Y-38706714D02*
X61792800Y-38754333D01*
X61792800Y-38754333D02*
X61745180Y-38849571D01*
X61745180Y-38849571D02*
X61745180Y-39040047D01*
X61745180Y-39040047D02*
X61792800Y-39135285D01*
X61792800Y-39135285D02*
X61840419Y-39182904D01*
X61840419Y-39182904D02*
X61935657Y-39230523D01*
X61935657Y-39230523D02*
X62745180Y-39230523D01*
X62649942Y-39659095D02*
X62697561Y-39706714D01*
X62697561Y-39706714D02*
X62745180Y-39801952D01*
X62745180Y-39801952D02*
X62745180Y-40040047D01*
X62745180Y-40040047D02*
X62697561Y-40135285D01*
X62697561Y-40135285D02*
X62649942Y-40182904D01*
X62649942Y-40182904D02*
X62554704Y-40230523D01*
X62554704Y-40230523D02*
X62459466Y-40230523D01*
X62459466Y-40230523D02*
X62316609Y-40182904D01*
X62316609Y-40182904D02*
X61745180Y-39611476D01*
X61745180Y-39611476D02*
X61745180Y-40230523D01*
X61545180Y-38500000D02*
X61307085Y-38500000D01*
X61402323Y-38261905D02*
X61307085Y-38500000D01*
X61307085Y-38500000D02*
X61402323Y-38738095D01*
X61116609Y-38357143D02*
X61307085Y-38500000D01*
X61307085Y-38500000D02*
X61116609Y-38642857D01*
X62454819Y-40499999D02*
X62692914Y-40499999D01*
X62597676Y-40738094D02*
X62692914Y-40499999D01*
X62692914Y-40499999D02*
X62597676Y-40261904D01*
X62883390Y-40642856D02*
X62692914Y-40499999D01*
X62692914Y-40499999D02*
X62883390Y-40357142D01*
X67238095Y-49454819D02*
X67238095Y-50264342D01*
X67238095Y-50264342D02*
X67285714Y-50359580D01*
X67285714Y-50359580D02*
X67333333Y-50407200D01*
X67333333Y-50407200D02*
X67428571Y-50454819D01*
X67428571Y-50454819D02*
X67619047Y-50454819D01*
X67619047Y-50454819D02*
X67714285Y-50407200D01*
X67714285Y-50407200D02*
X67761904Y-50359580D01*
X67761904Y-50359580D02*
X67809523Y-50264342D01*
X67809523Y-50264342D02*
X67809523Y-49454819D01*
X68761904Y-49454819D02*
X68285714Y-49454819D01*
X68285714Y-49454819D02*
X68238095Y-49931009D01*
X68238095Y-49931009D02*
X68285714Y-49883390D01*
X68285714Y-49883390D02*
X68380952Y-49835771D01*
X68380952Y-49835771D02*
X68619047Y-49835771D01*
X68619047Y-49835771D02*
X68714285Y-49883390D01*
X68714285Y-49883390D02*
X68761904Y-49931009D01*
X68761904Y-49931009D02*
X68809523Y-50026247D01*
X68809523Y-50026247D02*
X68809523Y-50264342D01*
X68809523Y-50264342D02*
X68761904Y-50359580D01*
X68761904Y-50359580D02*
X68714285Y-50407200D01*
X68714285Y-50407200D02*
X68619047Y-50454819D01*
X68619047Y-50454819D02*
X68380952Y-50454819D01*
X68380952Y-50454819D02*
X68285714Y-50407200D01*
X68285714Y-50407200D02*
X68238095Y-50359580D01*
X79053000Y-45514682D02*
X79100619Y-45371825D01*
X79100619Y-45371825D02*
X79100619Y-45133730D01*
X79100619Y-45133730D02*
X79053000Y-45038492D01*
X79053000Y-45038492D02*
X79005380Y-44990873D01*
X79005380Y-44990873D02*
X78910142Y-44943254D01*
X78910142Y-44943254D02*
X78814904Y-44943254D01*
X78814904Y-44943254D02*
X78719666Y-44990873D01*
X78719666Y-44990873D02*
X78672047Y-45038492D01*
X78672047Y-45038492D02*
X78624428Y-45133730D01*
X78624428Y-45133730D02*
X78576809Y-45324206D01*
X78576809Y-45324206D02*
X78529190Y-45419444D01*
X78529190Y-45419444D02*
X78481571Y-45467063D01*
X78481571Y-45467063D02*
X78386333Y-45514682D01*
X78386333Y-45514682D02*
X78291095Y-45514682D01*
X78291095Y-45514682D02*
X78195857Y-45467063D01*
X78195857Y-45467063D02*
X78148238Y-45419444D01*
X78148238Y-45419444D02*
X78100619Y-45324206D01*
X78100619Y-45324206D02*
X78100619Y-45086111D01*
X78100619Y-45086111D02*
X78148238Y-44943254D01*
X78100619Y-44609920D02*
X79100619Y-44371825D01*
X79100619Y-44371825D02*
X78386333Y-44181349D01*
X78386333Y-44181349D02*
X79100619Y-43990873D01*
X79100619Y-43990873D02*
X78100619Y-43752778D01*
X79100619Y-42848016D02*
X79100619Y-43419444D01*
X79100619Y-43133730D02*
X78100619Y-43133730D01*
X78100619Y-43133730D02*
X78243476Y-43228968D01*
X78243476Y-43228968D02*
X78338714Y-43324206D01*
X78338714Y-43324206D02*
X78386333Y-43419444D01*
X74544619Y-47616699D02*
X74782714Y-47616699D01*
X74687476Y-47854794D02*
X74782714Y-47616699D01*
X74782714Y-47616699D02*
X74687476Y-47378604D01*
X74973190Y-47759556D02*
X74782714Y-47616699D01*
X74782714Y-47616699D02*
X74973190Y-47473842D01*
X74544619Y-47616699D02*
X74782714Y-47616699D01*
X74687476Y-47854794D02*
X74782714Y-47616699D01*
X74782714Y-47616699D02*
X74687476Y-47378604D01*
X74973190Y-47759556D02*
X74782714Y-47616699D01*
X74782714Y-47616699D02*
X74973190Y-47473842D01*
X84000000Y-37954819D02*
X84000000Y-38192914D01*
X83761905Y-38097676D02*
X84000000Y-38192914D01*
X84000000Y-38192914D02*
X84238095Y-38097676D01*
X83857143Y-38383390D02*
X84000000Y-38192914D01*
X84000000Y-38192914D02*
X84142857Y-38383390D01*
X83499999Y-39045180D02*
X83499999Y-38807085D01*
X83738094Y-38902323D02*
X83499999Y-38807085D01*
X83499999Y-38807085D02*
X83261904Y-38902323D01*
X83642856Y-38616609D02*
X83499999Y-38807085D01*
X83499999Y-38807085D02*
X83357142Y-38616609D01*
D12*
%TO.C,G\u002A\u002A\u002A2*%
G36*
X72366729Y-49201096D02*
G01*
X72388725Y-49218136D01*
X72394333Y-49235347D01*
X72392766Y-49263885D01*
X72388751Y-49273232D01*
X72383008Y-49275500D01*
X72376750Y-49255619D01*
X72375027Y-49249043D01*
X72368596Y-49235770D01*
X72355283Y-49228943D01*
X72329258Y-49226782D01*
X72284690Y-49227506D01*
X72259565Y-49228185D01*
X72227329Y-49228490D01*
X72215533Y-49226688D01*
X72221562Y-49221884D01*
X72242801Y-49213185D01*
X72281073Y-49201306D01*
X72328893Y-49195420D01*
X72366729Y-49201096D01*
G37*
G36*
X73701385Y-48762943D02*
G01*
X73730210Y-48792772D01*
X73750276Y-48845083D01*
X73753565Y-48860743D01*
X73751471Y-48874976D01*
X73736624Y-48875564D01*
X73718185Y-48862026D01*
X73704150Y-48831657D01*
X73698430Y-48812829D01*
X73686421Y-48795801D01*
X73666245Y-48795830D01*
X73631872Y-48811209D01*
X73629189Y-48812566D01*
X73593933Y-48823803D01*
X73569511Y-48819277D01*
X73560380Y-48799703D01*
X73568770Y-48785854D01*
X73594913Y-48770897D01*
X73631677Y-48759781D01*
X73671717Y-48755427D01*
X73701385Y-48762943D01*
G37*
G36*
X74280110Y-49000067D02*
G01*
X74294705Y-49005542D01*
X74307348Y-49020448D01*
X74321414Y-49049304D01*
X74340281Y-49096628D01*
X74346316Y-49112522D01*
X74362370Y-49157521D01*
X74373563Y-49193050D01*
X74377767Y-49212526D01*
X74375921Y-49221365D01*
X74362337Y-49231220D01*
X74360622Y-49230768D01*
X74348544Y-49216085D01*
X74332887Y-49184860D01*
X74316588Y-49142771D01*
X74300998Y-49099161D01*
X74286526Y-49070817D01*
X74269194Y-49058515D01*
X74243495Y-49058564D01*
X74203920Y-49067273D01*
X74190811Y-49070010D01*
X74174330Y-49067876D01*
X74170370Y-49051603D01*
X74171884Y-49042889D01*
X74190181Y-49021007D01*
X74224217Y-49005386D01*
X74267656Y-48999423D01*
X74280110Y-49000067D01*
G37*
G36*
X73619978Y-49055935D02*
G01*
X73638755Y-49077121D01*
X73644139Y-49114192D01*
X73628233Y-49160867D01*
X73619616Y-49179121D01*
X73619964Y-49192541D01*
X73634759Y-49204045D01*
X73667958Y-49219470D01*
X73669427Y-49220124D01*
X73734607Y-49257908D01*
X73784949Y-49304745D01*
X73817301Y-49356881D01*
X73828508Y-49410561D01*
X73828279Y-49422029D01*
X73826088Y-49432494D01*
X73819422Y-49424091D01*
X73805684Y-49395054D01*
X73799176Y-49382139D01*
X73758013Y-49328119D01*
X73701235Y-49282089D01*
X73635977Y-49250145D01*
X73616429Y-49244195D01*
X73574992Y-49240098D01*
X73543927Y-49254533D01*
X73517271Y-49289476D01*
X73498103Y-49322718D01*
X73504945Y-49271127D01*
X73507463Y-49249055D01*
X73505711Y-49228652D01*
X73493660Y-49216641D01*
X73466666Y-49209284D01*
X73420082Y-49202843D01*
X73383483Y-49198276D01*
X73422561Y-49196448D01*
X73425005Y-49196320D01*
X73450216Y-49191260D01*
X73467706Y-49175526D01*
X73484839Y-49142771D01*
X73485761Y-49140728D01*
X73516271Y-49088666D01*
X73550397Y-49056160D01*
X73585760Y-49044740D01*
X73619978Y-49055935D01*
G37*
G36*
X74176676Y-49223412D02*
G01*
X74200319Y-49242810D01*
X74201240Y-49243863D01*
X74214965Y-49277341D01*
X74214988Y-49326012D01*
X74201276Y-49385070D01*
X74199815Y-49389845D01*
X74199656Y-49404074D01*
X74213143Y-49411781D01*
X74245640Y-49416801D01*
X74259274Y-49418854D01*
X74307499Y-49430939D01*
X74353367Y-49447969D01*
X74372952Y-49457290D01*
X74393445Y-49469247D01*
X74390914Y-49473156D01*
X74365357Y-49469018D01*
X74316768Y-49456832D01*
X74311740Y-49455526D01*
X74263770Y-49445715D01*
X74204638Y-49436790D01*
X74145973Y-49430544D01*
X74124831Y-49428742D01*
X74085473Y-49424487D01*
X74061301Y-49420508D01*
X74056895Y-49417476D01*
X74057326Y-49417328D01*
X74065390Y-49407056D01*
X74058235Y-49383460D01*
X74054982Y-49374579D01*
X74054973Y-49333967D01*
X74074663Y-49290395D01*
X74111890Y-49249272D01*
X74122895Y-49240342D01*
X74152996Y-49222433D01*
X74176676Y-49223412D01*
G37*
G36*
X74203665Y-49466238D02*
G01*
X74237305Y-49475490D01*
X74270326Y-49489728D01*
X74291863Y-49505107D01*
X74293059Y-49510993D01*
X74275434Y-49508979D01*
X74236050Y-49495963D01*
X74204657Y-49483205D01*
X74183419Y-49471837D01*
X74180574Y-49465715D01*
X74203665Y-49466238D01*
G37*
G36*
X73899636Y-50730408D02*
G01*
X73901203Y-50756196D01*
X73901498Y-50762150D01*
X73906082Y-50798592D01*
X73914921Y-50847605D01*
X73926460Y-50900316D01*
X73930738Y-50918320D01*
X73940903Y-50962557D01*
X73947891Y-50995167D01*
X73950386Y-51010115D01*
X73946201Y-51013694D01*
X73935658Y-51000592D01*
X73921728Y-50975303D01*
X73907360Y-50943221D01*
X73895504Y-50909741D01*
X73881975Y-50846580D01*
X73879594Y-50785548D01*
X73889775Y-50737896D01*
X73895636Y-50726687D01*
X73899636Y-50730408D01*
G37*
G36*
X75228207Y-48356531D02*
G01*
X75222549Y-48391225D01*
X75212039Y-48433926D01*
X75195657Y-48489659D01*
X75172384Y-48563449D01*
X75168271Y-48576270D01*
X75141673Y-48658598D01*
X75121962Y-48721767D01*
X75109404Y-48769594D01*
X75104262Y-48805898D01*
X75106801Y-48834497D01*
X75117287Y-48859209D01*
X75135983Y-48883851D01*
X75163156Y-48912242D01*
X75199069Y-48948199D01*
X75204056Y-48953274D01*
X75269917Y-49022180D01*
X75324234Y-49082642D01*
X75364771Y-49132077D01*
X75389292Y-49167903D01*
X75397850Y-49176328D01*
X75415760Y-49176863D01*
X75449195Y-49167983D01*
X75463213Y-49163308D01*
X75489656Y-49152306D01*
X75500149Y-49144341D01*
X75499846Y-49142213D01*
X75493609Y-49122768D01*
X75481850Y-49092804D01*
X75473825Y-49065406D01*
X75466377Y-49016966D01*
X75463550Y-48963691D01*
X75464123Y-48927215D01*
X75466632Y-48902893D01*
X75533403Y-48902893D01*
X75533933Y-48947759D01*
X75544045Y-49014895D01*
X75547179Y-49031075D01*
X75556767Y-49075499D01*
X75565288Y-49108171D01*
X75571197Y-49122946D01*
X75581268Y-49123047D01*
X75608281Y-49117670D01*
X75644317Y-49108328D01*
X75681699Y-49097189D01*
X75693236Y-49093188D01*
X75917599Y-49093188D01*
X75918998Y-49111709D01*
X75933141Y-49144116D01*
X75960692Y-49193434D01*
X75981954Y-49227659D01*
X76016868Y-49273021D01*
X76046151Y-49295497D01*
X76069442Y-49294751D01*
X76083200Y-49274683D01*
X76090785Y-49236015D01*
X76090757Y-49185049D01*
X76082664Y-49127521D01*
X76067405Y-49054323D01*
X76024724Y-49058366D01*
X76021128Y-49058742D01*
X75989687Y-49064940D01*
X75974064Y-49071987D01*
X75970452Y-49073616D01*
X75962038Y-49079060D01*
X75936902Y-49084822D01*
X75928284Y-49085530D01*
X75917599Y-49093188D01*
X75693236Y-49093188D01*
X75712751Y-49086420D01*
X75729795Y-49078186D01*
X75730852Y-49071987D01*
X75721383Y-49049967D01*
X75700558Y-49017566D01*
X75671586Y-48979571D01*
X75637674Y-48940768D01*
X75636055Y-48939048D01*
X75593780Y-48898376D01*
X75562878Y-48878556D01*
X75542902Y-48879944D01*
X75533403Y-48902893D01*
X75466632Y-48902893D01*
X75467676Y-48892767D01*
X75476044Y-48870275D01*
X75491000Y-48852562D01*
X75503487Y-48842194D01*
X75529374Y-48832118D01*
X75565964Y-48834213D01*
X75604612Y-48844822D01*
X75664372Y-48880770D01*
X75718124Y-48938422D01*
X75764196Y-49016242D01*
X75770258Y-49028146D01*
X75789930Y-49055589D01*
X75804921Y-49061145D01*
X75812332Y-49045309D01*
X75809267Y-49008573D01*
X75807572Y-48999283D01*
X75801814Y-48944516D01*
X75801599Y-48888355D01*
X75803513Y-48869651D01*
X75860330Y-48869651D01*
X75863243Y-48906423D01*
X75869915Y-48950624D01*
X75875530Y-48978489D01*
X75887491Y-49014458D01*
X75905673Y-49031127D01*
X75935411Y-49031783D01*
X75982042Y-49019715D01*
X76005887Y-49010815D01*
X76030094Y-48992247D01*
X76033707Y-48967450D01*
X76016672Y-48934222D01*
X75978936Y-48890364D01*
X75937715Y-48852832D01*
X75902205Y-48832047D01*
X75876271Y-48830909D01*
X75861534Y-48849976D01*
X75860330Y-48869651D01*
X75803513Y-48869651D01*
X75806623Y-48839249D01*
X75816583Y-48805650D01*
X75824751Y-48794084D01*
X75845929Y-48782878D01*
X75883042Y-48779827D01*
X75929154Y-48786627D01*
X75987923Y-48816439D01*
X76042859Y-48869322D01*
X76093071Y-48944577D01*
X76093307Y-48944998D01*
X76117535Y-48965253D01*
X76126867Y-48967450D01*
X76156053Y-48974321D01*
X76200688Y-48970253D01*
X76224498Y-48953676D01*
X76244338Y-48920125D01*
X76246282Y-48915415D01*
X76271071Y-48880522D01*
X76304304Y-48867879D01*
X76343850Y-48878381D01*
X76370135Y-48895692D01*
X76394860Y-48929581D01*
X76402547Y-48977382D01*
X76402508Y-48981203D01*
X76391456Y-49021565D01*
X76365049Y-49048799D01*
X76329314Y-49060758D01*
X76290278Y-49055297D01*
X76253967Y-49030271D01*
X76226826Y-49009096D01*
X76198574Y-49007294D01*
X76181378Y-49014102D01*
X76171139Y-49024863D01*
X76167885Y-49029276D01*
X76151112Y-49027572D01*
X76150009Y-49027157D01*
X76138540Y-49025869D01*
X76136248Y-49037619D01*
X76141943Y-49067604D01*
X76143440Y-49074849D01*
X76149191Y-49124742D01*
X76150835Y-49183932D01*
X76148604Y-49236015D01*
X76148378Y-49241303D01*
X76141826Y-49285736D01*
X76137394Y-49296662D01*
X76112879Y-49323978D01*
X76077025Y-49344882D01*
X76039192Y-49353218D01*
X76017485Y-49348770D01*
X75980617Y-49323691D01*
X75939691Y-49275979D01*
X75894121Y-49205033D01*
X75880754Y-49182791D01*
X75856016Y-49145657D01*
X75836178Y-49121042D01*
X75824620Y-49113405D01*
X75819318Y-49117180D01*
X75815842Y-49135146D01*
X75815884Y-49135301D01*
X75819018Y-49155682D01*
X75822802Y-49192441D01*
X75826427Y-49237728D01*
X75827145Y-49248283D01*
X75828878Y-49290858D01*
X75827531Y-49303878D01*
X75825990Y-49318766D01*
X75816743Y-49340056D01*
X75799395Y-49362776D01*
X75769088Y-49390585D01*
X75732366Y-49402119D01*
X75691985Y-49390942D01*
X75645550Y-49356966D01*
X75629874Y-49341989D01*
X75591631Y-49300457D01*
X75560054Y-49260129D01*
X75524425Y-49208343D01*
X75470957Y-49226562D01*
X75417490Y-49244780D01*
X75417388Y-49245999D01*
X75409642Y-49338648D01*
X75403584Y-49402061D01*
X75382042Y-49557778D01*
X75352344Y-49703834D01*
X75315308Y-49838140D01*
X75278450Y-49940083D01*
X75271752Y-49958608D01*
X75222493Y-50063151D01*
X75168349Y-50149680D01*
X75110139Y-50216107D01*
X75048679Y-50260343D01*
X75043729Y-50263497D01*
X75022371Y-50287799D01*
X75005579Y-50321694D01*
X74992229Y-50351919D01*
X74951441Y-50407512D01*
X74897083Y-50453155D01*
X74836308Y-50482070D01*
X74790331Y-50492181D01*
X74717497Y-50498980D01*
X74644098Y-50497351D01*
X74581780Y-50487066D01*
X74580615Y-50486737D01*
X74537110Y-50467404D01*
X74494895Y-50437510D01*
X74461246Y-50403180D01*
X74443435Y-50370542D01*
X74441206Y-50362665D01*
X74430079Y-50344865D01*
X74411109Y-50345412D01*
X74379650Y-50363817D01*
X74350944Y-50381597D01*
X74324568Y-50394451D01*
X74318477Y-50397595D01*
X74315618Y-50406227D01*
X74323916Y-50421920D01*
X74345446Y-50448029D01*
X74382278Y-50487911D01*
X74429084Y-50541458D01*
X74461057Y-50587435D01*
X74469625Y-50608555D01*
X74475045Y-50621915D01*
X74470211Y-50643419D01*
X74465241Y-50645709D01*
X74440885Y-50648336D01*
X74405540Y-50647849D01*
X74368265Y-50644566D01*
X74338118Y-50638803D01*
X74335356Y-50638071D01*
X74320762Y-50641116D01*
X74316768Y-50663160D01*
X74317323Y-50670706D01*
X74317385Y-50671549D01*
X74325720Y-50689855D01*
X74347459Y-50708288D01*
X74387225Y-50731319D01*
X74434727Y-50758108D01*
X74524268Y-50818027D01*
X74598909Y-50881388D01*
X74656948Y-50946127D01*
X74696683Y-51010180D01*
X74716411Y-51071485D01*
X74716061Y-51081459D01*
X74714430Y-51127977D01*
X74698468Y-51159970D01*
X74666283Y-51197988D01*
X74624842Y-51233805D01*
X74580717Y-51260886D01*
X74569224Y-51266419D01*
X74547991Y-51279146D01*
X74544283Y-51290989D01*
X74554446Y-51308578D01*
X74558373Y-51314495D01*
X74571644Y-51351673D01*
X74561899Y-51382563D01*
X74529883Y-51406089D01*
X74476342Y-51421180D01*
X74422419Y-51430030D01*
X74508962Y-51470116D01*
X74558669Y-51495591D01*
X74594292Y-51521111D01*
X74614734Y-51547387D01*
X74616079Y-51550018D01*
X74628754Y-51578411D01*
X74633963Y-51596901D01*
X74628807Y-51610295D01*
X74608950Y-51632228D01*
X74582701Y-51651015D01*
X74559286Y-51658981D01*
X74545446Y-51663572D01*
X74530261Y-51683394D01*
X74530104Y-51683882D01*
X74509073Y-51714651D01*
X74473208Y-51727269D01*
X74424840Y-51720905D01*
X74384620Y-51713205D01*
X74354242Y-51719513D01*
X74324220Y-51729513D01*
X74269191Y-51727024D01*
X74202125Y-51703493D01*
X74122913Y-51658892D01*
X74117644Y-51655495D01*
X74081276Y-51632538D01*
X74054280Y-51616325D01*
X74042168Y-51610182D01*
X74041457Y-51610654D01*
X74043682Y-51625209D01*
X74054100Y-51657185D01*
X74071127Y-51702616D01*
X74093179Y-51757536D01*
X74118675Y-51817980D01*
X74146030Y-51879982D01*
X74173662Y-51939577D01*
X74197036Y-51989202D01*
X74238078Y-52082591D01*
X74266525Y-52161277D01*
X74282368Y-52229495D01*
X74285595Y-52291479D01*
X74276197Y-52351463D01*
X74254163Y-52413683D01*
X74219483Y-52482373D01*
X74172146Y-52561767D01*
X74167031Y-52569864D01*
X74136876Y-52615173D01*
X74100082Y-52667770D01*
X74063472Y-52717859D01*
X74048123Y-52738564D01*
X74022617Y-52774518D01*
X74005942Y-52800233D01*
X74001133Y-52811168D01*
X74003731Y-52812293D01*
X74024712Y-52817673D01*
X74061643Y-52825602D01*
X74108709Y-52834803D01*
X74172940Y-52850168D01*
X74254763Y-52878672D01*
X74332075Y-52914785D01*
X74400979Y-52956105D01*
X74457578Y-53000228D01*
X74497973Y-53044753D01*
X74509408Y-53068715D01*
X74518266Y-53087277D01*
X74521097Y-53112080D01*
X74515177Y-53143001D01*
X74510679Y-53166499D01*
X74479662Y-53219222D01*
X74430480Y-53266766D01*
X74365567Y-53305649D01*
X74340438Y-53316118D01*
X74312966Y-53323496D01*
X74279554Y-53327256D01*
X74234067Y-53328054D01*
X74170370Y-53326546D01*
X74113919Y-53323844D01*
X74039869Y-53315973D01*
X73974707Y-53301674D01*
X73913145Y-53278843D01*
X73849897Y-53245373D01*
X73779677Y-53199160D01*
X73697197Y-53138098D01*
X73679132Y-53123857D01*
X73662171Y-53107952D01*
X73779976Y-53107952D01*
X73783993Y-53114242D01*
X73805025Y-53131121D01*
X73839364Y-53153615D01*
X73881673Y-53178619D01*
X73926614Y-53203030D01*
X73968852Y-53223746D01*
X74003049Y-53237663D01*
X74028775Y-53244848D01*
X74104883Y-53255226D01*
X74190160Y-53254980D01*
X74276512Y-53244876D01*
X74355848Y-53225680D01*
X74420077Y-53198159D01*
X74443511Y-53179158D01*
X74461726Y-53143001D01*
X74458005Y-53102708D01*
X74452032Y-53093988D01*
X74439062Y-53096356D01*
X74414697Y-53114708D01*
X74401444Y-53124167D01*
X74360939Y-53144383D01*
X74316524Y-53158471D01*
X74278328Y-53164926D01*
X74191096Y-53170922D01*
X74095030Y-53168520D01*
X73998273Y-53158407D01*
X73908968Y-53141273D01*
X73835258Y-53117805D01*
X73810841Y-53107733D01*
X73789820Y-53100269D01*
X73781469Y-53100688D01*
X73779976Y-53107952D01*
X73662171Y-53107952D01*
X73621394Y-53069713D01*
X73586031Y-53019150D01*
X73575680Y-52999867D01*
X73558884Y-52974354D01*
X73547460Y-52964361D01*
X73546374Y-52964427D01*
X73527029Y-52968210D01*
X73491878Y-52976651D01*
X73447668Y-52988142D01*
X73340813Y-53012619D01*
X73223393Y-53029658D01*
X73113363Y-53035326D01*
X73013655Y-53029807D01*
X72927200Y-53013283D01*
X72856929Y-52985940D01*
X72805774Y-52947959D01*
X72788730Y-52926501D01*
X72777167Y-52904966D01*
X72883291Y-52904966D01*
X72950390Y-52926816D01*
X72970018Y-52932457D01*
X73033012Y-52944930D01*
X73106267Y-52953755D01*
X73179689Y-52957911D01*
X73243185Y-52956380D01*
X73301317Y-52950871D01*
X73366666Y-52943571D01*
X73427785Y-52935718D01*
X73479658Y-52928007D01*
X73517267Y-52921135D01*
X73535596Y-52915799D01*
X73548250Y-52905505D01*
X73545613Y-52895925D01*
X73520446Y-52891734D01*
X73473502Y-52893026D01*
X73405536Y-52899893D01*
X73382962Y-52902556D01*
X73288422Y-52911295D01*
X73191204Y-52916937D01*
X73097997Y-52919286D01*
X73015495Y-52918144D01*
X72950390Y-52913314D01*
X72883291Y-52904966D01*
X72777167Y-52904966D01*
X72764258Y-52880926D01*
X72749834Y-52833569D01*
X72748994Y-52794014D01*
X72753458Y-52780017D01*
X72779505Y-52740134D01*
X72819458Y-52705609D01*
X72865829Y-52683525D01*
X72866256Y-52683404D01*
X72899906Y-52677373D01*
X72947582Y-52672963D01*
X72999108Y-52671121D01*
X73090687Y-52670676D01*
X73023154Y-52607072D01*
X73017952Y-52602261D01*
X72979197Y-52569147D01*
X72927478Y-52528007D01*
X72868923Y-52483613D01*
X72809658Y-52440738D01*
X72778478Y-52418549D01*
X72682567Y-52345782D01*
X72605421Y-52277925D01*
X72544272Y-52211133D01*
X72496351Y-52141561D01*
X72458890Y-52065366D01*
X72429122Y-51978702D01*
X72404278Y-51877725D01*
X72400281Y-51858783D01*
X72390590Y-51809777D01*
X72383379Y-51765522D01*
X72378280Y-51721161D01*
X72374928Y-51671835D01*
X72372957Y-51612686D01*
X72372000Y-51538855D01*
X72371691Y-51445485D01*
X72371680Y-51399157D01*
X72371730Y-51387616D01*
X72462400Y-51387616D01*
X72466729Y-51529662D01*
X72479323Y-51668930D01*
X72499427Y-51801168D01*
X72526288Y-51922961D01*
X72559150Y-52030892D01*
X72597260Y-52121545D01*
X72639863Y-52191504D01*
X72656172Y-52209295D01*
X72689010Y-52240810D01*
X72733795Y-52281476D01*
X72786872Y-52327980D01*
X72844585Y-52377008D01*
X72898227Y-52422338D01*
X72949428Y-52466553D01*
X72991786Y-52504131D01*
X73021969Y-52532113D01*
X73036648Y-52547543D01*
X73050104Y-52565124D01*
X73075707Y-52596676D01*
X73105658Y-52632308D01*
X73157227Y-52692584D01*
X73038559Y-52706338D01*
X73012594Y-52709460D01*
X72933618Y-52720974D01*
X72875531Y-52733418D01*
X72835582Y-52747487D01*
X72811022Y-52763877D01*
X72799414Y-52784674D01*
X72806439Y-52808981D01*
X72833030Y-52832028D01*
X72876618Y-52852291D01*
X72934632Y-52868252D01*
X73004504Y-52878390D01*
X73033960Y-52880094D01*
X73085903Y-52880989D01*
X73148884Y-52880542D01*
X73218475Y-52878943D01*
X73290245Y-52876383D01*
X73359764Y-52873054D01*
X73422604Y-52869146D01*
X73474333Y-52864851D01*
X73510523Y-52860359D01*
X73526744Y-52855862D01*
X73528181Y-52844735D01*
X73518953Y-52815082D01*
X73498923Y-52771054D01*
X73469798Y-52715850D01*
X73433286Y-52652670D01*
X73391094Y-52584714D01*
X73344930Y-52515180D01*
X73319969Y-52478659D01*
X73288739Y-52431827D01*
X73270102Y-52401599D01*
X73263003Y-52385977D01*
X73266389Y-52382963D01*
X73279208Y-52390559D01*
X73290858Y-52399904D01*
X73321759Y-52428966D01*
X73359455Y-52468050D01*
X73398254Y-52511381D01*
X73458921Y-52585313D01*
X73523742Y-52674330D01*
X73574343Y-52756510D01*
X73609563Y-52829696D01*
X73628240Y-52891728D01*
X73628515Y-52905505D01*
X73629212Y-52940447D01*
X73627113Y-52956719D01*
X73633580Y-52979176D01*
X73657613Y-53000700D01*
X73689819Y-53021389D01*
X73770945Y-53061064D01*
X73864386Y-53093600D01*
X73962073Y-53115943D01*
X74007953Y-53122784D01*
X74096549Y-53131476D01*
X74180307Y-53134139D01*
X74256023Y-53131106D01*
X74320491Y-53122713D01*
X74370508Y-53109293D01*
X74402868Y-53091182D01*
X74414366Y-53068715D01*
X74414123Y-53066193D01*
X74401010Y-53044287D01*
X74371341Y-53016492D01*
X74329901Y-52986758D01*
X74281479Y-52959037D01*
X74247304Y-52943759D01*
X74198145Y-52924710D01*
X74141676Y-52904708D01*
X74083904Y-52885723D01*
X74030834Y-52869725D01*
X73988474Y-52858681D01*
X73962828Y-52854563D01*
X73948834Y-52853679D01*
X73938574Y-52849772D01*
X73939157Y-52848067D01*
X73947708Y-52829966D01*
X73964882Y-52795598D01*
X73988643Y-52749005D01*
X74016954Y-52694225D01*
X74050642Y-52627658D01*
X74085323Y-52556057D01*
X74116559Y-52488713D01*
X74140269Y-52434229D01*
X74140846Y-52432827D01*
X74157250Y-52391808D01*
X74169056Y-52356672D01*
X74175867Y-52323792D01*
X74177290Y-52289539D01*
X74172926Y-52250289D01*
X74162382Y-52202414D01*
X74145261Y-52142287D01*
X74121167Y-52066283D01*
X74089706Y-51970773D01*
X74087717Y-51964758D01*
X74061661Y-51883791D01*
X74037031Y-51803556D01*
X74015460Y-51729637D01*
X73998581Y-51667617D01*
X73988026Y-51623079D01*
X73981154Y-51591176D01*
X73966184Y-51538590D01*
X73947125Y-51496630D01*
X73920220Y-51456033D01*
X73909409Y-51441820D01*
X73885218Y-51414183D01*
X73859640Y-51394521D01*
X73825313Y-51377950D01*
X73774879Y-51359585D01*
X73768566Y-51357415D01*
X73695786Y-51331060D01*
X73643353Y-51308743D01*
X73608172Y-51288729D01*
X73587146Y-51269280D01*
X73580387Y-51255293D01*
X73617473Y-51255293D01*
X73619185Y-51270729D01*
X73622374Y-51272637D01*
X73644734Y-51280759D01*
X73682550Y-51291915D01*
X73729803Y-51304278D01*
X73748478Y-51308855D01*
X73793234Y-51319454D01*
X73826595Y-51326824D01*
X73842432Y-51329587D01*
X73845943Y-51325810D01*
X73850276Y-51304209D01*
X73851390Y-51269835D01*
X73851480Y-51262029D01*
X73889889Y-51262029D01*
X73897730Y-51301289D01*
X73923007Y-51354440D01*
X73962255Y-51413400D01*
X74011890Y-51474430D01*
X74068329Y-51533792D01*
X74127986Y-51587747D01*
X74187277Y-51632557D01*
X74242618Y-51664484D01*
X74290424Y-51679788D01*
X74301994Y-51681053D01*
X74334047Y-51678171D01*
X74357457Y-51661203D01*
X74365200Y-51650934D01*
X74370506Y-51622728D01*
X74352531Y-51593232D01*
X74310822Y-51561478D01*
X74301931Y-51555892D01*
X74275189Y-51537060D01*
X74269725Y-51529372D01*
X74284721Y-51533801D01*
X74319359Y-51551319D01*
X74344108Y-51566925D01*
X74382645Y-51606756D01*
X74407214Y-51662031D01*
X74421879Y-51678247D01*
X74455378Y-51683381D01*
X74473985Y-51682277D01*
X74500334Y-51672187D01*
X74505766Y-51652562D01*
X74490771Y-51624625D01*
X74455837Y-51589596D01*
X74401455Y-51548700D01*
X74397534Y-51546030D01*
X74362840Y-51521671D01*
X74338286Y-51503139D01*
X74328968Y-51494263D01*
X74336112Y-51493165D01*
X74358878Y-51501098D01*
X74391552Y-51516113D01*
X74428223Y-51535272D01*
X74462977Y-51555635D01*
X74489900Y-51574262D01*
X74529675Y-51601091D01*
X74560281Y-51609380D01*
X74579622Y-51597079D01*
X74579909Y-51596591D01*
X74577533Y-51577005D01*
X74554105Y-51550369D01*
X74511344Y-51518217D01*
X74450966Y-51482084D01*
X74445403Y-51479005D01*
X74401137Y-51452567D01*
X74363257Y-51426859D01*
X74339442Y-51407049D01*
X74312515Y-51378386D01*
X74380946Y-51378386D01*
X74383949Y-51378377D01*
X74442719Y-51373811D01*
X74487321Y-51361980D01*
X74515200Y-51344453D01*
X74523805Y-51322801D01*
X74510583Y-51298597D01*
X74506837Y-51295296D01*
X74493543Y-51289379D01*
X74471777Y-51288103D01*
X74436387Y-51291512D01*
X74382221Y-51299648D01*
X74358091Y-51303404D01*
X74308733Y-51310266D01*
X74269769Y-51314587D01*
X74248023Y-51315559D01*
X74210282Y-51313580D01*
X74186354Y-51318608D01*
X74177509Y-51334545D01*
X74179044Y-51364744D01*
X74179803Y-51371599D01*
X74179287Y-51408139D01*
X74172154Y-51434893D01*
X74170423Y-51437776D01*
X74163214Y-51444719D01*
X74159654Y-51433342D01*
X74158541Y-51400621D01*
X74156755Y-51368909D01*
X74147754Y-51340842D01*
X74127794Y-51319663D01*
X74097417Y-51295769D01*
X74124744Y-51288445D01*
X74126558Y-51287982D01*
X74158830Y-51283068D01*
X74197219Y-51280954D01*
X74230765Y-51279083D01*
X74295073Y-51269496D01*
X74366585Y-51253429D01*
X74439016Y-51232749D01*
X74506076Y-51209321D01*
X74561480Y-51185014D01*
X74598938Y-51161692D01*
X74604460Y-51156864D01*
X74630383Y-51129292D01*
X74645930Y-51104885D01*
X74649644Y-51081459D01*
X74638441Y-51038054D01*
X74608317Y-50988226D01*
X74561365Y-50934023D01*
X74499678Y-50877495D01*
X74425350Y-50820692D01*
X74340474Y-50765663D01*
X74247143Y-50714457D01*
X74236479Y-50709149D01*
X74195588Y-50689635D01*
X74164203Y-50675955D01*
X74148407Y-50670797D01*
X74135831Y-50676968D01*
X74113942Y-50700671D01*
X74089356Y-50736835D01*
X74065846Y-50779755D01*
X74047190Y-50823725D01*
X74041071Y-50844216D01*
X74031987Y-50889124D01*
X74025923Y-50938126D01*
X74023400Y-50984235D01*
X74024940Y-51020461D01*
X74031065Y-51039817D01*
X74035555Y-51040877D01*
X74057312Y-51036169D01*
X74089014Y-51023819D01*
X74091534Y-51022679D01*
X74132829Y-51005751D01*
X74153400Y-51001155D01*
X74153219Y-51008328D01*
X74132261Y-51026710D01*
X74090499Y-51055737D01*
X74048079Y-51084734D01*
X73981724Y-51136489D01*
X73931941Y-51184625D01*
X73900680Y-51227140D01*
X73889889Y-51262029D01*
X73851480Y-51262029D01*
X73851690Y-51243808D01*
X73857681Y-51209486D01*
X73873563Y-51179456D01*
X73902882Y-51147888D01*
X73949179Y-51108953D01*
X73985411Y-51077571D01*
X74003349Y-51054818D01*
X74004672Y-51038250D01*
X74001073Y-51025875D01*
X73995259Y-50992669D01*
X73990661Y-50951393D01*
X73989801Y-50918924D01*
X74003917Y-50835065D01*
X74040577Y-50754088D01*
X74098485Y-50679267D01*
X74100932Y-50676722D01*
X74129245Y-50646389D01*
X74132941Y-50642115D01*
X74186031Y-50642115D01*
X74194652Y-50654338D01*
X74217768Y-50667929D01*
X74246667Y-50679383D01*
X74272637Y-50685198D01*
X74286965Y-50681870D01*
X74289531Y-50670706D01*
X74286020Y-50645614D01*
X74281287Y-50634945D01*
X74265596Y-50624702D01*
X74234326Y-50624373D01*
X74228525Y-50624979D01*
X74200069Y-50631661D01*
X74186210Y-50641358D01*
X74186031Y-50642115D01*
X74132941Y-50642115D01*
X74148530Y-50624090D01*
X74154734Y-50614494D01*
X74143408Y-50611953D01*
X74112478Y-50606898D01*
X74066885Y-50600155D01*
X74011530Y-50592476D01*
X73871475Y-50573606D01*
X73830870Y-50619151D01*
X73819058Y-50633467D01*
X73782429Y-50689151D01*
X73745389Y-50760122D01*
X73711101Y-50839917D01*
X73682725Y-50922070D01*
X73677144Y-50941477D01*
X73663377Y-50995395D01*
X73649937Y-51055259D01*
X73637725Y-51116124D01*
X73627643Y-51173047D01*
X73620592Y-51221085D01*
X73617473Y-51255293D01*
X73580387Y-51255293D01*
X73577181Y-51248659D01*
X73575740Y-51241886D01*
X73572633Y-51196225D01*
X73575671Y-51136154D01*
X73583984Y-51069091D01*
X73596701Y-51002452D01*
X73612952Y-50943657D01*
X73616642Y-50933159D01*
X73643593Y-50868979D01*
X73679006Y-50798597D01*
X73718739Y-50729318D01*
X73758653Y-50668447D01*
X73794604Y-50623286D01*
X73804846Y-50611752D01*
X73821294Y-50589270D01*
X73824762Y-50577318D01*
X73817785Y-50574191D01*
X73790993Y-50565879D01*
X73749406Y-50554576D01*
X73698412Y-50541797D01*
X73578680Y-50512893D01*
X73538100Y-50558296D01*
X73515158Y-50586497D01*
X73482958Y-50631110D01*
X73453259Y-50676897D01*
X73445677Y-50689360D01*
X73415139Y-50738747D01*
X73379508Y-50795498D01*
X73345019Y-50849658D01*
X73281043Y-50949219D01*
X73124866Y-50888682D01*
X73054599Y-50861440D01*
X72972335Y-50829171D01*
X72908840Y-50803070D01*
X72861803Y-50781502D01*
X72828918Y-50762831D01*
X72807875Y-50745423D01*
X72796366Y-50727642D01*
X72793426Y-50714056D01*
X72848921Y-50714056D01*
X72849287Y-50731023D01*
X72855396Y-50743511D01*
X72870790Y-50753752D01*
X72899015Y-50763983D01*
X72943615Y-50776439D01*
X73008134Y-50793353D01*
X73013576Y-50794817D01*
X73072218Y-50813803D01*
X73130786Y-50837516D01*
X73177360Y-50861175D01*
X73212058Y-50881428D01*
X73240472Y-50896738D01*
X73254432Y-50902593D01*
X73259753Y-50898157D01*
X73273616Y-50877130D01*
X73290778Y-50844644D01*
X73321308Y-50789353D01*
X73369616Y-50716178D01*
X73426860Y-50640212D01*
X73487958Y-50568571D01*
X73518984Y-50532364D01*
X73535882Y-50506138D01*
X73534096Y-50494967D01*
X73533623Y-50494819D01*
X73514822Y-50489024D01*
X73478102Y-50477772D01*
X73428557Y-50462622D01*
X73371283Y-50445133D01*
X73319489Y-50428817D01*
X73245181Y-50404079D01*
X73174033Y-50379089D01*
X73116191Y-50357338D01*
X73007496Y-50314215D01*
X72984784Y-50343058D01*
X72978364Y-50351877D01*
X72954870Y-50390908D01*
X72928184Y-50442334D01*
X72902081Y-50498208D01*
X72880340Y-50550579D01*
X72866737Y-50591498D01*
X72865066Y-50598410D01*
X72856147Y-50646262D01*
X72850511Y-50693960D01*
X72848921Y-50714056D01*
X72793426Y-50714056D01*
X72792083Y-50707853D01*
X72792717Y-50684422D01*
X72795959Y-50655713D01*
X72797766Y-50642879D01*
X72821164Y-50560359D01*
X72864631Y-50472284D01*
X72926315Y-50382532D01*
X72987766Y-50304338D01*
X72948736Y-50255771D01*
X72934061Y-50238281D01*
X72912784Y-50215942D01*
X72900524Y-50207204D01*
X72894299Y-50209879D01*
X72873610Y-50227980D01*
X72844236Y-50259582D01*
X72809684Y-50300462D01*
X72773462Y-50346399D01*
X72739076Y-50393170D01*
X72710035Y-50436550D01*
X72698660Y-50455064D01*
X72615182Y-50615919D01*
X72549227Y-50791868D01*
X72501385Y-50980645D01*
X72472246Y-51179983D01*
X72462400Y-51387616D01*
X72371730Y-51387616D01*
X72372039Y-51316202D01*
X72373218Y-51250620D01*
X72375576Y-51197632D01*
X72379472Y-51152457D01*
X72385265Y-51110316D01*
X72393314Y-51066430D01*
X72403979Y-51016019D01*
X72411485Y-50983612D01*
X72443242Y-50870107D01*
X72483086Y-50753999D01*
X72527744Y-50644269D01*
X72573940Y-50549897D01*
X72610113Y-50483895D01*
X72573848Y-50415699D01*
X72537845Y-50342971D01*
X72497152Y-50251733D01*
X72456135Y-50151931D01*
X72417922Y-50051184D01*
X72385640Y-49957108D01*
X72377982Y-49932592D01*
X72359007Y-49867388D01*
X72339669Y-49795694D01*
X72321163Y-49722496D01*
X72304687Y-49652780D01*
X72291436Y-49591534D01*
X72282609Y-49543743D01*
X72279400Y-49514394D01*
X72279399Y-49513888D01*
X72275548Y-49482045D01*
X72266236Y-49460880D01*
X72254457Y-49457252D01*
X72249346Y-49458055D01*
X72224141Y-49455940D01*
X72183994Y-49449518D01*
X72134810Y-49439657D01*
X72091954Y-49430898D01*
X72039703Y-49423347D01*
X71994901Y-49422246D01*
X71948028Y-49426946D01*
X71914433Y-49431665D01*
X71863570Y-49437156D01*
X71827897Y-49436622D01*
X71801552Y-49428854D01*
X71778674Y-49412641D01*
X71753399Y-49386773D01*
X71727988Y-49353940D01*
X71707256Y-49306105D01*
X71707304Y-49297778D01*
X71733763Y-49297778D01*
X71744532Y-49325035D01*
X71746222Y-49327043D01*
X71758890Y-49336071D01*
X71769748Y-49323489D01*
X71779096Y-49311086D01*
X71817019Y-49286381D01*
X71875485Y-49268646D01*
X71952284Y-49258666D01*
X71959559Y-49258157D01*
X72007296Y-49253696D01*
X72038093Y-49247279D01*
X72058598Y-49236837D01*
X72075459Y-49220299D01*
X72104222Y-49193978D01*
X72139102Y-49172526D01*
X72153144Y-49167300D01*
X72156120Y-49170237D01*
X72142596Y-49185001D01*
X72111360Y-49213378D01*
X72083320Y-49237199D01*
X72051770Y-49258759D01*
X72021998Y-49269776D01*
X71985245Y-49274495D01*
X71962302Y-49276800D01*
X71908502Y-49286698D01*
X71857161Y-49301293D01*
X71815560Y-49318298D01*
X71790982Y-49335431D01*
X71784422Y-49346980D01*
X71783040Y-49370007D01*
X71786355Y-49374097D01*
X71800170Y-49379682D01*
X71826881Y-49384085D01*
X71869364Y-49387592D01*
X71930496Y-49390494D01*
X72013151Y-49393077D01*
X72106423Y-49396474D01*
X72193359Y-49402201D01*
X72257073Y-49409920D01*
X72298162Y-49419738D01*
X72317225Y-49431760D01*
X72314859Y-49446090D01*
X72312358Y-49450524D01*
X72310250Y-49479169D01*
X72317683Y-49526290D01*
X72333699Y-49589232D01*
X72357337Y-49665342D01*
X72387639Y-49751966D01*
X72423643Y-49846449D01*
X72464392Y-49946139D01*
X72508924Y-50048380D01*
X72556282Y-50150520D01*
X72605504Y-50249904D01*
X72614913Y-50268061D01*
X72639069Y-50313150D01*
X72659640Y-50349518D01*
X72672963Y-50370613D01*
X72684871Y-50384588D01*
X72695331Y-50384216D01*
X72710568Y-50364849D01*
X72721163Y-50342598D01*
X72728522Y-50302599D01*
X72730621Y-50247958D01*
X72756588Y-50247958D01*
X72761145Y-50273663D01*
X72774533Y-50277854D01*
X72798307Y-50260926D01*
X72834023Y-50223276D01*
X72882354Y-50168447D01*
X72850275Y-50111911D01*
X72837293Y-50090287D01*
X72818636Y-50063530D01*
X72806380Y-50051436D01*
X72802320Y-50051454D01*
X72789710Y-50066154D01*
X72777376Y-50099401D01*
X72766667Y-50146850D01*
X72758934Y-50204154D01*
X72756588Y-50247958D01*
X72730621Y-50247958D01*
X72730793Y-50243485D01*
X72731061Y-50218701D01*
X72734807Y-50169048D01*
X72744708Y-50128542D01*
X72762972Y-50086422D01*
X72795150Y-50021847D01*
X72761249Y-49950917D01*
X72746074Y-49915383D01*
X72739673Y-49894973D01*
X72755193Y-49894973D01*
X72755317Y-49896202D01*
X72764290Y-49915309D01*
X72784966Y-49947733D01*
X72813853Y-49988672D01*
X72847459Y-50033324D01*
X72882292Y-50076885D01*
X72914861Y-50114555D01*
X72937058Y-50137950D01*
X72971670Y-50168447D01*
X73024698Y-50215171D01*
X73127216Y-50283030D01*
X73249285Y-50344742D01*
X73300513Y-50366878D01*
X73496305Y-50438801D01*
X73713516Y-50500161D01*
X73741589Y-50506138D01*
X73952365Y-50551014D01*
X74213070Y-50591415D01*
X74270089Y-50598994D01*
X74323713Y-50606502D01*
X74365039Y-50612698D01*
X74375342Y-50614494D01*
X74388111Y-50616720D01*
X74398080Y-50618570D01*
X74409283Y-50617564D01*
X74409607Y-50608555D01*
X74397730Y-50588972D01*
X74372331Y-50556249D01*
X74332088Y-50507817D01*
X74255910Y-50417325D01*
X74039293Y-50411300D01*
X73964820Y-50408766D01*
X73886689Y-50404433D01*
X73823292Y-50398378D01*
X73769198Y-50390052D01*
X73718977Y-50378908D01*
X73646993Y-50356860D01*
X73552678Y-50320072D01*
X73455615Y-50275251D01*
X73364462Y-50226437D01*
X73287877Y-50177672D01*
X73278796Y-50171001D01*
X73240886Y-50140330D01*
X73198143Y-50102447D01*
X73154454Y-50061206D01*
X73113706Y-50020463D01*
X73079788Y-49984073D01*
X73056586Y-49955892D01*
X73047988Y-49939773D01*
X73046318Y-49934769D01*
X73026447Y-49921759D01*
X72986833Y-49909996D01*
X72930867Y-49900322D01*
X72861941Y-49893579D01*
X72839882Y-49892280D01*
X72796494Y-49890989D01*
X72766433Y-49891910D01*
X72755193Y-49894973D01*
X72739673Y-49894973D01*
X72735572Y-49881897D01*
X72734125Y-49862325D01*
X72737939Y-49857126D01*
X72760679Y-49845094D01*
X72794583Y-49836310D01*
X72830161Y-49832759D01*
X72857921Y-49836426D01*
X72869009Y-49838192D01*
X72877191Y-49826664D01*
X72869907Y-49810497D01*
X72849365Y-49778326D01*
X72817756Y-49733128D01*
X72777270Y-49677844D01*
X72730096Y-49615415D01*
X72678427Y-49548783D01*
X72624451Y-49480889D01*
X72570360Y-49414673D01*
X72546022Y-49384899D01*
X72505573Y-49331243D01*
X72482129Y-49290499D01*
X72475470Y-49259742D01*
X72485375Y-49236051D01*
X72511624Y-49216501D01*
X72553994Y-49198169D01*
X72588374Y-49183062D01*
X72613224Y-49162451D01*
X72616116Y-49138491D01*
X72598410Y-49108433D01*
X72574365Y-49088914D01*
X72531577Y-49078587D01*
X72481278Y-49086365D01*
X72428418Y-49112139D01*
X72414568Y-49120870D01*
X72386378Y-49134017D01*
X72374022Y-49130791D01*
X72372988Y-49129267D01*
X72354657Y-49122671D01*
X72317749Y-49117400D01*
X72267060Y-49113578D01*
X72207389Y-49111329D01*
X72143534Y-49110776D01*
X72080292Y-49112042D01*
X72022461Y-49115251D01*
X71974839Y-49120525D01*
X71934027Y-49127612D01*
X71873608Y-49142778D01*
X71835433Y-49160470D01*
X71818124Y-49181222D01*
X71817078Y-49188231D01*
X71826245Y-49193587D01*
X71853823Y-49189909D01*
X71856836Y-49189328D01*
X71891665Y-49184526D01*
X71940127Y-49179848D01*
X71992705Y-49176231D01*
X72090303Y-49170969D01*
X71990841Y-49187557D01*
X71916051Y-49201995D01*
X71838537Y-49222914D01*
X71781697Y-49246198D01*
X71746462Y-49271326D01*
X71733763Y-49297778D01*
X71707304Y-49297778D01*
X71707502Y-49263013D01*
X71728456Y-49227659D01*
X71769852Y-49203036D01*
X71780557Y-49196274D01*
X71785230Y-49179832D01*
X71783235Y-49169899D01*
X71791427Y-49148775D01*
X71818887Y-49122953D01*
X71835724Y-49113036D01*
X71881962Y-49097699D01*
X71944248Y-49085853D01*
X72017336Y-49077837D01*
X72095974Y-49073994D01*
X72174914Y-49074663D01*
X72248907Y-49080186D01*
X72312702Y-49090903D01*
X72327262Y-49094314D01*
X72363707Y-49101684D01*
X72387739Y-49102104D01*
X72408056Y-49094681D01*
X72433352Y-49078523D01*
X72435595Y-49077024D01*
X72487171Y-49053643D01*
X72538885Y-49048048D01*
X72586145Y-49058410D01*
X72624361Y-49082900D01*
X72648940Y-49119689D01*
X72655292Y-49166946D01*
X72654782Y-49172937D01*
X72651019Y-49196173D01*
X72641076Y-49210334D01*
X72619109Y-49220359D01*
X72579273Y-49231186D01*
X72546127Y-49241044D01*
X72515797Y-49253563D01*
X72502253Y-49264035D01*
X72502142Y-49266258D01*
X72511086Y-49284846D01*
X72532473Y-49314335D01*
X72562564Y-49349434D01*
X72565221Y-49352329D01*
X72601539Y-49392172D01*
X72635268Y-49429620D01*
X72659416Y-49456916D01*
X72689308Y-49491425D01*
X72748373Y-49560017D01*
X72795323Y-49615335D01*
X72833007Y-49660855D01*
X72864278Y-49700053D01*
X72891987Y-49736407D01*
X72918986Y-49773392D01*
X72937231Y-49798605D01*
X72958054Y-49826664D01*
X72962850Y-49833126D01*
X72980448Y-49855670D01*
X72986989Y-49862266D01*
X72983936Y-49852990D01*
X72973077Y-49826820D01*
X72957064Y-49790835D01*
X72951285Y-49777910D01*
X72912903Y-49670525D01*
X72893347Y-49568302D01*
X72892970Y-49477481D01*
X72988374Y-49477481D01*
X72989425Y-49552935D01*
X72989713Y-49560509D01*
X72993791Y-49629667D01*
X73000916Y-49684966D01*
X73012753Y-49736012D01*
X73030969Y-49792411D01*
X73057008Y-49859615D01*
X73095748Y-49937092D01*
X73142159Y-50004012D01*
X73199460Y-50063594D01*
X73270869Y-50119058D01*
X73359603Y-50173624D01*
X73468881Y-50230510D01*
X73514124Y-50252435D01*
X73604232Y-50293852D01*
X73680290Y-50324602D01*
X73747027Y-50346077D01*
X73809168Y-50359669D01*
X73871442Y-50366769D01*
X73938574Y-50368768D01*
X73942383Y-50368757D01*
X74056718Y-50363480D01*
X74166096Y-50349287D01*
X74265773Y-50327220D01*
X74351005Y-50298322D01*
X74417048Y-50263636D01*
X74457258Y-50236348D01*
X74452993Y-50281076D01*
X74458843Y-50325389D01*
X74485500Y-50369671D01*
X74529880Y-50406754D01*
X74588526Y-50432769D01*
X74620471Y-50440776D01*
X74698543Y-50448488D01*
X74772537Y-50440399D01*
X74839151Y-50418317D01*
X74895082Y-50384050D01*
X74937028Y-50339407D01*
X74961687Y-50286194D01*
X74965757Y-50226222D01*
X74964951Y-50220414D01*
X74945441Y-50169492D01*
X74907582Y-50129346D01*
X74855544Y-50102233D01*
X74793496Y-50090412D01*
X74725608Y-50096142D01*
X74699156Y-50101887D01*
X74661311Y-50108999D01*
X74631668Y-50111404D01*
X74599990Y-50109576D01*
X74556039Y-50103989D01*
X74484214Y-50094176D01*
X74492171Y-49990652D01*
X74496241Y-49950803D01*
X74523502Y-49820617D01*
X74570275Y-49696321D01*
X74634448Y-49581277D01*
X74713908Y-49478846D01*
X74806544Y-49392390D01*
X74910243Y-49325271D01*
X74932071Y-49314061D01*
X74975736Y-49292738D01*
X75000350Y-49282598D01*
X75005294Y-49283714D01*
X74989947Y-49296162D01*
X74953691Y-49320016D01*
X74866591Y-49384411D01*
X74769278Y-49482552D01*
X74682569Y-49601146D01*
X74607538Y-49738894D01*
X74587620Y-49784953D01*
X74566068Y-49842058D01*
X74546405Y-49900887D01*
X74530057Y-49956558D01*
X74518444Y-50004192D01*
X74512991Y-50038909D01*
X74515120Y-50055829D01*
X74521456Y-50056375D01*
X74545007Y-50046678D01*
X74581218Y-50025862D01*
X74626054Y-49996486D01*
X74675481Y-49961114D01*
X74725462Y-49922306D01*
X74752594Y-49900652D01*
X74768913Y-49889099D01*
X74769754Y-49892077D01*
X74756784Y-49908870D01*
X74756088Y-49909710D01*
X74731665Y-49936832D01*
X74696938Y-49972701D01*
X74659185Y-50009788D01*
X74591264Y-50074668D01*
X74658363Y-50069972D01*
X74693412Y-50064946D01*
X74757862Y-50047674D01*
X74829160Y-50020810D01*
X74932858Y-49976344D01*
X74887117Y-50013653D01*
X74869466Y-50029185D01*
X74850851Y-50053314D01*
X74854388Y-50068029D01*
X74880114Y-50073006D01*
X74898182Y-50079368D01*
X74927629Y-50099480D01*
X74959544Y-50127473D01*
X74987100Y-50157272D01*
X75003474Y-50182805D01*
X75004350Y-50184524D01*
X75016741Y-50185931D01*
X75037192Y-50170587D01*
X75062169Y-50142404D01*
X75088138Y-50105294D01*
X75111563Y-50063169D01*
X75127011Y-50012378D01*
X75134324Y-49940083D01*
X75133030Y-49850104D01*
X75123275Y-49744995D01*
X75105209Y-49627314D01*
X75078978Y-49499615D01*
X75069157Y-49456025D01*
X75053697Y-49384094D01*
X75040430Y-49318347D01*
X75030519Y-49264632D01*
X75025127Y-49228797D01*
X75021230Y-49198980D01*
X75015307Y-49167138D01*
X75009992Y-49151789D01*
X75007600Y-49150598D01*
X74986210Y-49144001D01*
X74945903Y-49133242D01*
X74890254Y-49119226D01*
X74822837Y-49102863D01*
X74747225Y-49085059D01*
X74608260Y-49051742D01*
X74414293Y-49001049D01*
X74241734Y-48950501D01*
X74090909Y-48900253D01*
X73962144Y-48850463D01*
X73855767Y-48801287D01*
X73772105Y-48752882D01*
X73711485Y-48705403D01*
X73674234Y-48659009D01*
X73660679Y-48613854D01*
X73671147Y-48570096D01*
X73684232Y-48550093D01*
X73702459Y-48532175D01*
X73709525Y-48527786D01*
X73719960Y-48518470D01*
X73718783Y-48510267D01*
X73703506Y-48502140D01*
X73671639Y-48493050D01*
X73620693Y-48481959D01*
X73548180Y-48467830D01*
X73517681Y-48462031D01*
X73517389Y-48605679D01*
X73516605Y-48652437D01*
X73509116Y-48745634D01*
X73491930Y-48830129D01*
X73462871Y-48914901D01*
X73419768Y-49008925D01*
X73380406Y-49077115D01*
X73331783Y-49134589D01*
X73276298Y-49172887D01*
X73210833Y-49194784D01*
X73195570Y-49198103D01*
X73154551Y-49211148D01*
X73121087Y-49231796D01*
X73084313Y-49266176D01*
X73061456Y-49290433D01*
X73027402Y-49332644D01*
X73005267Y-49373668D01*
X72992956Y-49419836D01*
X72988374Y-49477481D01*
X72892970Y-49477481D01*
X72892957Y-49474252D01*
X72912071Y-49391388D01*
X72918358Y-49375721D01*
X72964180Y-49294852D01*
X73024713Y-49232797D01*
X73098780Y-49190512D01*
X73185205Y-49168955D01*
X73215538Y-49163913D01*
X73254960Y-49152728D01*
X73279787Y-49139719D01*
X73301353Y-49113221D01*
X73328564Y-49068307D01*
X73357566Y-49011847D01*
X73385484Y-48949844D01*
X73409443Y-48888301D01*
X73426567Y-48833222D01*
X73441741Y-48755538D01*
X73449138Y-48628428D01*
X73447974Y-48571900D01*
X73444848Y-48518391D01*
X73438710Y-48481856D01*
X73428294Y-48458141D01*
X73412340Y-48443091D01*
X73389583Y-48432551D01*
X73328868Y-48408243D01*
X73260430Y-48372262D01*
X73215731Y-48335742D01*
X73194936Y-48298892D01*
X73197181Y-48273535D01*
X73261485Y-48273535D01*
X73263752Y-48278483D01*
X73283806Y-48294856D01*
X73321788Y-48317275D01*
X73374286Y-48344050D01*
X73437891Y-48373493D01*
X73509192Y-48403915D01*
X73584780Y-48433627D01*
X73618657Y-48446248D01*
X73676981Y-48466736D01*
X73724609Y-48480555D01*
X73769577Y-48489484D01*
X73819920Y-48495301D01*
X73883675Y-48499786D01*
X74005885Y-48511942D01*
X74166735Y-48544805D01*
X74326859Y-48598241D01*
X74372972Y-48617059D01*
X74410928Y-48634224D01*
X74427511Y-48644200D01*
X74422402Y-48646514D01*
X74395281Y-48640697D01*
X74345831Y-48626276D01*
X74338857Y-48624133D01*
X74247813Y-48599808D01*
X74146399Y-48578226D01*
X74042933Y-48560804D01*
X73945735Y-48548957D01*
X73863123Y-48544101D01*
X73808751Y-48544356D01*
X73772581Y-48547379D01*
X73748957Y-48554140D01*
X73731975Y-48565608D01*
X73718240Y-48578864D01*
X73708826Y-48595804D01*
X73715016Y-48614711D01*
X73737357Y-48643499D01*
X73740757Y-48647361D01*
X73781307Y-48681238D01*
X73844207Y-48719530D01*
X73928099Y-48761695D01*
X74031622Y-48807192D01*
X74153419Y-48855479D01*
X74292131Y-48906014D01*
X74446399Y-48958256D01*
X74614865Y-49011661D01*
X74796169Y-49065690D01*
X74841500Y-49078715D01*
X74901584Y-49095692D01*
X74950708Y-49109227D01*
X74984718Y-49118183D01*
X74999464Y-49121421D01*
X75001504Y-49119321D01*
X75005278Y-49099438D01*
X75007247Y-49063064D01*
X75007068Y-49026873D01*
X75061084Y-49026873D01*
X75062503Y-49063064D01*
X75062588Y-49065234D01*
X75068939Y-49125054D01*
X75080639Y-49199186D01*
X75098099Y-49289895D01*
X75121726Y-49399449D01*
X75151931Y-49530115D01*
X75161099Y-49570839D01*
X75174422Y-49637349D01*
X75185028Y-49699099D01*
X75191206Y-49746662D01*
X75191296Y-49747648D01*
X75196332Y-49788672D01*
X75202315Y-49817881D01*
X75207970Y-49829010D01*
X75209615Y-49828409D01*
X75220063Y-49812358D01*
X75234870Y-49777334D01*
X75252908Y-49727202D01*
X75273049Y-49665825D01*
X75294165Y-49597069D01*
X75315127Y-49524799D01*
X75334807Y-49452880D01*
X75352078Y-49385175D01*
X75365811Y-49325550D01*
X75374878Y-49277870D01*
X75378151Y-49245999D01*
X75375227Y-49232018D01*
X75359680Y-49200458D01*
X75354801Y-49193713D01*
X75600083Y-49193713D01*
X75601960Y-49207707D01*
X75616296Y-49236349D01*
X75640023Y-49271357D01*
X75668843Y-49306530D01*
X75698460Y-49335666D01*
X75714479Y-49348623D01*
X75738714Y-49362823D01*
X75755066Y-49359616D01*
X75769461Y-49339307D01*
X75770900Y-49336234D01*
X75776745Y-49303878D01*
X75775866Y-49258542D01*
X75768925Y-49209179D01*
X75756581Y-49164741D01*
X75745584Y-49135817D01*
X75675227Y-49157585D01*
X75643417Y-49168781D01*
X75613494Y-49182711D01*
X75600083Y-49193713D01*
X75354801Y-49193713D01*
X75335221Y-49166644D01*
X75313594Y-49143666D01*
X75279307Y-49110628D01*
X75238001Y-49072881D01*
X75193808Y-49033994D01*
X75150864Y-48997535D01*
X75113303Y-48967075D01*
X75085257Y-48946182D01*
X75070862Y-48938424D01*
X75070194Y-48938625D01*
X75065535Y-48952516D01*
X75062275Y-48983953D01*
X75061084Y-49026873D01*
X75007068Y-49026873D01*
X75007013Y-49015736D01*
X75005965Y-48984673D01*
X75003130Y-48943218D01*
X74997797Y-48916771D01*
X74988407Y-48899254D01*
X74973402Y-48884588D01*
X74950524Y-48865598D01*
X74865499Y-48796008D01*
X74775450Y-48723657D01*
X74682381Y-48650049D01*
X74588297Y-48576685D01*
X74495204Y-48505068D01*
X74464733Y-48481946D01*
X74591430Y-48481946D01*
X74593325Y-48498530D01*
X74603897Y-48506894D01*
X74630516Y-48527478D01*
X74668423Y-48556575D01*
X74713262Y-48590832D01*
X74741024Y-48612139D01*
X74802809Y-48660275D01*
X74865043Y-48709534D01*
X74917737Y-48752039D01*
X74933578Y-48764988D01*
X74971295Y-48795165D01*
X74995293Y-48812124D01*
X75009383Y-48817660D01*
X75017374Y-48813565D01*
X75023076Y-48801634D01*
X75039789Y-48758118D01*
X75086366Y-48639734D01*
X75126106Y-48543546D01*
X75159346Y-48468732D01*
X75180667Y-48415814D01*
X75199403Y-48334201D01*
X75198951Y-48260428D01*
X75180133Y-48196764D01*
X75143774Y-48145479D01*
X75090694Y-48108841D01*
X75021717Y-48089120D01*
X75008532Y-48087807D01*
X74940982Y-48095753D01*
X74870766Y-48127794D01*
X74798129Y-48183829D01*
X74769228Y-48212774D01*
X74729871Y-48258173D01*
X74690991Y-48308600D01*
X74655148Y-48360124D01*
X74624901Y-48408810D01*
X74602808Y-48450729D01*
X74591430Y-48481946D01*
X74464733Y-48481946D01*
X74405105Y-48436699D01*
X74320007Y-48373080D01*
X74241913Y-48315715D01*
X74172829Y-48266104D01*
X74114759Y-48225751D01*
X74069708Y-48196158D01*
X74039682Y-48178825D01*
X74026685Y-48175257D01*
X74026187Y-48178137D01*
X74032856Y-48196583D01*
X74048372Y-48224736D01*
X74055112Y-48236187D01*
X74067376Y-48261812D01*
X74069297Y-48274977D01*
X74058972Y-48273707D01*
X74032904Y-48262909D01*
X73997756Y-48244691D01*
X73971174Y-48230690D01*
X73917739Y-48205613D01*
X73855101Y-48178901D01*
X73787215Y-48151960D01*
X73718033Y-48126198D01*
X73651507Y-48103021D01*
X73591592Y-48083837D01*
X73542240Y-48070053D01*
X73507405Y-48063076D01*
X73491038Y-48064314D01*
X73492298Y-48068741D01*
X73508061Y-48083308D01*
X73536219Y-48102888D01*
X73556089Y-48116285D01*
X73599630Y-48149245D01*
X73639851Y-48183497D01*
X73663989Y-48203452D01*
X73719953Y-48236900D01*
X73794007Y-48266946D01*
X73819286Y-48275788D01*
X73860635Y-48291097D01*
X73878617Y-48299567D01*
X73873214Y-48301386D01*
X73844406Y-48296744D01*
X73792176Y-48285826D01*
X73743049Y-48276760D01*
X73677212Y-48267570D01*
X73603794Y-48259505D01*
X73528083Y-48252959D01*
X73455368Y-48248325D01*
X73390938Y-48245996D01*
X73340080Y-48246365D01*
X73308083Y-48249826D01*
X73298583Y-48252429D01*
X73272116Y-48263174D01*
X73261485Y-48273535D01*
X73197181Y-48273535D01*
X73198209Y-48261920D01*
X73225715Y-48225035D01*
X73241427Y-48213724D01*
X73289110Y-48195716D01*
X73353168Y-48185616D01*
X73428892Y-48183978D01*
X73511573Y-48191358D01*
X73520199Y-48192567D01*
X73563005Y-48197845D01*
X73594187Y-48200503D01*
X73607501Y-48199981D01*
X73607093Y-48198618D01*
X73592871Y-48186713D01*
X73561016Y-48164416D01*
X73513996Y-48133369D01*
X73454281Y-48095214D01*
X73384341Y-48051594D01*
X73372728Y-48044075D01*
X73348309Y-48022874D01*
X73345812Y-48008368D01*
X73363979Y-48000809D01*
X73401553Y-48000451D01*
X73457272Y-48007546D01*
X73529880Y-48022348D01*
X73541392Y-48025173D01*
X73594000Y-48040437D01*
X73656899Y-48061362D01*
X73724490Y-48085800D01*
X73791174Y-48111605D01*
X73851352Y-48136627D01*
X73899423Y-48158719D01*
X73929788Y-48175734D01*
X73934868Y-48179230D01*
X73959673Y-48193199D01*
X73967510Y-48191133D01*
X73958283Y-48174426D01*
X73931900Y-48144475D01*
X73931070Y-48143620D01*
X73896312Y-48110104D01*
X73851989Y-48070282D01*
X73807480Y-48032590D01*
X73796273Y-48023351D01*
X73764073Y-47995448D01*
X73742736Y-47974802D01*
X73736409Y-47965341D01*
X73742697Y-47965951D01*
X73767826Y-47976950D01*
X73809633Y-47998949D01*
X73865808Y-48030573D01*
X73934043Y-48070448D01*
X74012028Y-48117201D01*
X74097454Y-48169458D01*
X74188013Y-48225844D01*
X74281395Y-48284985D01*
X74375291Y-48345509D01*
X74376359Y-48346203D01*
X74426083Y-48378202D01*
X74469178Y-48405307D01*
X74501062Y-48424677D01*
X74517150Y-48433469D01*
X74522453Y-48433709D01*
X74538017Y-48417692D01*
X74555690Y-48377676D01*
X74555749Y-48377511D01*
X74580849Y-48324337D01*
X74618247Y-48264703D01*
X74662505Y-48205846D01*
X74708180Y-48155004D01*
X74749833Y-48119414D01*
X74790653Y-48095581D01*
X74864714Y-48066637D01*
X74942205Y-48051021D01*
X75017481Y-48049178D01*
X75084896Y-48061556D01*
X75138803Y-48088603D01*
X75165876Y-48112080D01*
X75199157Y-48156662D01*
X75219214Y-48212588D01*
X75228730Y-48285735D01*
X75229044Y-48291069D01*
X75230032Y-48324821D01*
X75229492Y-48334201D01*
X75228207Y-48356531D01*
G37*
G36*
X73290527Y-51320637D02*
G01*
X73334591Y-51326564D01*
X73362398Y-51333498D01*
X73378100Y-51344026D01*
X73386505Y-51364953D01*
X73392859Y-51403174D01*
X73396994Y-51425771D01*
X73411037Y-51482058D01*
X73431793Y-51552035D01*
X73457429Y-51629994D01*
X73486115Y-51710229D01*
X73516019Y-51787032D01*
X73529610Y-51823554D01*
X73538490Y-51854742D01*
X73539465Y-51870610D01*
X73539411Y-51870695D01*
X73524033Y-51875829D01*
X73496376Y-51873707D01*
X73474947Y-51870637D01*
X73432153Y-51867147D01*
X73385008Y-51865387D01*
X73373973Y-51865236D01*
X73338712Y-51864295D01*
X73324349Y-51861935D01*
X73328026Y-51856827D01*
X73346883Y-51847638D01*
X73348202Y-51847047D01*
X73387132Y-51835440D01*
X73429232Y-51830329D01*
X73456551Y-51828518D01*
X73471735Y-51820206D01*
X73469552Y-51800992D01*
X73451553Y-51766427D01*
X73440606Y-51744989D01*
X73418623Y-51689160D01*
X73396853Y-51619356D01*
X73377296Y-51542305D01*
X73361949Y-51464736D01*
X73346883Y-51374189D01*
X73273684Y-51348838D01*
X73260719Y-51344337D01*
X73227953Y-51332420D01*
X73215544Y-51325741D01*
X73221339Y-51322260D01*
X73243185Y-51319937D01*
X73247431Y-51319647D01*
X73290527Y-51320637D01*
G37*
G36*
X73769910Y-49950339D02*
G01*
X73725077Y-49976630D01*
X73714974Y-49981004D01*
X73657224Y-49996675D01*
X73597586Y-50000082D01*
X73543834Y-49991425D01*
X73503740Y-49970905D01*
X73501696Y-49969049D01*
X73538660Y-49969049D01*
X73555278Y-49980203D01*
X73590405Y-49986488D01*
X73641761Y-49981846D01*
X73693259Y-49965962D01*
X73734607Y-49941082D01*
X73740935Y-49935306D01*
X73749488Y-49920453D01*
X73739051Y-49904855D01*
X73717385Y-49892256D01*
X73676956Y-49887945D01*
X73630089Y-49897246D01*
X73584173Y-49919462D01*
X73565211Y-49932613D01*
X73541596Y-49953976D01*
X73538660Y-49969049D01*
X73501696Y-49969049D01*
X73488343Y-49956925D01*
X73477340Y-49940309D01*
X73476544Y-49918572D01*
X73483875Y-49882457D01*
X73497610Y-49822910D01*
X73435816Y-49768645D01*
X73394784Y-49726205D01*
X73353928Y-49667250D01*
X73326568Y-49606733D01*
X73316503Y-49551568D01*
X73312306Y-49523368D01*
X73293147Y-49497510D01*
X73278991Y-49487265D01*
X73279340Y-49477202D01*
X73298121Y-49460807D01*
X73307780Y-49453331D01*
X73327689Y-49440770D01*
X73334367Y-49445739D01*
X73331558Y-49469175D01*
X73331224Y-49506991D01*
X73340697Y-49557135D01*
X73357513Y-49607674D01*
X73378906Y-49648152D01*
X73381016Y-49650954D01*
X73405242Y-49676153D01*
X73441724Y-49707768D01*
X73483424Y-49739638D01*
X73510420Y-49758324D01*
X73551517Y-49782561D01*
X73587285Y-49795832D01*
X73625975Y-49801732D01*
X73626327Y-49801760D01*
X73661851Y-49802972D01*
X73690329Y-49798086D01*
X73720644Y-49784290D01*
X73761677Y-49758773D01*
X73796164Y-49735538D01*
X73845240Y-49700495D01*
X73890574Y-49666088D01*
X73928052Y-49635576D01*
X73953557Y-49612222D01*
X73962974Y-49599285D01*
X73953232Y-49588403D01*
X73929424Y-49575391D01*
X73917332Y-49570015D01*
X73910105Y-49564819D01*
X73922165Y-49564074D01*
X73955982Y-49566999D01*
X73974842Y-49569437D01*
X74023368Y-49584590D01*
X74051468Y-49611416D01*
X74060437Y-49650954D01*
X74060301Y-49688713D01*
X74029053Y-49649063D01*
X74021738Y-49640167D01*
X74000281Y-49618205D01*
X73985897Y-49609414D01*
X73976590Y-49619557D01*
X73959666Y-49647693D01*
X73937614Y-49689478D01*
X73912854Y-49740562D01*
X73886159Y-49795352D01*
X73847503Y-49863406D01*
X73809736Y-49913833D01*
X73802514Y-49920453D01*
X73769910Y-49950339D01*
G37*
G36*
X72572195Y-51062997D02*
G01*
X72580545Y-51070301D01*
X72619110Y-51102819D01*
X72654876Y-51131467D01*
X72669999Y-51143604D01*
X72687308Y-51161222D01*
X72684335Y-51166914D01*
X72661902Y-51160439D01*
X72620829Y-51141552D01*
X72592933Y-51128732D01*
X72562805Y-51118119D01*
X72546704Y-51116765D01*
X72544393Y-51122406D01*
X72540905Y-51148830D01*
X72538116Y-51192775D01*
X72536266Y-51249929D01*
X72535596Y-51315980D01*
X72535663Y-51380577D01*
X72536251Y-51434955D01*
X72537956Y-51472612D01*
X72541370Y-51497643D01*
X72547088Y-51514140D01*
X72555705Y-51526196D01*
X72567815Y-51537907D01*
X72569383Y-51539371D01*
X72593220Y-51565685D01*
X72619796Y-51600402D01*
X72644495Y-51636756D01*
X72662700Y-51667985D01*
X72669794Y-51687323D01*
X72663666Y-51686940D01*
X72644298Y-51673495D01*
X72616290Y-51649370D01*
X72592991Y-51629104D01*
X72554702Y-51599639D01*
X72523076Y-51579517D01*
X72483367Y-51558983D01*
X72490277Y-51343636D01*
X72491847Y-51301863D01*
X72495992Y-51225183D01*
X72501223Y-51159023D01*
X72507139Y-51108010D01*
X72513341Y-51076771D01*
X72529496Y-51025252D01*
X72572195Y-51062997D01*
G37*
D13*
%TO.C,C11*%
X89584420Y-54510000D02*
X89865580Y-54510000D01*
X89584420Y-53490000D02*
X89865580Y-53490000D01*
%TO.C,C13*%
X80859420Y-50015000D02*
X81140580Y-50015000D01*
X80859420Y-51035000D02*
X81140580Y-51035000D01*
%TO.C,C16*%
X61140580Y-55510000D02*
X60859420Y-55510000D01*
X61140580Y-54490000D02*
X60859420Y-54490000D01*
%TO.C,C3*%
X63010000Y-45640580D02*
X63010000Y-45359420D01*
X61990000Y-45640580D02*
X61990000Y-45359420D01*
%TO.C,J1-Programmer1*%
X82110000Y-55610000D02*
X82110000Y-53390000D01*
X74000000Y-55610000D02*
X82110000Y-55610000D01*
X74000000Y-55610000D02*
X74000000Y-53390000D01*
X74000000Y-53390000D02*
X82110000Y-53390000D01*
X73000000Y-55610000D02*
X71890000Y-55610000D01*
X71890000Y-55610000D02*
X71890000Y-54500000D01*
D14*
%TO.C,U1*%
X82598000Y-37598000D02*
X82598000Y-41402000D01*
X82598000Y-41402000D02*
X84196657Y-41402000D01*
X83046656Y-37598000D02*
X82598000Y-37598000D01*
X85346657Y-37598000D02*
X84353343Y-37598000D01*
X87646657Y-37598000D02*
X86653343Y-37598000D01*
X87803343Y-41402000D02*
X89402000Y-41402000D01*
X89402000Y-37598000D02*
X88953343Y-37598000D01*
X89402000Y-41402000D02*
X89402000Y-37598000D01*
X90672000Y-35950000D02*
G75*
G02*
X90418000Y-35950000I-127000J0D01*
G01*
X90418000Y-35950000D02*
G75*
G02*
X90672000Y-35950000I127000J0D01*
G01*
D13*
%TO.C,C6*%
X67640580Y-33990000D02*
X67359420Y-33990000D01*
X67640580Y-35010000D02*
X67359420Y-35010000D01*
%TO.C,J3*%
X59140001Y-30890000D02*
X59140001Y-33110000D01*
X63250001Y-30890000D02*
X59140001Y-30890000D01*
X63250001Y-30890000D02*
X63250001Y-33110000D01*
X63250001Y-33110000D02*
X59140001Y-33110000D01*
X64250001Y-30890000D02*
X65360001Y-30890000D01*
X65360001Y-30890000D02*
X65360001Y-32000000D01*
%TO.C,R3*%
X87977500Y-31937742D02*
X87977500Y-32412258D01*
X89022500Y-31937742D02*
X89022500Y-32412258D01*
%TO.C,D1*%
X83802500Y-45765000D02*
X83802500Y-47235000D01*
X83802500Y-47235000D02*
X86087500Y-47235000D01*
X86087500Y-45765000D02*
X83802500Y-45765000D01*
%TO.C,C19*%
X73134420Y-41990000D02*
X73415580Y-41990000D01*
X73134420Y-43010000D02*
X73415580Y-43010000D01*
%TO.C,J1*%
X66390000Y-33110000D02*
X66390000Y-32000000D01*
X67500000Y-33110000D02*
X66390000Y-33110000D01*
X68500000Y-30890000D02*
X70610000Y-30890000D01*
X68500000Y-33110000D02*
X68500000Y-30890000D01*
X68500000Y-33110000D02*
X70610000Y-33110000D01*
X70610000Y-33110000D02*
X70610000Y-30890000D01*
%TO.C,C18*%
X76490000Y-49859420D02*
X76490000Y-50140580D01*
X77510000Y-49859420D02*
X77510000Y-50140580D01*
%TO.C,R4*%
X73477500Y-40412258D02*
X73477500Y-39937742D01*
X74522500Y-40412258D02*
X74522500Y-39937742D01*
%TO.C,C7*%
X88634420Y-33990000D02*
X88915580Y-33990000D01*
X88634420Y-35010000D02*
X88915580Y-35010000D01*
%TO.C,R5*%
X79262742Y-38977500D02*
X79737258Y-38977500D01*
X79262742Y-40022500D02*
X79737258Y-40022500D01*
%TO.C,C8*%
X70640580Y-36990000D02*
X70359420Y-36990000D01*
X70640580Y-38010000D02*
X70359420Y-38010000D01*
%TO.C,Rshunt1*%
X63987259Y-33977500D02*
X63512743Y-33977500D01*
X63987259Y-35022500D02*
X63512743Y-35022500D01*
%TO.C,C21*%
X73134420Y-46490000D02*
X73415580Y-46490000D01*
X73134420Y-47510000D02*
X73415580Y-47510000D01*
%TO.C,R2*%
X82477500Y-42937742D02*
X82477500Y-43412258D01*
X83522500Y-42937742D02*
X83522500Y-43412258D01*
D15*
%TO.C,Y1*%
X58635000Y-49500000D02*
G75*
G02*
X58435000Y-49500000I-100000J0D01*
G01*
X58435000Y-49500000D02*
G75*
G02*
X58635000Y-49500000I100000J0D01*
G01*
D13*
%TO.C,J2*%
X88890000Y-42390000D02*
X90000000Y-42390000D01*
X88890000Y-43500000D02*
X88890000Y-42390000D01*
X88890000Y-44500000D02*
X88890000Y-50610000D01*
X88890000Y-44500000D02*
X91110000Y-44500000D01*
X88890000Y-50610000D02*
X91110000Y-50610000D01*
X91110000Y-44500000D02*
X91110000Y-50610000D01*
%TO.C,C5*%
X71990000Y-40365580D02*
X71990000Y-40084420D01*
X73010000Y-40365580D02*
X73010000Y-40084420D01*
%TO.C,Rshunt3*%
X59937742Y-45477500D02*
X60412258Y-45477500D01*
X59937742Y-46522500D02*
X60412258Y-46522500D01*
%TO.C,C14*%
X80859420Y-51490000D02*
X81140580Y-51490000D01*
X80859420Y-52510000D02*
X81140580Y-52510000D01*
D14*
%TO.C,U2*%
X59520300Y-37046100D02*
X59520300Y-41795900D01*
X64879700Y-41795900D02*
X64879700Y-37046100D01*
D12*
G36*
X61740501Y-43586600D02*
G01*
X61359501Y-43586600D01*
X61359501Y-43332600D01*
X61740501Y-43332600D01*
X61740501Y-43586600D01*
G37*
D13*
%TO.C,C2*%
X70359420Y-33990000D02*
X70640580Y-33990000D01*
X70359420Y-35010000D02*
X70640580Y-35010000D01*
%TO.C,C20*%
X73134420Y-43490000D02*
X73415580Y-43490000D01*
X73134420Y-44510000D02*
X73415580Y-44510000D01*
%TO.C,D2*%
X83802500Y-44265000D02*
X83802500Y-45735000D01*
X83802500Y-45735000D02*
X86087500Y-45735000D01*
X86087500Y-44265000D02*
X83802500Y-44265000D01*
%TO.C,C12*%
X89584420Y-51490000D02*
X89865580Y-51490000D01*
X89584420Y-52510000D02*
X89865580Y-52510000D01*
%TO.C,U4*%
X82890000Y-49190000D02*
X83090000Y-49190000D01*
X82890000Y-53810000D02*
X82890000Y-49190000D01*
X83090000Y-53810000D02*
X82890000Y-53810000D01*
X87910000Y-49190000D02*
X88110000Y-49190000D01*
X88110000Y-49190000D02*
X88110000Y-53810000D01*
X88110000Y-53810000D02*
X87910000Y-53810000D01*
X88380000Y-48890000D02*
X87910000Y-48550000D01*
X88380000Y-48210000D01*
X88380000Y-48890000D01*
G36*
X88380000Y-48890000D02*
G01*
X87910000Y-48550000D01*
X88380000Y-48210000D01*
X88380000Y-48890000D01*
G37*
%TO.C,U5*%
X65240000Y-47390000D02*
X65715000Y-47390000D01*
X65240000Y-47865000D02*
X65240000Y-47390000D01*
X65240000Y-52610000D02*
X65240000Y-52135000D01*
X65715000Y-52610000D02*
X65240000Y-52610000D01*
X69985000Y-47390000D02*
X70460000Y-47390000D01*
X70460000Y-47390000D02*
X70460000Y-47865000D01*
X70460000Y-52135000D02*
X70460000Y-52610000D01*
X70460000Y-52610000D02*
X69985000Y-52610000D01*
X64710000Y-48250000D02*
X64380000Y-48490000D01*
X64380000Y-48010000D01*
X64710000Y-48250000D01*
G36*
X64710000Y-48250000D02*
G01*
X64380000Y-48490000D01*
X64380000Y-48010000D01*
X64710000Y-48250000D01*
G37*
%TO.C,C4*%
X70359420Y-35490000D02*
X70640580Y-35490000D01*
X70359420Y-36510000D02*
X70640580Y-36510000D01*
%TO.C,C10*%
X61140580Y-52990000D02*
X60859420Y-52990000D01*
X61140580Y-54010000D02*
X60859420Y-54010000D01*
%TO.C,FB1*%
X73112221Y-44990000D02*
X73437779Y-44990000D01*
X73112221Y-46010000D02*
X73437779Y-46010000D01*
D14*
%TO.C,SW1*%
X75813700Y-41349250D02*
X75813700Y-47013450D01*
X75813700Y-47013450D02*
X76179460Y-47013450D01*
X76179460Y-41349250D02*
X75813700Y-41349250D01*
X77403740Y-47013450D02*
X79887860Y-47013450D01*
X79887860Y-41349250D02*
X77403740Y-41349250D01*
X81112140Y-47013450D02*
X81477900Y-47013450D01*
X81477900Y-41349250D02*
X81112140Y-41349250D01*
X81477900Y-47013450D02*
X81477900Y-41349250D01*
D13*
%TO.C,C1*%
X85140580Y-33990000D02*
X84859420Y-33990000D01*
X85140580Y-35010000D02*
X84859420Y-35010000D01*
%TO.C,Rshunt2*%
X60512743Y-33977500D02*
X60987259Y-33977500D01*
X60512743Y-35022500D02*
X60987259Y-35022500D01*
%TO.C,C9*%
X60084420Y-46990000D02*
X60365580Y-46990000D01*
X60084420Y-48010000D02*
X60365580Y-48010000D01*
D14*
%TO.C,J5*%
X72722600Y-30282401D02*
X72722600Y-31813408D01*
X72722600Y-34186592D02*
X72722600Y-35841009D01*
X81917400Y-30282401D02*
X72722600Y-30282401D01*
X81917400Y-31813408D02*
X81917400Y-30282401D01*
X81917400Y-35841009D02*
X81917400Y-34186592D01*
D13*
%TO.C,U3*%
X66800000Y-40800000D02*
X67250000Y-40800000D01*
X66800000Y-41250000D02*
X66800000Y-40800000D01*
X66800000Y-44020000D02*
X66800000Y-43570000D01*
X67250000Y-44020000D02*
X66800000Y-44020000D01*
X69570000Y-40800000D02*
X70020000Y-40800000D01*
X70020000Y-40800000D02*
X70020000Y-41250000D01*
X70020000Y-43570000D02*
X70020000Y-44020000D01*
X70020000Y-44020000D02*
X69570000Y-44020000D01*
X66270000Y-41610000D02*
X65940000Y-41850000D01*
X65940000Y-41370000D01*
X66270000Y-41610000D01*
G36*
X66270000Y-41610000D02*
G01*
X65940000Y-41850000D01*
X65940000Y-41370000D01*
X66270000Y-41610000D01*
G37*
%TO.C,R1*%
X82477500Y-45937742D02*
X82477500Y-46412258D01*
X83522500Y-45937742D02*
X83522500Y-46412258D01*
%TO.C,C15*%
X80859420Y-48490000D02*
X81140580Y-48490000D01*
X80859420Y-49510000D02*
X81140580Y-49510000D01*
%TO.C,D3*%
X89265000Y-30727500D02*
X89265000Y-33012500D01*
X90735000Y-30727500D02*
X89265000Y-30727500D01*
X90735000Y-33012500D02*
X90735000Y-30727500D01*
%TO.C,J6*%
X82890000Y-30890000D02*
X82890000Y-33110000D01*
X85000000Y-30890000D02*
X82890000Y-30890000D01*
X85000000Y-30890000D02*
X85000000Y-33110000D01*
X85000000Y-33110000D02*
X82890000Y-33110000D01*
X86000000Y-30890000D02*
X87110000Y-30890000D01*
X87110000Y-30890000D02*
X87110000Y-32000000D01*
%TD*%
M02*
