M48
; DRILL file {KiCad 9.0.5} date 2025-10-25T18:07:15-0400
; FORMAT={-:-/ absolute / metric / decimal}
; #@! TF.CreationDate,2025-10-25T18:07:15-04:00
; #@! TF.GenerationSoftware,Kicad,Pcbnew,9.0.5
; #@! TF.FileFunction,Plated,1,2,PTH
FMAT,2
METRIC
; #@! TA.AperFunction,Plated,PTH,ComponentDrill
T1C0.200
; #@! TA.AperFunction,Plated,PTH,ViaDrill
T2C0.300
; #@! TA.AperFunction,Plated,PTH,ComponentDrill
T3C0.800
%
G90
G05
T1
X67.835Y-41.835
X67.835Y-42.985
X68.985Y-41.835
X68.985Y-42.985
T2
X59.5Y-37.5
X59.785Y-52.56
X60.1Y-43.5
X62.0Y-40.5
X62.0Y-47.5
X62.154Y-49.1
X63.125Y-52.993
X63.475Y-46.219
X63.5Y-39.1
X63.934Y-51.434
X64.004Y-46.93
X64.5Y-52.0
X65.0Y-37.1
X65.0Y-38.6
X65.066Y-52.566
X65.5Y-47.5
X66.0Y-46.5
X66.1Y-41.0
X66.203Y-43.657
X67.0Y-41.0
X67.0Y-44.419
X67.031Y-54.28
X68.1Y-54.5
X68.61Y-45.002
X69.0Y-53.5
X69.01Y-39.0
X69.5Y-40.0
X69.79Y-46.125
X69.81Y-44.777
X70.0Y-39.0
X70.0Y-44.0
X70.5Y-52.5
X70.675Y-40.5
X70.9Y-43.005
X71.0Y-33.5
X71.341Y-47.408
X71.375Y-45.4
X71.5Y-39.0
X71.5Y-50.5
X72.066Y-51.202
X72.5Y-49.001
X74.499Y-48.0
X74.499Y-48.8
X74.499Y-50.001
X75.0Y-44.0
X75.0Y-45.0
X76.9Y-46.386
X77.5Y-47.5
X79.0Y-51.5
X81.5Y-39.5
X83.5Y-51.5
X86.0Y-50.0
X87.0Y-50.0
X87.077Y-53.273
X87.164Y-45.336
X87.5Y-47.0
X89.5Y-36.0
T3
X60.25Y-32.0
X62.25Y-32.0
X64.25Y-32.0
X67.5Y-32.0
X69.5Y-32.0
X73.0Y-54.5
X75.0Y-54.5
X77.0Y-54.5
X79.0Y-54.5
X81.0Y-54.5
X84.0Y-32.0
X86.0Y-32.0
X90.0Y-43.5
X90.0Y-45.5
X90.0Y-47.5
X90.0Y-49.5
M30
