%TF.GenerationSoftware,KiCad,Pcbnew,9.0.5*%
%TF.CreationDate,2025-10-25T18:06:54-04:00*%
%TF.ProjectId,foc_controller,666f635f-636f-46e7-9472-6f6c6c65722e,rev?*%
%TF.SameCoordinates,Original*%
%TF.FileFunction,Copper,L1,Top*%
%TF.FilePolarity,Positive*%
%FSLAX46Y46*%
G04 Gerber Fmt 4.6, Leading zero omitted, Abs format (unit mm)*
G04 Created by KiCad (PCBNEW 9.0.5) date 2025-10-25 18:06:54*
%MOMM*%
%LPD*%
G01*
G04 APERTURE LIST*
G04 Aperture macros list*
%AMRoundRect*
0 Rectangle with rounded corners*
0 $1 Rounding radius*
0 $2 $3 $4 $5 $6 $7 $8 $9 X,Y pos of 4 corners*
0 Add a 4 corners polygon primitive as box body*
4,1,4,$2,$3,$4,$5,$6,$7,$8,$9,$2,$3,0*
0 Add four circle primitives for the rounded corners*
1,1,$1+$1,$2,$3*
1,1,$1+$1,$4,$5*
1,1,$1+$1,$6,$7*
1,1,$1+$1,$8,$9*
0 Add four rect primitives between the rounded corners*
20,1,$1+$1,$2,$3,$4,$5,0*
20,1,$1+$1,$4,$5,$6,$7,0*
20,1,$1+$1,$6,$7,$8,$9,0*
20,1,$1+$1,$8,$9,$2,$3,0*%
G04 Aperture macros list end*
%TA.AperFunction,SMDPad,CuDef*%
%ADD10RoundRect,0.225000X-0.225000X-0.250000X0.225000X-0.250000X0.225000X0.250000X-0.225000X0.250000X0*%
%TD*%
%TA.AperFunction,SMDPad,CuDef*%
%ADD11RoundRect,0.225000X0.225000X0.250000X-0.225000X0.250000X-0.225000X-0.250000X0.225000X-0.250000X0*%
%TD*%
%TA.AperFunction,SMDPad,CuDef*%
%ADD12RoundRect,0.225000X0.250000X-0.225000X0.250000X0.225000X-0.250000X0.225000X-0.250000X-0.225000X0*%
%TD*%
%TA.AperFunction,ComponentPad*%
%ADD13C,1.350000*%
%TD*%
%TA.AperFunction,ComponentPad*%
%ADD14R,1.350000X1.350000*%
%TD*%
%TA.AperFunction,SMDPad,CuDef*%
%ADD15R,0.850800X1.761200*%
%TD*%
%TA.AperFunction,SMDPad,CuDef*%
%ADD16R,3.150799X1.761200*%
%TD*%
%TA.AperFunction,SMDPad,CuDef*%
%ADD17RoundRect,0.200000X-0.275000X0.200000X-0.275000X-0.200000X0.275000X-0.200000X0.275000X0.200000X0*%
%TD*%
%TA.AperFunction,SMDPad,CuDef*%
%ADD18RoundRect,0.218750X-0.218750X-0.256250X0.218750X-0.256250X0.218750X0.256250X-0.218750X0.256250X0*%
%TD*%
%TA.AperFunction,SMDPad,CuDef*%
%ADD19RoundRect,0.225000X-0.250000X0.225000X-0.250000X-0.225000X0.250000X-0.225000X0.250000X0.225000X0*%
%TD*%
%TA.AperFunction,SMDPad,CuDef*%
%ADD20RoundRect,0.200000X0.275000X-0.200000X0.275000X0.200000X-0.275000X0.200000X-0.275000X-0.200000X0*%
%TD*%
%TA.AperFunction,SMDPad,CuDef*%
%ADD21RoundRect,0.200000X-0.200000X-0.275000X0.200000X-0.275000X0.200000X0.275000X-0.200000X0.275000X0*%
%TD*%
%TA.AperFunction,SMDPad,CuDef*%
%ADD22RoundRect,0.200000X0.200000X0.275000X-0.200000X0.275000X-0.200000X-0.275000X0.200000X-0.275000X0*%
%TD*%
%TA.AperFunction,SMDPad,CuDef*%
%ADD23R,1.000000X1.100000*%
%TD*%
%TA.AperFunction,SMDPad,CuDef*%
%ADD24R,0.355600X1.473200*%
%TD*%
%TA.AperFunction,SMDPad,CuDef*%
%ADD25RoundRect,0.100000X-0.100000X0.637500X-0.100000X-0.637500X0.100000X-0.637500X0.100000X0.637500X0*%
%TD*%
%TA.AperFunction,SMDPad,CuDef*%
%ADD26RoundRect,0.062500X-0.375000X-0.062500X0.375000X-0.062500X0.375000X0.062500X-0.375000X0.062500X0*%
%TD*%
%TA.AperFunction,SMDPad,CuDef*%
%ADD27RoundRect,0.062500X-0.062500X-0.375000X0.062500X-0.375000X0.062500X0.375000X-0.062500X0.375000X0*%
%TD*%
%TA.AperFunction,HeatsinkPad*%
%ADD28R,3.450000X3.450000*%
%TD*%
%TA.AperFunction,SMDPad,CuDef*%
%ADD29R,0.558800X0.952500*%
%TD*%
%TA.AperFunction,WasherPad*%
%ADD30O,0.990600X2.108200*%
%TD*%
%TA.AperFunction,WasherPad*%
%ADD31O,0.990600X1.803400*%
%TD*%
%TA.AperFunction,SMDPad,CuDef*%
%ADD32R,0.609600X1.143000*%
%TD*%
%TA.AperFunction,SMDPad,CuDef*%
%ADD33R,0.304800X1.143000*%
%TD*%
%TA.AperFunction,HeatsinkPad*%
%ADD34C,0.500000*%
%TD*%
%TA.AperFunction,SMDPad,CuDef*%
%ADD35RoundRect,0.050000X-0.375000X-0.050000X0.375000X-0.050000X0.375000X0.050000X-0.375000X0.050000X0*%
%TD*%
%TA.AperFunction,SMDPad,CuDef*%
%ADD36RoundRect,0.050000X-0.050000X-0.375000X0.050000X-0.375000X0.050000X0.375000X-0.050000X0.375000X0*%
%TD*%
%TA.AperFunction,HeatsinkPad*%
%ADD37R,1.650000X1.650000*%
%TD*%
%TA.AperFunction,SMDPad,CuDef*%
%ADD38RoundRect,0.218750X-0.256250X0.218750X-0.256250X-0.218750X0.256250X-0.218750X0.256250X0.218750X0*%
%TD*%
%TA.AperFunction,ViaPad*%
%ADD39C,0.600000*%
%TD*%
%TA.AperFunction,Conductor*%
%ADD40C,0.200000*%
%TD*%
G04 APERTURE END LIST*
D10*
%TO.P,C11,2*%
%TO.N,GND*%
X90500000Y-54000000D03*
%TO.P,C11,1*%
%TO.N,+3.3V*%
X88950000Y-54000000D03*
%TD*%
%TO.P,C13,1*%
%TO.N,+3.3V*%
X80225000Y-50525000D03*
%TO.P,C13,2*%
%TO.N,GND*%
X81775000Y-50525000D03*
%TD*%
D11*
%TO.P,C16,2*%
%TO.N,GND*%
X60225000Y-55000000D03*
%TO.P,C16,1*%
%TO.N,NRST*%
X61775000Y-55000000D03*
%TD*%
D12*
%TO.P,C3,2*%
%TO.N,GND*%
X62500000Y-44725000D03*
%TO.P,C3,1*%
%TO.N,+3.3V*%
X62500000Y-46275000D03*
%TD*%
D13*
%TO.P,J1-Programmer1,5,Pin_5*%
%TO.N,GND*%
X81000000Y-54500000D03*
%TO.P,J1-Programmer1,4,Pin_4*%
%TO.N,+3.3V*%
X79000000Y-54500000D03*
%TO.P,J1-Programmer1,3,Pin_3*%
%TO.N,NRST*%
X77000000Y-54500000D03*
%TO.P,J1-Programmer1,2,Pin_2*%
%TO.N,Net-(J1-Programmer1-Pin_2)*%
X75000000Y-54500000D03*
D14*
%TO.P,J1-Programmer1,1,Pin_1*%
%TO.N,Net-(J1-Programmer1-Pin_1)*%
X73000000Y-54500000D03*
%TD*%
D15*
%TO.P,U1,1,GND*%
%TO.N,GND*%
X88300000Y-36475000D03*
%TO.P,U1,2,VO*%
%TO.N,+3.3V*%
X86000000Y-36475000D03*
%TO.P,U1,3,VI*%
%TO.N,VBUS*%
X83700000Y-36475000D03*
D16*
%TO.P,U1,4*%
%TO.N,N/C*%
X86000000Y-42525000D03*
%TD*%
D11*
%TO.P,C6,1*%
%TO.N,+12V*%
X68275000Y-34500000D03*
%TO.P,C6,2*%
%TO.N,Net-(U3-VCP)*%
X66725000Y-34500000D03*
%TD*%
D14*
%TO.P,J3,1,Pin_1*%
%TO.N,Uout*%
X64250001Y-32000000D03*
D13*
%TO.P,J3,2,Pin_2*%
%TO.N,Vout*%
X62250001Y-32000000D03*
%TO.P,J3,3,Pin_3*%
%TO.N,Wout*%
X60250001Y-32000000D03*
%TD*%
D17*
%TO.P,R3,1*%
%TO.N,Net-(D3-K)*%
X88500000Y-31350000D03*
%TO.P,R3,2*%
%TO.N,GND*%
X88500000Y-33000000D03*
%TD*%
D18*
%TO.P,D1,1,K*%
%TO.N,Net-(D1-K)*%
X84500000Y-46500000D03*
%TO.P,D1,2,A*%
%TO.N,UART2_TX*%
X86075000Y-46500000D03*
%TD*%
D10*
%TO.P,C19,1*%
%TO.N,+3.3VA*%
X72500000Y-42500000D03*
%TO.P,C19,2*%
%TO.N,GND*%
X74050000Y-42500000D03*
%TD*%
D14*
%TO.P,J1,1,Pin_1*%
%TO.N,+12V*%
X67500000Y-32000000D03*
D13*
%TO.P,J1,2,Pin_2*%
%TO.N,GND*%
X69500000Y-32000000D03*
%TD*%
D19*
%TO.P,C18,1*%
%TO.N,+3.3V*%
X77000000Y-49225000D03*
%TO.P,C18,2*%
%TO.N,GND*%
X77000000Y-50775000D03*
%TD*%
D20*
%TO.P,R4,1*%
%TO.N,GND*%
X74000000Y-41000000D03*
%TO.P,R4,2*%
%TO.N,Net-(J5-CC2)*%
X74000000Y-39350000D03*
%TD*%
D10*
%TO.P,C7,1*%
%TO.N,+3.3V*%
X88000000Y-34500000D03*
%TO.P,C7,2*%
%TO.N,GND*%
X89550000Y-34500000D03*
%TD*%
D21*
%TO.P,R5,1*%
%TO.N,Net-(J5-CC1)*%
X78675000Y-39500000D03*
%TO.P,R5,2*%
%TO.N,GND*%
X80325000Y-39500000D03*
%TD*%
D11*
%TO.P,C8,1*%
%TO.N,Net-(U3-1.8VOUT)*%
X71275000Y-37500000D03*
%TO.P,C8,2*%
%TO.N,GND*%
X69725000Y-37500000D03*
%TD*%
D22*
%TO.P,Rshunt1,1*%
%TO.N,Uout*%
X64575001Y-34500000D03*
%TO.P,Rshunt1,2*%
%TO.N,Uphase*%
X62925001Y-34500000D03*
%TD*%
D10*
%TO.P,C21,1*%
%TO.N,+3.3V*%
X72500000Y-47000000D03*
%TO.P,C21,2*%
%TO.N,GND*%
X74050000Y-47000000D03*
%TD*%
D17*
%TO.P,R2,1*%
%TO.N,GND*%
X83000000Y-42350000D03*
%TO.P,R2,2*%
%TO.N,Net-(D2-K)*%
X83000000Y-44000000D03*
%TD*%
D23*
%TO.P,Y1,1,1*%
%TO.N,OSC_IN*%
X59785000Y-49500000D03*
%TO.P,Y1,2,2*%
%TO.N,GND*%
X59785000Y-51150000D03*
%TO.P,Y1,3,3*%
%TO.N,OSC_OUT*%
X61035000Y-51150000D03*
%TO.P,Y1,4,4*%
%TO.N,GND*%
X61035000Y-49500000D03*
%TD*%
D14*
%TO.P,J2,1,Pin_1*%
%TO.N,+3.3V*%
X90000000Y-43500000D03*
D13*
%TO.P,J2,2,Pin_2*%
%TO.N,UART2_RX*%
X90000000Y-45500000D03*
%TO.P,J2,3,Pin_3*%
%TO.N,UART2_TX*%
X90000000Y-47500000D03*
%TO.P,J2,4,Pin_4*%
%TO.N,GND*%
X90000000Y-49500000D03*
%TD*%
D12*
%TO.P,C5,1*%
%TO.N,MOTOR_STDBY*%
X72500000Y-41000000D03*
%TO.P,C5,2*%
%TO.N,GND*%
X72500000Y-39450000D03*
%TD*%
D21*
%TO.P,Rshunt3,1*%
%TO.N,Wout*%
X59350000Y-46000000D03*
%TO.P,Rshunt3,2*%
%TO.N,Wphase*%
X61000000Y-46000000D03*
%TD*%
D10*
%TO.P,C14,1*%
%TO.N,+3.3V*%
X80225000Y-52000000D03*
%TO.P,C14,2*%
%TO.N,GND*%
X81775000Y-52000000D03*
%TD*%
D24*
%TO.P,U2,1,OUT1*%
%TO.N,U_ADC1_IN15*%
X64150001Y-36500000D03*
%TO.P,U2,2,IN-1*%
%TO.N,Uout*%
X63500000Y-36500000D03*
%TO.P,U2,3,IN+1*%
%TO.N,Uphase*%
X62849999Y-36500000D03*
%TO.P,U2,4,VS*%
%TO.N,+3.3V*%
X62200000Y-36500000D03*
%TO.P,U2,5,IN+2*%
%TO.N,Vphase*%
X61550001Y-36500000D03*
%TO.P,U2,6,IN-2*%
%TO.N,Vout*%
X60900000Y-36500000D03*
%TO.P,U2,7,OUT2*%
%TO.N,V_ADC1_IN10*%
X60250001Y-36500000D03*
%TO.P,U2,8,OUT3*%
%TO.N,W_ADC2_IN4*%
X60249999Y-42342000D03*
%TO.P,U2,9,IN-3*%
%TO.N,Wout*%
X60900000Y-42342000D03*
%TO.P,U2,10,IN+3*%
%TO.N,Wphase*%
X61549999Y-42342000D03*
%TO.P,U2,11,GND*%
%TO.N,GND*%
X62200000Y-42342000D03*
%TO.P,U2,12,IN+4*%
%TO.N,unconnected-(U2-IN+4-Pad12)*%
X62849999Y-42342000D03*
%TO.P,U2,13,IN-4*%
%TO.N,unconnected-(U2-IN-4-Pad13)*%
X63500000Y-42342000D03*
%TO.P,U2,14,OUT4*%
%TO.N,unconnected-(U2-OUT4-Pad14)*%
X64149999Y-42342000D03*
%TD*%
D10*
%TO.P,C2,1*%
%TO.N,+12V*%
X69725000Y-34500000D03*
%TO.P,C2,2*%
%TO.N,GND*%
X71275000Y-34500000D03*
%TD*%
%TO.P,C20,1*%
%TO.N,+3.3VA*%
X72500000Y-44000000D03*
%TO.P,C20,2*%
%TO.N,GND*%
X74050000Y-44000000D03*
%TD*%
D18*
%TO.P,D2,1,K*%
%TO.N,Net-(D2-K)*%
X84500000Y-45000000D03*
%TO.P,D2,2,A*%
%TO.N,UART2_RX*%
X86075000Y-45000000D03*
%TD*%
D10*
%TO.P,C12,1*%
%TO.N,+3.3V*%
X88950000Y-52000000D03*
%TO.P,C12,2*%
%TO.N,GND*%
X90500000Y-52000000D03*
%TD*%
D25*
%TO.P,U4,1,SDA*%
%TO.N,I2C_SDA*%
X87450000Y-48637500D03*
%TO.P,U4,2,SCL*%
%TO.N,I2C_SCL*%
X86800000Y-48637500D03*
%TO.P,U4,3,A2*%
%TO.N,unconnected-(U4-A2-Pad3)*%
X86150000Y-48637500D03*
%TO.P,U4,4,A1*%
%TO.N,unconnected-(U4-A1-Pad4)*%
X85500000Y-48637500D03*
%TO.P,U4,5,TEST*%
%TO.N,unconnected-(U4-TEST-Pad5)*%
X84850000Y-48637500D03*
%TO.P,U4,6,TEST*%
%TO.N,unconnected-(U4-TEST-Pad6)*%
X84200000Y-48637500D03*
%TO.P,U4,7,TEST*%
%TO.N,unconnected-(U4-TEST-Pad7)*%
X83550000Y-48637500D03*
%TO.P,U4,8,TEST*%
%TO.N,unconnected-(U4-TEST-Pad8)*%
X83550000Y-54362500D03*
%TO.P,U4,9,TEST*%
%TO.N,unconnected-(U4-TEST-Pad9)*%
X84200000Y-54362500D03*
%TO.P,U4,10,TEST*%
%TO.N,unconnected-(U4-TEST-Pad10)*%
X84850000Y-54362500D03*
%TO.P,U4,11,VDD5V*%
%TO.N,+3.3V*%
X85500000Y-54362500D03*
%TO.P,U4,12,VDD3V*%
X86150000Y-54362500D03*
%TO.P,U4,13,GND*%
%TO.N,GND*%
X86800000Y-54362500D03*
%TO.P,U4,14,PWM*%
%TO.N,unconnected-(U4-PWM-Pad14)*%
X87450000Y-54362500D03*
%TD*%
D26*
%TO.P,U5,1,VDD*%
%TO.N,+3.3V*%
X65412500Y-48250000D03*
%TO.P,U5,2,PF0*%
%TO.N,OSC_IN*%
X65412500Y-48750000D03*
%TO.P,U5,3,PF1*%
%TO.N,OSC_OUT*%
X65412500Y-49250000D03*
%TO.P,U5,4,PG10*%
%TO.N,NRST*%
X65412500Y-49750000D03*
%TO.P,U5,5,PA0*%
%TO.N,V_ADC1_IN10*%
X65412500Y-50250000D03*
%TO.P,U5,6,PA1*%
%TO.N,PA1_TIM15_CH1N*%
X65412500Y-50750000D03*
%TO.P,U5,7,PA2*%
%TO.N,PA2_TIM15_CH1*%
X65412500Y-51250000D03*
%TO.P,U5,8,PA3*%
%TO.N,MOTOR_STDBY*%
X65412500Y-51750000D03*
D27*
%TO.P,U5,9,PA4*%
%TO.N,MOTOR_DIAG*%
X66100000Y-52437500D03*
%TO.P,U5,10,PA5*%
%TO.N,unconnected-(U5-PA5-Pad10)*%
X66600000Y-52437500D03*
%TO.P,U5,11,PA6*%
%TO.N,PA6_TIM15_CH1*%
X67100000Y-52437500D03*
%TO.P,U5,12,PA7*%
%TO.N,W_ADC2_IN4*%
X67600000Y-52437500D03*
%TO.P,U5,13,PB0*%
%TO.N,U_ADC1_IN15*%
X68100000Y-52437500D03*
%TO.P,U5,14,VSSA*%
%TO.N,GND*%
X68600000Y-52437500D03*
%TO.P,U5,15,VDDA*%
%TO.N,+3.3VA*%
X69100000Y-52437500D03*
%TO.P,U5,16,VSS*%
%TO.N,GND*%
X69600000Y-52437500D03*
D26*
%TO.P,U5,17,VDD*%
%TO.N,+3.3V*%
X70287500Y-51750000D03*
%TO.P,U5,18,PA8*%
%TO.N,I2C_SDA*%
X70287500Y-51250000D03*
%TO.P,U5,19,PA9*%
%TO.N,I2C_SCL*%
X70287500Y-50750000D03*
%TO.P,U5,20,PA10*%
%TO.N,unconnected-(U5-PA10-Pad20)*%
X70287500Y-50250000D03*
%TO.P,U5,21,PA11*%
%TO.N,USB_DM*%
X70287500Y-49750000D03*
%TO.P,U5,22,PA12*%
%TO.N,USB_DP*%
X70287500Y-49250000D03*
%TO.P,U5,23,PA13*%
%TO.N,Net-(J1-Programmer1-Pin_1)*%
X70287500Y-48750000D03*
%TO.P,U5,24,PA14*%
%TO.N,Net-(J1-Programmer1-Pin_2)*%
X70287500Y-48250000D03*
D27*
%TO.P,U5,25,PA15*%
%TO.N,UART2_RX*%
X69600000Y-47562500D03*
%TO.P,U5,26,PB3*%
%TO.N,UART2_TX*%
X69100000Y-47562500D03*
%TO.P,U5,27,PB4*%
%TO.N,unconnected-(U5-PB4-Pad27)*%
X68600000Y-47562500D03*
%TO.P,U5,28,PB5*%
%TO.N,PB5_TIM17_CH1*%
X68100000Y-47562500D03*
%TO.P,U5,29,PB6*%
%TO.N,PB6_TIM16_CH1N*%
X67600000Y-47562500D03*
%TO.P,U5,30,PB7*%
%TO.N,PB7_TIM17_CH1N*%
X67100000Y-47562500D03*
%TO.P,U5,31,PB8*%
%TO.N,Net-(SW1-B)*%
X66600000Y-47562500D03*
%TO.P,U5,32,VSS*%
%TO.N,GND*%
X66100000Y-47562500D03*
D28*
%TO.P,U5,33,VSS*%
X67850000Y-50000000D03*
%TD*%
D10*
%TO.P,C4,1*%
%TO.N,+12V*%
X69725000Y-36000000D03*
%TO.P,C4,2*%
%TO.N,GND*%
X71275000Y-36000000D03*
%TD*%
D11*
%TO.P,C10,1*%
%TO.N,OSC_OUT*%
X61775000Y-53500000D03*
%TO.P,C10,2*%
%TO.N,GND*%
X60225000Y-53500000D03*
%TD*%
D18*
%TO.P,FB1,1*%
%TO.N,+3.3VA*%
X72487500Y-45500000D03*
%TO.P,FB1,2*%
%TO.N,+3.3V*%
X74062500Y-45500000D03*
%TD*%
D29*
%TO.P,SW1,1,B*%
%TO.N,Net-(SW1-B)*%
X76791600Y-47362700D03*
%TO.P,SW1,2,C*%
%TO.N,+3.3V*%
X76791600Y-41000000D03*
%TO.P,SW1,3,A*%
%TO.N,GND*%
X80500000Y-47362700D03*
%TO.P,SW1,4*%
%TO.N,N/C*%
X80500000Y-41000000D03*
%TD*%
D11*
%TO.P,C1,1*%
%TO.N,VBUS*%
X85775000Y-34500000D03*
%TO.P,C1,2*%
%TO.N,GND*%
X84225000Y-34500000D03*
%TD*%
D21*
%TO.P,Rshunt2,1*%
%TO.N,Vout*%
X59925001Y-34500000D03*
%TO.P,Rshunt2,2*%
%TO.N,Vphase*%
X61575001Y-34500000D03*
%TD*%
D10*
%TO.P,C9,1*%
%TO.N,OSC_IN*%
X59450000Y-47500000D03*
%TO.P,C9,2*%
%TO.N,GND*%
X61000000Y-47500000D03*
%TD*%
D30*
%TO.P,J5,*%
%TO.N,*%
X81640000Y-37180001D03*
D31*
X81640000Y-33000000D03*
D30*
X73000000Y-37180001D03*
D31*
X73000000Y-33000000D03*
D32*
%TO.P,J5,A1-B12*%
%TO.N,N/C*%
X80520001Y-37750001D03*
%TO.P,J5,A4-B9*%
X79720000Y-37750001D03*
D33*
%TO.P,J5,A5,CC1*%
%TO.N,Net-(J5-CC1)*%
X78570000Y-37750001D03*
%TO.P,J5,A6,D+*%
%TO.N,USB_DP*%
X77570000Y-37750001D03*
%TO.P,J5,A7,D-*%
%TO.N,USB_DM*%
X77070000Y-37750001D03*
%TO.P,J5,A8,SBU1*%
%TO.N,unconnected-(J5-SBU1-PadA8)*%
X76070000Y-37750001D03*
D32*
%TO.P,J5,B1-A12*%
%TO.N,N/C*%
X74120001Y-37750001D03*
%TO.P,J5,B4-A9*%
X74920000Y-37750001D03*
D33*
%TO.P,J5,B5,CC2*%
%TO.N,Net-(J5-CC2)*%
X75570001Y-37750001D03*
%TO.P,J5,B6,D+*%
%TO.N,USB_DP*%
X76569999Y-37750001D03*
%TO.P,J5,B7,D-*%
%TO.N,USB_DM*%
X78070001Y-37750001D03*
%TO.P,J5,B8,SBU2*%
%TO.N,unconnected-(J5-SBU2-PadB8)*%
X79069999Y-37750001D03*
%TD*%
D34*
%TO.P,U3,21*%
%TO.N,N/C*%
X67835000Y-41835000D03*
X68985000Y-41835000D03*
X68985000Y-42985000D03*
X67835000Y-42985000D03*
D35*
%TO.P,U3,1,W*%
%TO.N,Wphase*%
X66960000Y-41610000D03*
%TO.P,U3,2,VCP*%
%TO.N,Net-(U3-VCP)*%
X66960000Y-42010000D03*
%TO.P,U3,3,UH*%
%TO.N,PA2_TIM15_CH1*%
X66960000Y-42410000D03*
%TO.P,U3,4,VH*%
%TO.N,PA6_TIM16_CH1*%
X66960000Y-42810000D03*
%TO.P,U3,5,WH*%
%TO.N,PB5_TIM17_CH1*%
X66960000Y-43210000D03*
D36*
%TO.P,U3,6,UL*%
%TO.N,PA2_TIM15_CH1N*%
X67610000Y-43860000D03*
%TO.P,U3,7,WL*%
%TO.N,PB7_TIM17_CH1N*%
X68010000Y-43860000D03*
%TO.P,U3,8,GND*%
%TO.N,GND*%
X68410000Y-43860000D03*
%TO.P,U3,9,GND*%
X68810000Y-43860000D03*
%TO.P,U3,10,VL*%
%TO.N,PB6_TIM16_CH1N*%
X69210000Y-43860000D03*
D35*
%TO.P,U3,11,VIO/NSTDBY*%
%TO.N,MOTOR_STDBY*%
X69860000Y-43210000D03*
%TO.P,U3,12,DIAG*%
%TO.N,MOTOR_DIAG*%
X69860000Y-42810000D03*
%TO.P,U3,13,1.8VOUT*%
%TO.N,Net-(U3-1.8VOUT)*%
X69860000Y-42410000D03*
%TO.P,U3,14,GND*%
%TO.N,GND*%
X69860000Y-42010000D03*
%TO.P,U3,15,U*%
%TO.N,Uphase*%
X69860000Y-41610000D03*
D36*
%TO.P,U3,16,BRUV*%
%TO.N,GND*%
X69210000Y-40960000D03*
%TO.P,U3,17,V*%
%TO.N,Vphase*%
X68810000Y-40960000D03*
%TO.P,U3,18,VS*%
%TO.N,+12V*%
X68410000Y-40960000D03*
%TO.P,U3,19*%
%TO.N,N/C*%
X68010000Y-40960000D03*
%TO.P,U3,20,BRW*%
%TO.N,GND*%
X67610000Y-40960000D03*
D37*
%TO.P,U3,21*%
%TO.N,N/C*%
X68410000Y-42410000D03*
%TD*%
D17*
%TO.P,R1,1*%
%TO.N,GND*%
X83000000Y-45350000D03*
%TO.P,R1,2*%
%TO.N,Net-(D1-K)*%
X83000000Y-47000000D03*
%TD*%
D10*
%TO.P,C15,1*%
%TO.N,+3.3V*%
X80225000Y-49000000D03*
%TO.P,C15,2*%
%TO.N,GND*%
X81775000Y-49000000D03*
%TD*%
D38*
%TO.P,D3,1,K*%
%TO.N,Net-(D3-K)*%
X90000000Y-31425000D03*
%TO.P,D3,2,A*%
%TO.N,+3.3V*%
X90000000Y-33000000D03*
%TD*%
D14*
%TO.P,J6,1,Pin_1*%
%TO.N,VBUS*%
X86000000Y-32000000D03*
D13*
%TO.P,J6,2,Pin_2*%
%TO.N,GND*%
X84000000Y-32000000D03*
%TD*%
D39*
%TO.N,GND*%
X87077484Y-53273299D03*
X75000000Y-44000000D03*
%TO.N,+3.3V*%
X76900000Y-46386448D03*
X75000000Y-45000000D03*
%TO.N,I2C_SDA*%
X87000000Y-50000000D03*
X72065687Y-51202003D03*
%TO.N,I2C_SCL*%
X71500000Y-50500000D03*
X86000000Y-50000000D03*
%TO.N,Net-(J1-Programmer1-Pin_1)*%
X72500000Y-49001000D03*
%TO.N,Net-(J1-Programmer1-Pin_2)*%
X74499000Y-50001003D03*
%TO.N,GND*%
X70500000Y-52500000D03*
%TO.N,+3.3VA*%
X69000000Y-53500000D03*
X71374850Y-45400000D03*
%TO.N,GND*%
X83500000Y-51500000D03*
X62000000Y-47500000D03*
X79000000Y-51500000D03*
X89500000Y-36000000D03*
X62153787Y-49100000D03*
X74499000Y-48000000D03*
X65500000Y-47500000D03*
X71500000Y-39000000D03*
X67000000Y-41000000D03*
X71000000Y-33500000D03*
X59785000Y-52560000D03*
X81500000Y-39500000D03*
X62000000Y-40500000D03*
X70674816Y-40500000D03*
X68609890Y-45001522D03*
X69500000Y-40000000D03*
%TO.N,Net-(SW1-B)*%
X77500000Y-47500000D03*
X66202500Y-43656563D03*
%TO.N,+3.3V*%
X69790254Y-46125375D03*
X66000000Y-46500000D03*
%TO.N,V_ADC1_IN10*%
X63125108Y-52993167D03*
X59500000Y-37500000D03*
%TO.N,W_ADC2_IN4*%
X60100000Y-43500000D03*
X67031494Y-54280024D03*
%TO.N,U_ADC1_IN15*%
X68100000Y-54500000D03*
X63475000Y-46218733D03*
%TO.N,UART2_TX*%
X87500000Y-47000000D03*
X71340508Y-47407791D03*
%TO.N,PA2_TIM15_CH1*%
X63934313Y-51434313D03*
X64003921Y-46930392D03*
%TO.N,MOTOR_STDBY*%
X70000000Y-44000000D03*
X64500000Y-52000000D03*
%TO.N,PB5_TIM17_CH1*%
X67000000Y-44418798D03*
X69810000Y-44777111D03*
%TO.N,UART2_RX*%
X74499000Y-48800003D03*
X87163750Y-45336250D03*
%TO.N,MOTOR_DIAG*%
X70900000Y-43004760D03*
X65065687Y-52565687D03*
%TO.N,Vphase*%
X65000000Y-38600000D03*
X69010000Y-39000000D03*
%TO.N,Wphase*%
X63500000Y-39100000D03*
X66100000Y-41000000D03*
%TO.N,Uphase*%
X65000000Y-37100000D03*
X70000000Y-39000000D03*
%TD*%
D40*
%TO.N,GND*%
X61035000Y-49500000D02*
X61035000Y-49644000D01*
X61035000Y-49644000D02*
X59785000Y-50894000D01*
X59785000Y-50894000D02*
X59785000Y-51150000D01*
X90000000Y-49500000D02*
X90000000Y-51450000D01*
X90550000Y-53950000D02*
X90500000Y-54000000D01*
X90000000Y-51450000D02*
X90550000Y-52000000D01*
X90550000Y-52000000D02*
X90550000Y-53950000D01*
%TO.N,+3.3V*%
X88950000Y-54000000D02*
X89000000Y-53950000D01*
X89000000Y-53950000D02*
X89000000Y-52000000D01*
%TO.N,GND*%
X86962500Y-53462500D02*
X86800000Y-53625001D01*
X86962500Y-53462500D02*
X87077484Y-53347516D01*
X87077484Y-53347516D02*
X87077484Y-53273299D01*
%TO.N,Net-(D3-K)*%
X88500000Y-31350000D02*
X89925000Y-31350000D01*
X89925000Y-31350000D02*
X90000000Y-31425000D01*
%TO.N,GND*%
X88500000Y-33000000D02*
X88500000Y-32500000D01*
%TO.N,+3.3V*%
X88000000Y-34500000D02*
X88776000Y-33724000D01*
X88776000Y-33724000D02*
X89276000Y-33724000D01*
X89276000Y-33724000D02*
X90000000Y-33000000D01*
%TO.N,GND*%
X74050000Y-44000000D02*
X75000000Y-44000000D01*
%TO.N,PA2_TIM15_CH1*%
X65765028Y-42410000D02*
X66960000Y-42410000D01*
X64003921Y-46930392D02*
X64003921Y-46539755D01*
X64003921Y-46539755D02*
X64076000Y-46467676D01*
X64076000Y-46467676D02*
X64076000Y-46066008D01*
X64076000Y-46066008D02*
X65476028Y-44665980D01*
X65476028Y-42699000D02*
X65765028Y-42410000D01*
X65476028Y-44665980D02*
X65476028Y-42699000D01*
%TO.N,U_ADC1_IN15*%
X66432900Y-36500000D02*
X64150001Y-36500000D01*
X67599000Y-37666100D02*
X66432900Y-36500000D01*
X67599000Y-39599000D02*
X67599000Y-37666100D01*
X65833900Y-39599000D02*
X67599000Y-39599000D01*
X65099000Y-40401000D02*
X65099000Y-40333900D01*
X65075028Y-40424972D02*
X65099000Y-40401000D01*
X65075028Y-44499880D02*
X65075028Y-40424972D01*
X65099000Y-40333900D02*
X65833900Y-39599000D01*
X63475000Y-46099908D02*
X65075028Y-44499880D01*
X63475000Y-46218733D02*
X63475000Y-46099908D01*
%TO.N,PB5_TIM17_CH1*%
X67000000Y-43250000D02*
X66960000Y-43210000D01*
X67000000Y-44418798D02*
X67000000Y-43250000D01*
%TO.N,Net-(SW1-B)*%
X66330330Y-45461704D02*
X66600000Y-45731374D01*
X66330330Y-43784393D02*
X66330330Y-45461704D01*
X66600000Y-45731374D02*
X66600000Y-47562500D01*
X66202500Y-43656563D02*
X66330330Y-43784393D01*
%TO.N,+3.3V*%
X62500000Y-46275000D02*
X64475000Y-48250000D01*
X64475000Y-48250000D02*
X65412500Y-48250000D01*
X72500000Y-47000000D02*
X71625375Y-46125375D01*
X71625375Y-46125375D02*
X69790254Y-46125375D01*
%TO.N,USB_DP*%
X70821698Y-49250000D02*
X70747698Y-49324000D01*
X71817100Y-49250000D02*
X70821698Y-49250000D01*
X73666100Y-51099000D02*
X71817100Y-49250000D01*
X74833900Y-51099000D02*
X73666100Y-51099000D01*
X75971001Y-42104151D02*
X75971001Y-45186399D01*
X75198000Y-50734900D02*
X74833900Y-51099000D01*
X70747698Y-49324000D02*
X70361500Y-49324000D01*
X75198000Y-45959400D02*
X75198000Y-50734900D01*
X75971001Y-45186399D02*
X75198000Y-45959400D01*
X75810200Y-41943350D02*
X75971001Y-42104151D01*
X75810200Y-39361801D02*
X75810200Y-41943350D01*
X76523400Y-38648601D02*
X75810200Y-39361801D01*
X76523400Y-38622501D02*
X76523400Y-38648601D01*
X70361500Y-49324000D02*
X70287500Y-49250000D01*
X76523400Y-37750001D02*
X76523400Y-38622501D01*
X76569999Y-37750001D02*
X76523400Y-37750001D01*
%TO.N,+3.3V*%
X76900000Y-46386448D02*
X76386448Y-46386448D01*
X74062500Y-45500000D02*
X74500000Y-45500000D01*
X74500000Y-45500000D02*
X75000000Y-45000000D01*
X76386448Y-46386448D02*
X76145800Y-46145800D01*
X76000000Y-46291600D02*
X76145800Y-46145800D01*
%TO.N,USB_DM*%
X77116600Y-38622501D02*
X76211200Y-39527901D01*
X75599000Y-50901000D02*
X75000000Y-51500000D01*
X75000000Y-51500000D02*
X73500000Y-51500000D01*
X70987798Y-49651000D02*
X70888798Y-49750000D01*
X70888798Y-49750000D02*
X70287500Y-49750000D01*
X76211200Y-39527901D02*
X76211200Y-41777250D01*
X76211200Y-41777250D02*
X76390600Y-41777250D01*
X76390600Y-45333900D02*
X75599000Y-46125500D01*
X76390600Y-41777250D02*
X76390600Y-45333900D01*
X73500000Y-51500000D02*
X71651000Y-49651000D01*
X75599000Y-46125500D02*
X75599000Y-50901000D01*
X71651000Y-49651000D02*
X70987798Y-49651000D01*
X77116600Y-38622501D02*
X77116600Y-37796601D01*
X77116600Y-37796601D02*
X77070000Y-37750001D01*
%TO.N,+3.3V*%
X76000000Y-51500000D02*
X76000000Y-46291600D01*
X76145800Y-46145800D02*
X76791600Y-45500000D01*
X76791600Y-45500000D02*
X76791600Y-41000000D01*
%TO.N,Net-(SW1-B)*%
X77500000Y-47500000D02*
X77362700Y-47362700D01*
X77362700Y-47362700D02*
X76791600Y-47362700D01*
%TO.N,NRST*%
X77000000Y-54500000D02*
X75899000Y-55601000D01*
X75899000Y-55601000D02*
X62376000Y-55601000D01*
X62376000Y-55601000D02*
X61775000Y-55000000D01*
%TO.N,V_ADC1_IN10*%
X63125108Y-52993167D02*
X63000000Y-52868059D01*
X63000000Y-52868059D02*
X63000000Y-50947253D01*
X63000000Y-50947253D02*
X63697253Y-50250000D01*
X63697253Y-50250000D02*
X65412500Y-50250000D01*
%TO.N,+3.3V*%
X70287500Y-51750000D02*
X70750000Y-51750000D01*
X70750000Y-51750000D02*
X71000000Y-52000000D01*
X71000000Y-52000000D02*
X75500000Y-52000000D01*
X75500000Y-52000000D02*
X76000000Y-51500000D01*
%TO.N,I2C_SDA*%
X87450000Y-49550000D02*
X87450000Y-48637500D01*
X70287500Y-51250000D02*
X72017690Y-51250000D01*
X72017690Y-51250000D02*
X72065687Y-51202003D01*
X87000000Y-50000000D02*
X87450000Y-49550000D01*
%TO.N,I2C_SCL*%
X70287500Y-50750000D02*
X70287500Y-50712500D01*
X71324000Y-50676000D02*
X71500000Y-50500000D01*
X70500000Y-50676000D02*
X71324000Y-50676000D01*
X70287500Y-50712500D02*
X70324000Y-50676000D01*
X86800000Y-49294870D02*
X86800000Y-48637500D01*
X70324000Y-50676000D02*
X70500000Y-50676000D01*
X86000000Y-50000000D02*
X86094870Y-50000000D01*
X86094870Y-50000000D02*
X86800000Y-49294870D01*
%TO.N,UART2_RX*%
X69600000Y-47562500D02*
X69662500Y-47500000D01*
X69662500Y-47500000D02*
X70739508Y-47500000D01*
X70739508Y-47500000D02*
X70739508Y-47656734D01*
X70739508Y-47656734D02*
X71091565Y-48008791D01*
X71091565Y-48008791D02*
X71589451Y-48008791D01*
X71589451Y-48008791D02*
X71598242Y-48000000D01*
X71598242Y-48000000D02*
X73500000Y-48000000D01*
X73500000Y-48000000D02*
X74300003Y-48800003D01*
X74300003Y-48800003D02*
X74499000Y-48800003D01*
%TO.N,Net-(J1-Programmer1-Pin_1)*%
X70287500Y-48750000D02*
X70348291Y-48810791D01*
X70348291Y-48810791D02*
X72309791Y-48810791D01*
X72309791Y-48810791D02*
X72500000Y-49001000D01*
%TO.N,Net-(J1-Programmer1-Pin_2)*%
X70287500Y-48250000D02*
X70750000Y-48250000D01*
X70750000Y-48250000D02*
X70757837Y-48242163D01*
X70757837Y-48242163D02*
X70925465Y-48409791D01*
X70925465Y-48409791D02*
X71755551Y-48409791D01*
X71755551Y-48409791D02*
X71765143Y-48400199D01*
X71765143Y-48400199D02*
X71765944Y-48401000D01*
X71765944Y-48401000D02*
X72898997Y-48401000D01*
X72898997Y-48401000D02*
X74499000Y-50001003D01*
%TO.N,UART2_TX*%
X69385202Y-46824000D02*
X69100000Y-47109202D01*
X69990798Y-47000000D02*
X69814798Y-46824000D01*
X69100000Y-47109202D02*
X69100000Y-47562500D01*
X71001000Y-47000000D02*
X69990798Y-47000000D01*
X71340508Y-47339508D02*
X71001000Y-47000000D01*
X69814798Y-46824000D02*
X69385202Y-46824000D01*
X71340508Y-47407791D02*
X71340508Y-47339508D01*
%TO.N,GND*%
X70500000Y-52500000D02*
X70000000Y-52500000D01*
X70000000Y-52500000D02*
X69937500Y-52437500D01*
X69937500Y-52437500D02*
X69600000Y-52437500D01*
%TO.N,+3.3VA*%
X69100000Y-53400000D02*
X69100000Y-52437500D01*
X69000000Y-53500000D02*
X69100000Y-53400000D01*
X71474850Y-45500000D02*
X71374850Y-45400000D01*
X72487500Y-45500000D02*
X71474850Y-45500000D01*
%TO.N,+3.3V*%
X80225000Y-53275000D02*
X80225000Y-52000000D01*
%TO.N,GND*%
X83000000Y-52000000D02*
X83500000Y-51500000D01*
X81775000Y-52000000D02*
X83000000Y-52000000D01*
X61000000Y-47500000D02*
X62000000Y-47500000D01*
X72500000Y-39500000D02*
X74000000Y-41000000D01*
X65562500Y-47562500D02*
X65500000Y-47500000D01*
X68410000Y-44399611D02*
X68410000Y-43860000D01*
X68600000Y-52437500D02*
X68600000Y-50750000D01*
X67610000Y-40960000D02*
X67040000Y-40960000D01*
X87101001Y-53324000D02*
X86962500Y-53462500D01*
X70000000Y-37500000D02*
X69950000Y-37500000D01*
X89550000Y-35225000D02*
X88300000Y-36475000D01*
X71225000Y-36000000D02*
X69725000Y-37500000D01*
X83000000Y-45350000D02*
X82224000Y-44574000D01*
X67040000Y-40960000D02*
X67000000Y-41000000D01*
X83767000Y-34500000D02*
X82545800Y-35721200D01*
X84000000Y-32000000D02*
X84000000Y-34275000D01*
X71275000Y-36000000D02*
X71275000Y-34500000D01*
X70655775Y-42010000D02*
X69860000Y-42010000D01*
X66151000Y-48301000D02*
X67850000Y-50000000D01*
X69210000Y-40290000D02*
X69500000Y-40000000D01*
X74050000Y-44000000D02*
X74050000Y-42500000D01*
X68530636Y-44922268D02*
X68530636Y-44520247D01*
X62200000Y-40700000D02*
X62000000Y-40500000D01*
X69210000Y-40960000D02*
X69210000Y-40290000D01*
X80325000Y-39500000D02*
X81500000Y-39500000D01*
X82545800Y-35721200D02*
X82545800Y-38454200D01*
X68609890Y-45001522D02*
X68530636Y-44922268D01*
X62500000Y-44725000D02*
X62200000Y-44425000D01*
X70674816Y-41990959D02*
X70655775Y-42010000D01*
X74050000Y-41050000D02*
X74000000Y-41000000D01*
X83000000Y-45350000D02*
X82512700Y-45350000D01*
X61035000Y-49500000D02*
X61753787Y-49500000D01*
X69549000Y-52386500D02*
X69549000Y-51699000D01*
X69549000Y-51699000D02*
X67850000Y-50000000D01*
X86800000Y-55099999D02*
X86800000Y-54362500D01*
X66151000Y-47613500D02*
X66151000Y-48301000D01*
X60225000Y-54500000D02*
X60225000Y-53000000D01*
X78500000Y-51000000D02*
X79000000Y-51500000D01*
X69500000Y-32000000D02*
X71000000Y-33500000D01*
X70674816Y-40500000D02*
X70674816Y-41990959D01*
X81500000Y-39500000D02*
X83000000Y-41000000D01*
X71275000Y-36000000D02*
X71225000Y-36000000D01*
X83000000Y-41000000D02*
X83000000Y-42350000D01*
X68600000Y-50750000D02*
X67850000Y-50000000D01*
X66100000Y-47562500D02*
X66151000Y-47613500D01*
X82545800Y-38454200D02*
X81500000Y-39500000D01*
X74050000Y-47550000D02*
X74500000Y-48000000D01*
X62200000Y-42342000D02*
X62200000Y-40700000D01*
X71950000Y-39450000D02*
X71500000Y-39000000D01*
X69600000Y-52437500D02*
X69549000Y-52386500D01*
X72500000Y-39450000D02*
X72500000Y-39500000D01*
X61753787Y-49500000D02*
X62153787Y-49100000D01*
X82512700Y-45350000D02*
X80500000Y-47362700D01*
X82224000Y-43126000D02*
X83000000Y-42350000D01*
X84225000Y-34500000D02*
X83767000Y-34500000D01*
X80500000Y-47362700D02*
X81775000Y-48637700D01*
X81775000Y-49000000D02*
X81775000Y-50525000D01*
X71000000Y-33500000D02*
X71000000Y-34225000D01*
X86800000Y-53625001D02*
X86800000Y-54362500D01*
X60225000Y-53500000D02*
X60225000Y-53000000D01*
X74050000Y-47000000D02*
X74050000Y-47550000D01*
X77000000Y-50775000D02*
X78500000Y-50775000D01*
X81775000Y-48637700D02*
X81775000Y-49000000D01*
X62200000Y-44425000D02*
X62200000Y-42342000D01*
X74500000Y-48000000D02*
X74499000Y-48000000D01*
X72500000Y-39450000D02*
X71950000Y-39450000D01*
X71000000Y-34225000D02*
X71275000Y-34500000D01*
X74050000Y-42500000D02*
X74050000Y-41050000D01*
X69275000Y-32225000D02*
X69500000Y-32000000D01*
X81775000Y-50525000D02*
X81775000Y-52000000D01*
X68810000Y-43860000D02*
X68410000Y-43860000D01*
X89550000Y-34500000D02*
X89550000Y-35225000D01*
X66100000Y-47562500D02*
X65562500Y-47562500D01*
X84000000Y-32000000D02*
X84976000Y-31024000D01*
X82224000Y-44574000D02*
X82224000Y-43126000D01*
X89550000Y-35225000D02*
X89550000Y-35950000D01*
X59785000Y-51150000D02*
X59785000Y-52560000D01*
X78500000Y-50775000D02*
X78500000Y-51000000D01*
X89550000Y-35950000D02*
X89500000Y-36000000D01*
X87024000Y-31024000D02*
X88500000Y-32500000D01*
X84000000Y-34275000D02*
X84225000Y-34500000D01*
X84976000Y-31024000D02*
X87024000Y-31024000D01*
X59785000Y-52560000D02*
X60225000Y-53000000D01*
%TO.N,+3.3V*%
X64674028Y-40191772D02*
X64674028Y-44100972D01*
X90380273Y-48500000D02*
X90976000Y-47904273D01*
X65601000Y-38351057D02*
X65601000Y-39264800D01*
X86025000Y-36475000D02*
X86000000Y-36475000D01*
X85500000Y-53625001D02*
X84650999Y-52776000D01*
X64500000Y-47650057D02*
X65650057Y-46500000D01*
X64674028Y-44100972D02*
X62500000Y-46275000D01*
X80225000Y-52000000D02*
X80225000Y-49000000D01*
X77000000Y-49225000D02*
X76000000Y-50225000D01*
X81001000Y-52776000D02*
X80225000Y-52000000D01*
X74062500Y-45500000D02*
X74000000Y-45500000D01*
X89000000Y-49119727D02*
X89619727Y-48500000D01*
X90976000Y-44476000D02*
X90000000Y-43500000D01*
X62762400Y-37999000D02*
X65248943Y-37999000D01*
X86000000Y-39500000D02*
X90000000Y-43500000D01*
X86150000Y-54362500D02*
X86150000Y-52350000D01*
X62200000Y-37436600D02*
X62762400Y-37999000D01*
X62200000Y-36500000D02*
X62200000Y-37436600D01*
X65248943Y-37999000D02*
X65601000Y-38351057D01*
X64500000Y-48250000D02*
X65412500Y-48250000D01*
X74000000Y-45500000D02*
X72500000Y-47000000D01*
X77225000Y-49000000D02*
X77000000Y-49225000D01*
X65650057Y-46500000D02*
X66000000Y-46500000D01*
X86000000Y-36475000D02*
X86000000Y-39500000D01*
X84650999Y-52776000D02*
X81001000Y-52776000D01*
X89000000Y-52000000D02*
X86500000Y-52000000D01*
X86150000Y-52350000D02*
X86500000Y-52000000D01*
X85500000Y-54362500D02*
X85500000Y-53625001D01*
X65601000Y-39264800D02*
X64674028Y-40191772D01*
X80225000Y-49000000D02*
X77225000Y-49000000D01*
X64500000Y-48250000D02*
X64500000Y-47650057D01*
X89000000Y-52000000D02*
X89000000Y-49119727D01*
X86150000Y-54362500D02*
X85500000Y-54362500D01*
X89619727Y-48500000D02*
X90380273Y-48500000D01*
X90976000Y-47904273D02*
X90976000Y-44476000D01*
X76000000Y-50225000D02*
X76000000Y-51500000D01*
X88000000Y-34500000D02*
X86025000Y-36475000D01*
%TO.N,V_ADC1_IN10*%
X59500000Y-37250001D02*
X60250001Y-36500000D01*
X59500000Y-37500000D02*
X59500000Y-37250001D01*
%TO.N,+3.3VA*%
X72500000Y-43000000D02*
X72487500Y-43012500D01*
X72500000Y-42500000D02*
X72500000Y-43000000D01*
X72487500Y-43012500D02*
X72487500Y-45500000D01*
%TO.N,W_ADC2_IN4*%
X67600000Y-53711518D02*
X67031494Y-54280024D01*
X60249999Y-42342000D02*
X60249999Y-43350001D01*
X67600000Y-52437500D02*
X67600000Y-53711518D01*
X60249999Y-43350001D02*
X60100000Y-43500000D01*
%TO.N,U_ADC1_IN15*%
X68100000Y-54500000D02*
X68100000Y-52437500D01*
X68100000Y-52890798D02*
X68100000Y-52437500D01*
%TO.N,PB7_TIM17_CH1N*%
X67100000Y-45900000D02*
X67100000Y-47562500D01*
X68010000Y-44990000D02*
X67100000Y-45900000D01*
X68010000Y-43860000D02*
X68010000Y-44990000D01*
%TO.N,OSC_OUT*%
X61775000Y-51890000D02*
X61035000Y-51150000D01*
X62198000Y-49701000D02*
X62402730Y-49701000D01*
X62000000Y-50500000D02*
X62000000Y-49899000D01*
X61035000Y-51150000D02*
X61350000Y-51150000D01*
X62000000Y-49899000D02*
X62198000Y-49701000D01*
X62851000Y-49250000D02*
X65412500Y-49250000D01*
X61775000Y-53500000D02*
X61775000Y-51890000D01*
X62754787Y-49348943D02*
X62754787Y-49346213D01*
X62754787Y-49346213D02*
X62851000Y-49250000D01*
X61350000Y-51150000D02*
X62000000Y-50500000D01*
X62402730Y-49701000D02*
X62754787Y-49348943D01*
%TO.N,UART2_TX*%
X87000000Y-46500000D02*
X86075000Y-46500000D01*
X87500000Y-47000000D02*
X87000000Y-46500000D01*
%TO.N,PA2_TIM15_CH1*%
X64000000Y-51500000D02*
X63934313Y-51434313D01*
X64250000Y-51250000D02*
X64000000Y-51500000D01*
X65412500Y-51250000D02*
X64250000Y-51250000D01*
%TO.N,MOTOR_STDBY*%
X70255760Y-43605760D02*
X69860000Y-43210000D01*
X70000000Y-43350000D02*
X69860000Y-43210000D01*
X71676816Y-41823184D02*
X71676816Y-43077887D01*
X64750000Y-51750000D02*
X64500000Y-52000000D01*
X70000000Y-44000000D02*
X70000000Y-43350000D01*
X65412500Y-51750000D02*
X64750000Y-51750000D01*
X71148943Y-43605760D02*
X70255760Y-43605760D01*
X71676816Y-43077887D02*
X71148943Y-43605760D01*
X72500000Y-41000000D02*
X71676816Y-41823184D01*
%TO.N,NRST*%
X62821830Y-49849000D02*
X63017100Y-49849000D01*
X62500000Y-50567100D02*
X62500000Y-50102000D01*
X62568830Y-50102000D02*
X62821830Y-49849000D01*
X62224110Y-54276000D02*
X62526000Y-53974110D01*
X62176000Y-52724000D02*
X62176000Y-51723900D01*
X62000000Y-54775000D02*
X62000000Y-54276000D01*
X63116100Y-49750000D02*
X65412500Y-49750000D01*
X61836000Y-51231100D02*
X62500000Y-50567100D01*
X62224110Y-52724000D02*
X62176000Y-52724000D01*
X62500000Y-50102000D02*
X62568830Y-50102000D01*
X62526000Y-53974110D02*
X62526000Y-53025890D01*
X62526000Y-53025890D02*
X62224110Y-52724000D01*
X61836000Y-51383900D02*
X61836000Y-51231100D01*
X62176000Y-51723900D02*
X61836000Y-51383900D01*
X63017100Y-49849000D02*
X63116100Y-49750000D01*
X61775000Y-55000000D02*
X62000000Y-54775000D01*
X62000000Y-54276000D02*
X62224110Y-54276000D01*
%TO.N,PB5_TIM17_CH1*%
X69810000Y-44777111D02*
X69611000Y-44976111D01*
X68100000Y-46100000D02*
X68100000Y-47562500D01*
X69063578Y-46003522D02*
X68166100Y-46003522D01*
X68084811Y-46084811D02*
X68100000Y-46100000D01*
X69611000Y-44976111D02*
X69611000Y-45456100D01*
X68166100Y-46003522D02*
X68084811Y-46084811D01*
X69611000Y-45456100D02*
X69063578Y-46003522D01*
%TO.N,USB_DM*%
X77070000Y-37750001D02*
X77070000Y-38575901D01*
X77070000Y-38575901D02*
X77116600Y-38622501D01*
X77116600Y-38622501D02*
X78023400Y-38622501D01*
X78070001Y-38575900D02*
X78070001Y-37750001D01*
X78023400Y-38622501D02*
X78070001Y-38575900D01*
%TO.N,USB_DP*%
X76569999Y-36924102D02*
X76616600Y-36877501D01*
X76616600Y-36877501D02*
X77523400Y-36877501D01*
X77570000Y-36924101D02*
X77570000Y-37750001D01*
X76569999Y-37750001D02*
X76569999Y-36924102D01*
X77523400Y-36877501D02*
X77570000Y-36924101D01*
%TO.N,UART2_RX*%
X87500000Y-45500000D02*
X87000000Y-45000000D01*
X87327500Y-45500000D02*
X86827500Y-45000000D01*
X87000000Y-45000000D02*
X86075000Y-45000000D01*
X88500000Y-45500000D02*
X87500000Y-45500000D01*
X90000000Y-45500000D02*
X88500000Y-45500000D01*
X87500000Y-45500000D02*
X87327500Y-45500000D01*
%TO.N,MOTOR_DIAG*%
X65562500Y-52437500D02*
X66100000Y-52437500D01*
X69860000Y-42810000D02*
X70705240Y-42810000D01*
X65434313Y-52565687D02*
X65562500Y-52437500D01*
X70705240Y-42810000D02*
X70900000Y-43004760D01*
X65065687Y-52565687D02*
X65434313Y-52565687D01*
%TO.N,OSC_IN*%
X59450000Y-49165000D02*
X59785000Y-49500000D01*
X62500000Y-48500000D02*
X62750000Y-48750000D01*
X59450000Y-48500000D02*
X62500000Y-48500000D01*
X59450000Y-48500000D02*
X59450000Y-49165000D01*
X62750000Y-48750000D02*
X65412500Y-48750000D01*
X59450000Y-47500000D02*
X59450000Y-48500000D01*
%TO.N,PB6_TIM16_CH1N*%
X68000000Y-45602522D02*
X68897478Y-45602522D01*
X67600000Y-47562500D02*
X67600000Y-46002522D01*
X68897478Y-45602522D02*
X69210000Y-45290000D01*
X67600000Y-46002522D02*
X68000000Y-45602522D01*
X69210000Y-45290000D02*
X69210000Y-43860000D01*
%TO.N,Vphase*%
X65000000Y-38600000D02*
X64900000Y-38500000D01*
X61550001Y-36500000D02*
X61550001Y-34525000D01*
X64900000Y-38500000D02*
X62000000Y-38500000D01*
X68810000Y-40960000D02*
X68810000Y-39200000D01*
X62000000Y-38500000D02*
X61550001Y-38050001D01*
X61550001Y-38050001D02*
X61550001Y-36500000D01*
X68810000Y-39200000D02*
X69010000Y-39000000D01*
%TO.N,Wphase*%
X61721200Y-43379600D02*
X61721200Y-42513201D01*
X61799000Y-44200890D02*
X61799000Y-43379600D01*
X62550057Y-39100000D02*
X63500000Y-39100000D01*
X61774945Y-45225055D02*
X61724000Y-45174110D01*
X61549999Y-42342000D02*
X61399000Y-42191001D01*
X61721200Y-42513201D02*
X61549999Y-42342000D01*
X66100000Y-41000000D02*
X66710000Y-41610000D01*
X61399000Y-40251057D02*
X62550057Y-39100000D01*
X66710000Y-41610000D02*
X66960000Y-41610000D01*
X61724000Y-45174110D02*
X61724000Y-44275890D01*
X61399000Y-42191001D02*
X61399000Y-40251057D01*
X61724000Y-44275890D02*
X61799000Y-44200890D01*
X61000000Y-46000000D02*
X61774945Y-45225055D01*
X61799000Y-43379600D02*
X61721200Y-43379600D01*
%TO.N,+12V*%
X69725000Y-34500000D02*
X68275000Y-34500000D01*
X67500000Y-32000000D02*
X67500000Y-33725000D01*
X68410000Y-37315000D02*
X68410000Y-40960000D01*
X69725000Y-36000000D02*
X69725000Y-34500000D01*
X67500000Y-33725000D02*
X68275000Y-34500000D01*
X67725000Y-32225000D02*
X67500000Y-32000000D01*
X69725000Y-36000000D02*
X68410000Y-37315000D01*
%TO.N,Uphase*%
X65000000Y-37100000D02*
X64562400Y-37537600D01*
X69860000Y-40489943D02*
X69860000Y-41610000D01*
X62849999Y-37366399D02*
X62849999Y-36500000D01*
X63021200Y-37537600D02*
X62849999Y-37366399D01*
X70000000Y-39000000D02*
X70101000Y-39101000D01*
X62849999Y-36500000D02*
X62849999Y-34575002D01*
X64562400Y-37537600D02*
X63021200Y-37537600D01*
X70101000Y-39101000D02*
X70101000Y-40248943D01*
X70101000Y-40248943D02*
X69860000Y-40489943D01*
X65000000Y-37100000D02*
X65000000Y-37500000D01*
%TO.N,Net-(U3-1.8VOUT)*%
X71275816Y-41955059D02*
X70820875Y-42410000D01*
X70899000Y-37876000D02*
X70899000Y-39399000D01*
X71275816Y-39775816D02*
X71275816Y-41955059D01*
X70820875Y-42410000D02*
X69860000Y-42410000D01*
X70899000Y-39399000D02*
X71275816Y-39775816D01*
X71275000Y-37500000D02*
X70899000Y-37876000D01*
%TO.N,Net-(U3-VCP)*%
X65500000Y-41423530D02*
X65500000Y-40500000D01*
X68000000Y-37500000D02*
X66725000Y-36225000D01*
X66725000Y-36225000D02*
X66725000Y-34500000D01*
X65500000Y-40500000D02*
X66000000Y-40000000D01*
X66960000Y-42010000D02*
X66086470Y-42010000D01*
X66000000Y-40000000D02*
X68000000Y-40000000D01*
X66086470Y-42010000D02*
X65500000Y-41423530D01*
X68000000Y-40000000D02*
X68000000Y-37500000D01*
%TO.N,VBUS*%
X85775000Y-32225000D02*
X86000000Y-32000000D01*
X83700000Y-36475000D02*
X83800000Y-36475000D01*
X83800000Y-36475000D02*
X85775000Y-34500000D01*
X85775000Y-34500000D02*
X85775000Y-32225000D01*
%TO.N,Net-(D1-K)*%
X83000000Y-47000000D02*
X84000000Y-47000000D01*
X84000000Y-47000000D02*
X84500000Y-46500000D01*
%TO.N,Net-(D2-K)*%
X84000000Y-45000000D02*
X84500000Y-45000000D01*
X84000000Y-45000000D02*
X83000000Y-44000000D01*
%TO.N,Uout*%
X63500000Y-35575001D02*
X64575001Y-34500000D01*
X64450000Y-34500000D02*
X64274000Y-34676000D01*
X63500000Y-36500000D02*
X63500000Y-35575001D01*
X64250001Y-32000000D02*
X64250001Y-34175000D01*
X64250001Y-34175000D02*
X64575001Y-34500000D01*
%TO.N,Wout*%
X59350000Y-46000000D02*
X59000000Y-45650000D01*
X59000000Y-42000000D02*
X60247300Y-40752700D01*
X58899000Y-39404400D02*
X60247300Y-40752700D01*
X58899000Y-33351001D02*
X58899000Y-39404400D01*
X60900000Y-41405400D02*
X60900000Y-42342000D01*
X59000000Y-45650000D02*
X59000000Y-42000000D01*
X60250001Y-32000000D02*
X58899000Y-33351001D01*
X60247300Y-40752700D02*
X60900000Y-41405400D01*
%TO.N,Vout*%
X59700000Y-34550001D02*
X62250001Y-32000000D01*
X60900000Y-35474999D02*
X59925001Y-34500000D01*
X60900000Y-36500000D02*
X60900000Y-35474999D01*
X62099999Y-32099999D02*
X62000000Y-32000000D01*
%TO.N,Net-(J5-CC2)*%
X75570001Y-38578300D02*
X74798301Y-39350000D01*
X75570001Y-37750001D02*
X75570001Y-38578300D01*
X74798301Y-39350000D02*
X74000000Y-39350000D01*
%TO.N,Net-(J5-CC1)*%
X78570000Y-37750001D02*
X78570000Y-39395000D01*
X78570000Y-39395000D02*
X78675000Y-39500000D01*
%TO.N,+3.3V*%
X79000000Y-54500000D02*
X80225000Y-53275000D01*
%TD*%
M02*
